<svg width="33" height="33" viewBox="0 0 33 33" fill="none" xmlns="http://www.w3.org/2000/svg">
<rect x="0.5" y="0.5" width="32" height="32" rx="16" fill="#FFE6CC"/>
<path fill-rule="evenodd" clip-rule="evenodd" d="M17.5593 16.4995L14.4345 13.3863C14.2487 13.2012 14.2487 12.9002 14.4345 12.715C14.6194 12.5309 14.9185 12.5309 15.1033 12.715L18.9019 16.4995L15.1033 20.284C14.9185 20.4682 14.6194 20.4682 14.4345 20.284C14.2487 20.0989 14.2487 19.7979 14.4345 19.6128L17.5593 16.4995Z" fill="#161B26"/>
<path fill-rule="evenodd" clip-rule="evenodd" d="M17.5593 16.4995L14.4345 13.3863C14.2487 13.2012 14.2487 12.9002 14.4345 12.715C14.6194 12.5309 14.9185 12.5309 15.1033 12.715L18.9019 16.4995L15.1033 20.284C14.9185 20.4682 14.6194 20.4682 14.4345 20.284C14.2487 20.0989 14.2487 19.7979 14.4345 19.6128L17.5593 16.4995Z" fill="black" fill-opacity="0.2"/>
<path fill-rule="evenodd" clip-rule="evenodd" d="M17.5593 16.4995L14.4345 13.3863C14.2487 13.2012 14.2487 12.9002 14.4345 12.715C14.6194 12.5309 14.9185 12.5309 15.1033 12.715L18.9019 16.4995L15.1033 20.284C14.9185 20.4682 14.6194 20.4682 14.4345 20.284C14.2487 20.0989 14.2487 19.7979 14.4345 19.6128L17.5593 16.4995Z" fill="black" fill-opacity="0.2"/>
<path fill-rule="evenodd" clip-rule="evenodd" d="M17.5593 16.4995L14.4345 13.3863C14.2487 13.2012 14.2487 12.9002 14.4345 12.715C14.6194 12.5309 14.9185 12.5309 15.1033 12.715L18.9019 16.4995L15.1033 20.284C14.9185 20.4682 14.6194 20.4682 14.4345 20.284C14.2487 20.0989 14.2487 19.7979 14.4345 19.6128L17.5593 16.4995Z" fill="black" fill-opacity="0.2"/>
<path fill-rule="evenodd" clip-rule="evenodd" d="M17.5593 16.4995L14.4345 13.3863C14.2487 13.2012 14.2487 12.9002 14.4345 12.715C14.6194 12.5309 14.9185 12.5309 15.1033 12.715L18.9019 16.4995L15.1033 20.284C14.9185 20.4682 14.6194 20.4682 14.4345 20.284C14.2487 20.0989 14.2487 19.7979 14.4345 19.6128L17.5593 16.4995Z" stroke="#161B26" stroke-width="0.5"/>
<path fill-rule="evenodd" clip-rule="evenodd" d="M17.5593 16.4995L14.4345 13.3863C14.2487 13.2012 14.2487 12.9002 14.4345 12.715C14.6194 12.5309 14.9185 12.5309 15.1033 12.715L18.9019 16.4995L15.1033 20.284C14.9185 20.4682 14.6194 20.4682 14.4345 20.284C14.2487 20.0989 14.2487 19.7979 14.4345 19.6128L17.5593 16.4995Z" stroke="black" stroke-opacity="0.2" stroke-width="0.5"/>
<path fill-rule="evenodd" clip-rule="evenodd" d="M17.5593 16.4995L14.4345 13.3863C14.2487 13.2012 14.2487 12.9002 14.4345 12.715C14.6194 12.5309 14.9185 12.5309 15.1033 12.715L18.9019 16.4995L15.1033 20.284C14.9185 20.4682 14.6194 20.4682 14.4345 20.284C14.2487 20.0989 14.2487 19.7979 14.4345 19.6128L17.5593 16.4995Z" stroke="black" stroke-opacity="0.2" stroke-width="0.5"/>
<path fill-rule="evenodd" clip-rule="evenodd" d="M17.5593 16.4995L14.4345 13.3863C14.2487 13.2012 14.2487 12.9002 14.4345 12.715C14.6194 12.5309 14.9185 12.5309 15.1033 12.715L18.9019 16.4995L15.1033 20.284C14.9185 20.4682 14.6194 20.4682 14.4345 20.284C14.2487 20.0989 14.2487 19.7979 14.4345 19.6128L17.5593 16.4995Z" stroke="black" stroke-opacity="0.2" stroke-width="0.5"/>
</svg>
