<svg width="108" height="114" viewBox="0 0 108 114" fill="none" xmlns="http://www.w3.org/2000/svg">
<g opacity="0.5" clip-path="url(#clip0_115_5575)">
<path d="M49.9447 133.601C77.6527 117.603 87.1462 82.1733 71.1489 54.4653C55.1517 26.7572 19.7216 17.2638 -7.98643 33.261C-35.6945 49.2582 -45.1879 84.6884 -29.1907 112.396C-13.1935 140.104 22.2367 149.598 49.9447 133.601Z" fill="#161B26"/>
<path d="M49.9447 133.601C77.6527 117.603 87.1462 82.1733 71.1489 54.4653C55.1517 26.7572 19.7216 17.2638 -7.98643 33.261C-35.6945 49.2582 -45.1879 84.6884 -29.1907 112.396C-13.1935 140.104 22.2367 149.598 49.9447 133.601Z" fill="black" fill-opacity="0.2"/>
<path d="M49.9447 133.601C77.6527 117.603 87.1462 82.1733 71.1489 54.4653C55.1517 26.7572 19.7216 17.2638 -7.98643 33.261C-35.6945 49.2582 -45.1879 84.6884 -29.1907 112.396C-13.1935 140.104 22.2367 149.598 49.9447 133.601Z" fill="black" fill-opacity="0.2"/>
<path d="M49.9447 133.601C77.6527 117.603 87.1462 82.1733 71.1489 54.4653C55.1517 26.7572 19.7216 17.2638 -7.98643 33.261C-35.6945 49.2582 -45.1879 84.6884 -29.1907 112.396C-13.1935 140.104 22.2367 149.598 49.9447 133.601Z" fill="black" fill-opacity="0.2"/>
<path d="M38.0816 139.401C7.22179 148.83 -25.5683 131.417 -35.0068 100.541C-44.4364 69.6817 -27.0226 36.8916 3.85261 27.4531C34.7124 18.0235 67.5025 35.4373 76.941 66.3125C86.3706 97.1723 68.9568 129.962 38.0816 139.401ZM4.19994 28.5888C-26.0247 37.8367 -43.1125 69.9452 -33.8711 100.194C-24.6232 130.419 7.4853 147.507 37.7343 138.265C67.9589 129.017 85.0467 96.9088 75.8053 66.6598C66.5574 36.4352 34.4489 19.3474 4.19994 28.5888Z" fill="#161B26"/>
<path d="M38.0816 139.401C7.22179 148.83 -25.5683 131.417 -35.0068 100.541C-44.4364 69.6817 -27.0226 36.8916 3.85261 27.4531C34.7124 18.0235 67.5025 35.4373 76.941 66.3125C86.3706 97.1723 68.9568 129.962 38.0816 139.401ZM4.19994 28.5888C-26.0247 37.8367 -43.1125 69.9452 -33.8711 100.194C-24.6232 130.419 7.4853 147.507 37.7343 138.265C67.9589 129.017 85.0467 96.9088 75.8053 66.6598C66.5574 36.4352 34.4489 19.3474 4.19994 28.5888Z" fill="black" fill-opacity="0.2"/>
<path d="M38.0816 139.401C7.22179 148.83 -25.5683 131.417 -35.0068 100.541C-44.4364 69.6817 -27.0226 36.8916 3.85261 27.4531C34.7124 18.0235 67.5025 35.4373 76.941 66.3125C86.3706 97.1723 68.9568 129.962 38.0816 139.401ZM4.19994 28.5888C-26.0247 37.8367 -43.1125 69.9452 -33.8711 100.194C-24.6232 130.419 7.4853 147.507 37.7343 138.265C67.9589 129.017 85.0467 96.9088 75.8053 66.6598C66.5574 36.4352 34.4489 19.3474 4.19994 28.5888Z" fill="black" fill-opacity="0.2"/>
<path d="M38.0816 139.401C7.22179 148.83 -25.5683 131.417 -35.0068 100.541C-44.4364 69.6817 -27.0226 36.8916 3.85261 27.4531C34.7124 18.0235 67.5025 35.4373 76.941 66.3125C86.3706 97.1723 68.9568 129.962 38.0816 139.401ZM4.19994 28.5888C-26.0247 37.8367 -43.1125 69.9452 -33.8711 100.194C-24.6232 130.419 7.4853 147.507 37.7343 138.265C67.9589 129.017 85.0467 96.9088 75.8053 66.6598C66.5574 36.4352 34.4489 19.3474 4.19994 28.5888Z" fill="black" fill-opacity="0.2"/>
<path d="M56.1483 131.704C83.8563 115.707 93.3498 80.2768 77.3526 52.5688C61.3553 24.8608 25.9252 15.3673 -1.78282 31.3645C-29.4908 47.3618 -38.9843 82.7919 -22.9871 110.5C-6.98985 138.208 28.4403 147.701 56.1483 131.704Z" fill="#FAFAFA"/>
<path d="M44.2847 137.504C13.4249 146.934 -19.3652 129.52 -28.8037 98.645C-38.2332 67.7852 -20.8195 34.9951 10.0557 25.5566C40.9156 16.127 73.7056 33.5408 83.1441 64.416C92.5737 95.2758 75.16 128.066 44.2847 137.504ZM10.4031 26.6923C-19.8216 35.9402 -36.9093 68.0487 -27.668 98.2977C-18.4201 128.522 13.6884 145.61 43.9374 136.369C74.1621 127.121 91.2498 95.0123 82.0084 64.7633C72.7605 34.5387 40.6521 17.4509 10.4031 26.6923Z" fill="#161B26"/>
<path d="M44.2847 137.504C13.4249 146.934 -19.3652 129.52 -28.8037 98.645C-38.2332 67.7852 -20.8195 34.9951 10.0557 25.5566C40.9156 16.127 73.7056 33.5408 83.1441 64.416C92.5737 95.2758 75.16 128.066 44.2847 137.504ZM10.4031 26.6923C-19.8216 35.9402 -36.9093 68.0487 -27.668 98.2977C-18.4201 128.522 13.6884 145.61 43.9374 136.369C74.1621 127.121 91.2498 95.0123 82.0084 64.7633C72.7605 34.5387 40.6521 17.4509 10.4031 26.6923Z" fill="black" fill-opacity="0.2"/>
<path d="M44.2847 137.504C13.4249 146.934 -19.3652 129.52 -28.8037 98.645C-38.2332 67.7852 -20.8195 34.9951 10.0557 25.5566C40.9156 16.127 73.7056 33.5408 83.1441 64.416C92.5737 95.2758 75.16 128.066 44.2847 137.504ZM10.4031 26.6923C-19.8216 35.9402 -36.9093 68.0487 -27.668 98.2977C-18.4201 128.522 13.6884 145.61 43.9374 136.369C74.1621 127.121 91.2498 95.0123 82.0084 64.7633C72.7605 34.5387 40.6521 17.4509 10.4031 26.6923Z" fill="black" fill-opacity="0.2"/>
<path d="M44.2847 137.504C13.4249 146.934 -19.3652 129.52 -28.8037 98.645C-38.2332 67.7852 -20.8195 34.9951 10.0557 25.5566C40.9156 16.127 73.7056 33.5408 83.1441 64.416C92.5737 95.2758 75.16 128.066 44.2847 137.504ZM10.4031 26.6923C-19.8216 35.9402 -36.9093 68.0487 -27.668 98.2977C-18.4201 128.522 13.6884 145.61 43.9374 136.369C74.1621 127.121 91.2498 95.0123 82.0084 64.7633C72.7605 34.5387 40.6521 17.4509 10.4031 26.6923Z" fill="black" fill-opacity="0.2"/>
<path d="M52.5517 125.476C76.8197 111.464 85.1345 80.4331 71.1234 56.1652C57.1123 31.8973 26.081 23.5825 1.81305 37.5936C-22.4549 51.6047 -30.7697 82.6359 -16.7586 106.904C-2.74749 131.172 28.2838 139.487 52.5517 125.476Z" fill="#008080"/>
<path d="M42.1805 130.62C15.1114 138.888 -13.6502 123.61 -21.9191 96.5407C-30.1879 69.4716 -14.9092 40.71 12.1598 32.4412C39.2289 24.1723 67.9905 39.451 76.2594 66.52C84.5282 93.5891 69.2495 122.351 42.1805 130.62ZM12.5072 33.5769C-13.9267 41.664 -28.8705 69.7595 -20.7834 96.1934C-12.6962 122.627 15.3993 137.571 41.8332 129.484C68.2671 121.397 83.2108 93.3013 75.1237 66.8674C67.0365 40.4335 38.9411 25.4897 12.5072 33.5769Z" fill="#161B26"/>
<path d="M42.1805 130.62C15.1114 138.888 -13.6502 123.61 -21.9191 96.5407C-30.1879 69.4716 -14.9092 40.71 12.1598 32.4412C39.2289 24.1723 67.9905 39.451 76.2594 66.52C84.5282 93.5891 69.2495 122.351 42.1805 130.62ZM12.5072 33.5769C-13.9267 41.664 -28.8705 69.7595 -20.7834 96.1934C-12.6962 122.627 15.3993 137.571 41.8332 129.484C68.2671 121.397 83.2108 93.3013 75.1237 66.8674C67.0365 40.4335 38.9411 25.4897 12.5072 33.5769Z" fill="black" fill-opacity="0.2"/>
<path d="M42.1805 130.62C15.1114 138.888 -13.6502 123.61 -21.9191 96.5407C-30.1879 69.4716 -14.9092 40.71 12.1598 32.4412C39.2289 24.1723 67.9905 39.451 76.2594 66.52C84.5282 93.5891 69.2495 122.351 42.1805 130.62ZM12.5072 33.5769C-13.9267 41.664 -28.8705 69.7595 -20.7834 96.1934C-12.6962 122.627 15.3993 137.571 41.8332 129.484C68.2671 121.397 83.2108 93.3013 75.1237 66.8674C67.0365 40.4335 38.9411 25.4897 12.5072 33.5769Z" fill="black" fill-opacity="0.2"/>
<path d="M42.1805 130.62C15.1114 138.888 -13.6502 123.61 -21.9191 96.5407C-30.1879 69.4716 -14.9092 40.71 12.1598 32.4412C39.2289 24.1723 67.9905 39.451 76.2594 66.52C84.5282 93.5891 69.2495 122.351 42.1805 130.62ZM12.5072 33.5769C-13.9267 41.664 -28.8705 69.7595 -20.7834 96.1934C-12.6962 122.627 15.3993 137.571 41.8332 129.484C68.2671 121.397 83.2108 93.3013 75.1237 66.8674C67.0365 40.4335 38.9411 25.4897 12.5072 33.5769Z" fill="black" fill-opacity="0.2"/>
<path d="M48.9557 119.247C69.7835 107.222 76.9197 80.5895 64.8947 59.7616C52.8697 38.9338 26.2373 31.7976 5.40942 43.8226C-15.4184 55.8475 -22.5546 82.48 -10.5296 103.308C1.49536 124.136 28.1278 131.272 48.9557 119.247Z" fill="#FAFAFA"/>
<path d="M40.0767 123.737C16.8073 130.86 -7.92585 117.717 -15.034 94.4383C-22.1575 71.1689 -9.01392 46.4358 14.2644 39.3277C37.5338 32.2041 62.2669 45.3477 69.3751 68.626C76.4986 91.8954 63.355 116.629 40.0767 123.737ZM14.6028 40.4479C-8.04032 47.3744 -20.8336 71.4325 -13.9072 94.0756C-6.98076 116.719 17.0773 129.512 39.7205 122.586C62.3636 115.659 75.1569 91.6011 68.2305 68.9579C61.304 46.3148 37.246 33.5215 14.6028 40.4479Z" fill="#161B26"/>
<path d="M40.0767 123.737C16.8073 130.86 -7.92585 117.717 -15.034 94.4383C-22.1575 71.1689 -9.01392 46.4358 14.2644 39.3277C37.5338 32.2041 62.2669 45.3477 69.3751 68.626C76.4986 91.8954 63.355 116.629 40.0767 123.737ZM14.6028 40.4479C-8.04032 47.3744 -20.8336 71.4325 -13.9072 94.0756C-6.98076 116.719 17.0773 129.512 39.7205 122.586C62.3636 115.659 75.1569 91.6011 68.2305 68.9579C61.304 46.3148 37.246 33.5215 14.6028 40.4479Z" fill="black" fill-opacity="0.2"/>
<path d="M40.0767 123.737C16.8073 130.86 -7.92585 117.717 -15.034 94.4383C-22.1575 71.1689 -9.01392 46.4358 14.2644 39.3277C37.5338 32.2041 62.2669 45.3477 69.3751 68.626C76.4986 91.8954 63.355 116.629 40.0767 123.737ZM14.6028 40.4479C-8.04032 47.3744 -20.8336 71.4325 -13.9072 94.0756C-6.98076 116.719 17.0773 129.512 39.7205 122.586C62.3636 115.659 75.1569 91.6011 68.2305 68.9579C61.304 46.3148 37.246 33.5215 14.6028 40.4479Z" fill="black" fill-opacity="0.2"/>
<path d="M40.0767 123.737C16.8073 130.86 -7.92585 117.717 -15.034 94.4383C-22.1575 71.1689 -9.01392 46.4358 14.2644 39.3277C37.5338 32.2041 62.2669 45.3477 69.3751 68.626C76.4986 91.8954 63.355 116.629 40.0767 123.737ZM14.6028 40.4479C-8.04032 47.3744 -20.8336 71.4325 -13.9072 94.0756C-6.98076 116.719 17.0773 129.512 39.7205 122.586C62.3636 115.659 75.1569 91.6011 68.2305 68.9579C61.304 46.3148 37.246 33.5215 14.6028 40.4479Z" fill="black" fill-opacity="0.2"/>
<path d="M45.3596 113.018C62.7474 102.979 68.7049 80.7458 58.666 63.358C48.6272 45.9703 26.3936 40.0128 9.0058 50.0516C-8.38197 60.0904 -14.3395 82.3241 -4.30063 99.7118C5.7382 117.1 27.9718 123.057 45.3596 113.018Z" fill="#008080"/>
<path d="M37.9813 116.867C18.5027 122.83 -2.20198 111.822 -8.14936 92.334C-14.1122 72.8554 -3.10364 52.1507 16.3839 46.2033C35.8625 40.2405 56.5672 51.2491 62.5146 70.7366C68.4774 90.2152 57.4689 110.92 37.9813 116.867ZM16.7158 47.3479C-2.13658 53.1136 -12.7948 73.1432 -7.0291 91.9956C-1.26341 110.848 18.7662 121.506 37.6186 115.741C56.471 109.975 67.1292 89.9452 61.3635 71.0928C55.5978 52.2404 35.5682 41.5822 16.7158 47.3479Z" fill="#161B26"/>
<path d="M37.9813 116.867C18.5027 122.83 -2.20198 111.822 -8.14936 92.334C-14.1122 72.8554 -3.10364 52.1507 16.3839 46.2033C35.8625 40.2405 56.5672 51.2491 62.5146 70.7366C68.4774 90.2152 57.4689 110.92 37.9813 116.867ZM16.7158 47.3479C-2.13658 53.1136 -12.7948 73.1432 -7.0291 91.9956C-1.26341 110.848 18.7662 121.506 37.6186 115.741C56.471 109.975 67.1292 89.9452 61.3635 71.0928C55.5978 52.2404 35.5682 41.5822 16.7158 47.3479Z" fill="black" fill-opacity="0.2"/>
<path d="M37.9813 116.867C18.5027 122.83 -2.20198 111.822 -8.14936 92.334C-14.1122 72.8554 -3.10364 52.1507 16.3839 46.2033C35.8625 40.2405 56.5672 51.2491 62.5146 70.7366C68.4774 90.2152 57.4689 110.92 37.9813 116.867ZM16.7158 47.3479C-2.13658 53.1136 -12.7948 73.1432 -7.0291 91.9956C-1.26341 110.848 18.7662 121.506 37.6186 115.741C56.471 109.975 67.1292 89.9452 61.3635 71.0928C55.5978 52.2404 35.5682 41.5822 16.7158 47.3479Z" fill="black" fill-opacity="0.2"/>
<path d="M37.9813 116.867C18.5027 122.83 -2.20198 111.822 -8.14936 92.334C-14.1122 72.8554 -3.10364 52.1507 16.3839 46.2033C35.8625 40.2405 56.5672 51.2491 62.5146 70.7366C68.4774 90.2152 57.4689 110.92 37.9813 116.867ZM16.7158 47.3479C-2.13658 53.1136 -12.7948 73.1432 -7.0291 91.9956C-1.26341 110.848 18.7662 121.506 37.6186 115.741C56.471 109.975 67.1292 89.9452 61.3635 71.0928C55.5978 52.2404 35.5682 41.5822 16.7158 47.3479Z" fill="black" fill-opacity="0.2"/>
<path d="M41.7631 106.79C55.7107 98.7369 60.4896 80.9021 52.4369 66.9544C44.3842 53.0068 26.5494 48.2279 12.6017 56.2806C-1.346 64.3333 -6.12483 82.1682 1.92786 96.1158C9.98056 110.064 27.8154 114.842 41.7631 106.79Z" fill="#FAFAFA"/>
<path d="M35.8771 109.982C20.1892 114.785 3.52188 105.927 -1.26477 90.2297C-6.06683 74.5419 2.79119 57.8745 18.488 53.0879C34.1759 48.2858 50.8432 57.1438 55.6298 72.8406C60.4319 88.5285 51.5739 105.196 35.8771 109.982ZM18.8264 54.2081C3.76478 58.8131 -4.74294 74.8054 -0.137985 89.867C4.46697 104.929 20.4592 113.436 35.5209 108.831C50.5825 104.226 59.0902 88.2342 54.4763 73.1571C49.8714 58.0955 33.8791 49.5878 18.8021 54.2016L18.8264 54.2081Z" fill="#161B26"/>
<path d="M35.8771 109.982C20.1892 114.785 3.52188 105.927 -1.26477 90.2297C-6.06683 74.5419 2.79119 57.8745 18.488 53.0879C34.1759 48.2858 50.8432 57.1438 55.6298 72.8406C60.4319 88.5285 51.5739 105.196 35.8771 109.982ZM18.8264 54.2081C3.76478 58.8131 -4.74294 74.8054 -0.137985 89.867C4.46697 104.929 20.4592 113.436 35.5209 108.831C50.5825 104.226 59.0902 88.2342 54.4763 73.1571C49.8714 58.0955 33.8791 49.5878 18.8021 54.2016L18.8264 54.2081Z" fill="black" fill-opacity="0.2"/>
<path d="M35.8771 109.982C20.1892 114.785 3.52188 105.927 -1.26477 90.2297C-6.06683 74.5419 2.79119 57.8745 18.488 53.0879C34.1759 48.2858 50.8432 57.1438 55.6298 72.8406C60.4319 88.5285 51.5739 105.196 35.8771 109.982ZM18.8264 54.2081C3.76478 58.8131 -4.74294 74.8054 -0.137985 89.867C4.46697 104.929 20.4592 113.436 35.5209 108.831C50.5825 104.226 59.0902 88.2342 54.4763 73.1571C49.8714 58.0955 33.8791 49.5878 18.8021 54.2016L18.8264 54.2081Z" fill="black" fill-opacity="0.2"/>
<path d="M35.8771 109.982C20.1892 114.785 3.52188 105.927 -1.26477 90.2297C-6.06683 74.5419 2.79119 57.8745 18.488 53.0879C34.1759 48.2858 50.8432 57.1438 55.6298 72.8406C60.4319 88.5285 51.5739 105.196 35.8771 109.982ZM18.8264 54.2081C3.76478 58.8131 -4.74294 74.8054 -0.137985 89.867C4.46697 104.929 20.4592 113.436 35.5209 108.831C50.5825 104.226 59.0902 88.2342 54.4763 73.1571C49.8714 58.0955 33.8791 49.5878 18.8021 54.2016L18.8264 54.2081Z" fill="black" fill-opacity="0.2"/>
<path d="M38.167 100.561C48.6746 94.4945 52.2748 81.0584 46.2082 70.5509C40.1416 60.0433 26.7056 56.4431 16.198 62.5097C5.69045 68.5762 2.09028 82.0122 8.15684 92.5198C14.2234 103.027 27.6594 106.628 38.167 100.561Z" fill="#008080"/>
<path d="M33.7728 103.098C21.8756 106.739 9.23678 100.016 5.59545 88.1189C1.95412 76.2218 8.67707 63.5829 20.5742 59.9416C32.4713 56.3003 45.1102 63.0232 48.7515 74.9204C52.3928 86.8175 45.6699 99.4564 33.7728 103.098ZM20.9304 61.0927C9.65956 64.5369 3.29582 76.5162 6.74004 87.787C10.1843 99.0579 22.1635 105.422 33.4343 101.977C44.7052 98.5332 51.0689 86.554 47.6247 75.2831C44.1805 64.0123 32.2013 57.6485 20.9304 61.0927Z" fill="#161B26"/>
<path d="M33.7728 103.098C21.8756 106.739 9.23678 100.016 5.59545 88.1189C1.95412 76.2218 8.67707 63.5829 20.5742 59.9416C32.4713 56.3003 45.1102 63.0232 48.7515 74.9204C52.3928 86.8175 45.6699 99.4564 33.7728 103.098ZM20.9304 61.0927C9.65956 64.5369 3.29582 76.5162 6.74004 87.787C10.1843 99.0579 22.1635 105.422 33.4343 101.977C44.7052 98.5332 51.0689 86.554 47.6247 75.2831C44.1805 64.0123 32.2013 57.6485 20.9304 61.0927Z" fill="black" fill-opacity="0.2"/>
<path d="M33.7728 103.098C21.8756 106.739 9.23678 100.016 5.59545 88.1189C1.95412 76.2218 8.67707 63.5829 20.5742 59.9416C32.4713 56.3003 45.1102 63.0232 48.7515 74.9204C52.3928 86.8175 45.6699 99.4564 33.7728 103.098ZM20.9304 61.0927C9.65956 64.5369 3.29582 76.5162 6.74004 87.787C10.1843 99.0579 22.1635 105.422 33.4343 101.977C44.7052 98.5332 51.0689 86.554 47.6247 75.2831C44.1805 64.0123 32.2013 57.6485 20.9304 61.0927Z" fill="black" fill-opacity="0.2"/>
<path d="M33.7728 103.098C21.8756 106.739 9.23678 100.016 5.59545 88.1189C1.95412 76.2218 8.67707 63.5829 20.5742 59.9416C32.4713 56.3003 45.1102 63.0232 48.7515 74.9204C52.3928 86.8175 45.6699 99.4564 33.7728 103.098ZM20.9304 61.0927C9.65956 64.5369 3.29582 76.5162 6.74004 87.787C10.1843 99.0579 22.1635 105.422 33.4343 101.977C44.7052 98.5332 51.0689 86.554 47.6247 75.2831C44.1805 64.0123 32.2013 57.6485 20.9304 61.0927Z" fill="black" fill-opacity="0.2"/>
<path d="M34.5709 94.3324C41.6384 90.252 44.0599 81.2148 39.9795 74.1473C35.8991 67.0798 26.8619 64.6583 19.7944 68.7387C12.7269 72.8191 10.3054 81.8563 14.3858 88.9238C18.4662 95.9913 27.5034 98.4128 34.5709 94.3324Z" fill="#FAFAFA"/>
<path d="M31.6685 96.2129C23.5621 98.6934 14.9606 94.121 12.48 86.0146C9.99945 77.9083 14.5719 69.3068 22.6783 66.8262C30.7846 64.3456 39.3861 68.918 41.8667 77.0244C44.3473 85.1308 39.7749 93.7323 31.6685 96.2129ZM23.0256 67.9619C15.5455 70.2453 11.3322 78.1872 13.6157 85.6673C15.8992 93.1474 23.8411 97.3606 31.3212 95.0772C38.8013 92.7937 43.0145 84.8518 40.731 77.3717C38.4476 69.8916 30.5057 65.6784 23.0256 67.9619Z" fill="#161B26"/>
<path d="M31.6685 96.2129C23.5621 98.6934 14.9606 94.121 12.48 86.0146C9.99945 77.9083 14.5719 69.3068 22.6783 66.8262C30.7846 64.3456 39.3861 68.918 41.8667 77.0244C44.3473 85.1308 39.7749 93.7323 31.6685 96.2129ZM23.0256 67.9619C15.5455 70.2453 11.3322 78.1872 13.6157 85.6673C15.8992 93.1474 23.8411 97.3606 31.3212 95.0772C38.8013 92.7937 43.0145 84.8518 40.731 77.3717C38.4476 69.8916 30.5057 65.6784 23.0256 67.9619Z" fill="black" fill-opacity="0.2"/>
<path d="M31.6685 96.2129C23.5621 98.6934 14.9606 94.121 12.48 86.0146C9.99945 77.9083 14.5719 69.3068 22.6783 66.8262C30.7846 64.3456 39.3861 68.918 41.8667 77.0244C44.3473 85.1308 39.7749 93.7323 31.6685 96.2129ZM23.0256 67.9619C15.5455 70.2453 11.3322 78.1872 13.6157 85.6673C15.8992 93.1474 23.8411 97.3606 31.3212 95.0772C38.8013 92.7937 43.0145 84.8518 40.731 77.3717C38.4476 69.8916 30.5057 65.6784 23.0256 67.9619Z" fill="black" fill-opacity="0.2"/>
<path d="M31.6685 96.2129C23.5621 98.6934 14.9606 94.121 12.48 86.0146C9.99945 77.9083 14.5719 69.3068 22.6783 66.8262C30.7846 64.3456 39.3861 68.918 41.8667 77.0244C44.3473 85.1308 39.7749 93.7323 31.6685 96.2129ZM23.0256 67.9619C15.5455 70.2453 11.3322 78.1872 13.6157 85.6673C15.8992 93.1474 23.8411 97.3606 31.3212 95.0772C38.8013 92.7937 43.0145 84.8518 40.731 77.3717C38.4476 69.8916 30.5057 65.6784 23.0256 67.9619Z" fill="black" fill-opacity="0.2"/>
<path d="M30.9656 88.0877C34.5845 85.9983 35.8244 81.3708 33.735 77.7519C31.6457 74.133 27.0182 72.8931 23.3993 74.9825C19.7804 77.0719 18.5405 81.6993 20.6298 85.3182C22.7192 88.9371 27.3467 90.1771 30.9656 88.0877Z" fill="#008080"/>
<path d="M29.5579 89.3526C25.2423 90.6725 20.6693 88.2351 19.3583 83.9349C18.0474 79.6347 20.4759 75.0463 24.776 73.7353C29.0762 72.4244 33.6647 74.8529 34.9756 79.153C36.2866 83.4532 33.8581 88.0417 29.5579 89.3526ZM25.1234 74.871C21.434 75.9938 19.3559 79.9071 20.494 83.5876C21.6168 87.2769 25.5301 89.3551 29.2106 88.217C32.8999 87.0942 34.9781 83.1808 33.84 79.5004C32.7018 75.8199 28.8038 73.7329 25.1234 74.871Z" fill="#161B26"/>
<path d="M29.5579 89.3526C25.2423 90.6725 20.6693 88.2351 19.3583 83.9349C18.0474 79.6347 20.4759 75.0463 24.776 73.7353C29.0762 72.4244 33.6647 74.8529 34.9756 79.153C36.2866 83.4532 33.8581 88.0417 29.5579 89.3526ZM25.1234 74.871C21.434 75.9938 19.3559 79.9071 20.494 83.5876C21.6168 87.2769 25.5301 89.3551 29.2106 88.217C32.8999 87.0942 34.9781 83.1808 33.84 79.5004C32.7018 75.8199 28.8038 73.7329 25.1234 74.871Z" fill="black" fill-opacity="0.2"/>
<path d="M29.5579 89.3526C25.2423 90.6725 20.6693 88.2351 19.3583 83.9349C18.0474 79.6347 20.4759 75.0463 24.776 73.7353C29.0762 72.4244 33.6647 74.8529 34.9756 79.153C36.2866 83.4532 33.8581 88.0417 29.5579 89.3526ZM25.1234 74.871C21.434 75.9938 19.3559 79.9071 20.494 83.5876C21.6168 87.2769 25.5301 89.3551 29.2106 88.217C32.8999 87.0942 34.9781 83.1808 33.84 79.5004C32.7018 75.8199 28.8038 73.7329 25.1234 74.871Z" fill="black" fill-opacity="0.2"/>
<path d="M29.5579 89.3526C25.2423 90.6725 20.6693 88.2351 19.3583 83.9349C18.0474 79.6347 20.4759 75.0463 24.776 73.7353C29.0762 72.4244 33.6647 74.8529 34.9756 79.153C36.2866 83.4532 33.8581 88.0417 29.5579 89.3526ZM25.1234 74.871C21.434 75.9938 19.3559 79.9071 20.494 83.5876C21.6168 87.2769 25.5301 89.3551 29.2106 88.217C32.8999 87.0942 34.9781 83.1808 33.84 79.5004C32.7018 75.8199 28.8038 73.7329 25.1234 74.871Z" fill="black" fill-opacity="0.2"/>
<path d="M48.673 66.1031C55.7113 59.0278 60.2303 52.1117 58.7664 50.6555C57.3026 49.1993 50.4102 53.7545 43.3719 60.8297C36.3336 67.905 31.8146 74.8211 33.2785 76.2773C34.7423 77.7335 41.6347 73.1784 48.673 66.1031Z" fill="#FF952B"/>
<path d="M35.3325 76.9944C34.2277 77.324 33.3487 77.297 32.7898 76.7562C31.7806 75.756 32.363 73.6313 34.554 70.2695C36.4818 67.3063 39.445 63.7864 42.8745 60.3263C47.4559 55.7283 56.752 47.6887 59.2451 50.1553C60.2543 51.1555 59.6719 53.2802 57.4809 56.642C55.553 59.6052 52.5898 63.1251 49.1604 66.5851C45.5946 70.1651 39.1785 75.8224 35.3325 76.9944ZM43.8504 61.3047C40.4803 64.6894 37.5853 68.1493 35.7078 71.0217C33.5452 74.326 33.5818 75.6 33.7681 75.7803C34.4979 76.5101 40.2483 73.5807 48.1844 65.6068C51.5546 62.2221 54.4496 58.7622 56.327 55.8898C58.4896 52.5855 58.453 51.3115 58.2668 51.1312C57.537 50.4014 51.7866 53.3308 43.8504 61.3047Z" fill="#161B26"/>
<path d="M35.3325 76.9944C34.2277 77.324 33.3487 77.297 32.7898 76.7562C31.7806 75.756 32.363 73.6313 34.554 70.2695C36.4818 67.3063 39.445 63.7864 42.8745 60.3263C47.4559 55.7283 56.752 47.6887 59.2451 50.1553C60.2543 51.1555 59.6719 53.2802 57.4809 56.642C55.553 59.6052 52.5898 63.1251 49.1604 66.5851C45.5946 70.1651 39.1785 75.8224 35.3325 76.9944ZM43.8504 61.3047C40.4803 64.6894 37.5853 68.1493 35.7078 71.0217C33.5452 74.326 33.5818 75.6 33.7681 75.7803C34.4979 76.5101 40.2483 73.5807 48.1844 65.6068C51.5546 62.2221 54.4496 58.7622 56.327 55.8898C58.4896 52.5855 58.453 51.3115 58.2668 51.1312C57.537 50.4014 51.7866 53.3308 43.8504 61.3047Z" fill="black" fill-opacity="0.2"/>
<path d="M35.3325 76.9944C34.2277 77.324 33.3487 77.297 32.7898 76.7562C31.7806 75.756 32.363 73.6313 34.554 70.2695C36.4818 67.3063 39.445 63.7864 42.8745 60.3263C47.4559 55.7283 56.752 47.6887 59.2451 50.1553C60.2543 51.1555 59.6719 53.2802 57.4809 56.642C55.553 59.6052 52.5898 63.1251 49.1604 66.5851C45.5946 70.1651 39.1785 75.8224 35.3325 76.9944ZM43.8504 61.3047C40.4803 64.6894 37.5853 68.1493 35.7078 71.0217C33.5452 74.326 33.5818 75.6 33.7681 75.7803C34.4979 76.5101 40.2483 73.5807 48.1844 65.6068C51.5546 62.2221 54.4496 58.7622 56.327 55.8898C58.4896 52.5855 58.453 51.3115 58.2668 51.1312C57.537 50.4014 51.7866 53.3308 43.8504 61.3047Z" fill="black" fill-opacity="0.2"/>
<path d="M35.3325 76.9944C34.2277 77.324 33.3487 77.297 32.7898 76.7562C31.7806 75.756 32.363 73.6313 34.554 70.2695C36.4818 67.3063 39.445 63.7864 42.8745 60.3263C47.4559 55.7283 56.752 47.6887 59.2451 50.1553C60.2543 51.1555 59.6719 53.2802 57.4809 56.642C55.553 59.6052 52.5898 63.1251 49.1604 66.5851C45.5946 70.1651 39.1785 75.8224 35.3325 76.9944ZM43.8504 61.3047C40.4803 64.6894 37.5853 68.1493 35.7078 71.0217C33.5452 74.326 33.5818 75.6 33.7681 75.7803C34.4979 76.5101 40.2483 73.5807 48.1844 65.6068C51.5546 62.2221 54.4496 58.7622 56.327 55.8898C58.4896 52.5855 58.453 51.3115 58.2668 51.1312C57.537 50.4014 51.7866 53.3308 43.8504 61.3047Z" fill="black" fill-opacity="0.2"/>
<path d="M54.6624 59.3791L62.8726 58.8943C63.2943 58.877 63.6999 58.725 64.0343 58.4497L74.5445 50.3054C76.1597 49.0439 75.1987 46.4535 73.1543 46.5443L67.6041 46.8296C67.2862 46.8487 66.9487 46.9407 66.6712 47.101L59.0435 51.4432L54.6535 59.3637L54.6624 59.3791Z" fill="#FF8000"/>
<path d="M63.5528 59.4678C63.3411 59.5284 63.1205 59.5736 62.8974 59.579L54.6872 60.0638C54.4334 60.087 54.1943 59.9578 54.0697 59.7419C53.9451 59.5261 53.9373 59.2633 54.0511 59.0332L58.4411 51.1126C58.498 50.9975 58.5881 50.9044 58.6961 50.8421L66.3238 46.4999C66.6938 46.2863 67.1327 46.1562 67.5544 46.1389L73.1045 45.8536C74.3453 45.7951 75.4327 46.5035 75.853 47.6587C76.2822 48.8294 75.9255 50.0632 74.9507 50.8315L64.4405 58.9759C64.1743 59.1913 63.8724 59.345 63.5504 59.4281L63.5528 59.4678ZM55.8534 58.6299L62.8075 58.2125C63.0856 58.1958 63.359 58.0996 63.5879 57.9264L74.0981 49.782C74.6922 49.3156 74.74 48.6508 74.5525 48.1835C74.3803 47.7072 73.9211 47.2323 73.1572 47.2622L67.607 47.5475C67.384 47.5529 67.1723 47.6135 66.9718 47.7292L59.5137 51.9735L55.8291 58.6234L55.8534 58.6299Z" fill="#161B26"/>
<path d="M63.5528 59.4678C63.3411 59.5284 63.1205 59.5736 62.8974 59.579L54.6872 60.0638C54.4334 60.087 54.1943 59.9578 54.0697 59.7419C53.9451 59.5261 53.9373 59.2633 54.0511 59.0332L58.4411 51.1126C58.498 50.9975 58.5881 50.9044 58.6961 50.8421L66.3238 46.4999C66.6938 46.2863 67.1327 46.1562 67.5544 46.1389L73.1045 45.8536C74.3453 45.7951 75.4327 46.5035 75.853 47.6587C76.2822 48.8294 75.9255 50.0632 74.9507 50.8315L64.4405 58.9759C64.1743 59.1913 63.8724 59.345 63.5504 59.4281L63.5528 59.4678ZM55.8534 58.6299L62.8075 58.2125C63.0856 58.1958 63.359 58.0996 63.5879 57.9264L74.0981 49.782C74.6922 49.3156 74.74 48.6508 74.5525 48.1835C74.3803 47.7072 73.9211 47.2323 73.1572 47.2622L67.607 47.5475C67.384 47.5529 67.1723 47.6135 66.9718 47.7292L59.5137 51.9735L55.8291 58.6234L55.8534 58.6299Z" fill="black" fill-opacity="0.2"/>
<path d="M63.5528 59.4678C63.3411 59.5284 63.1205 59.5736 62.8974 59.579L54.6872 60.0638C54.4334 60.087 54.1943 59.9578 54.0697 59.7419C53.9451 59.5261 53.9373 59.2633 54.0511 59.0332L58.4411 51.1126C58.498 50.9975 58.5881 50.9044 58.6961 50.8421L66.3238 46.4999C66.6938 46.2863 67.1327 46.1562 67.5544 46.1389L73.1045 45.8536C74.3453 45.7951 75.4327 46.5035 75.853 47.6587C76.2822 48.8294 75.9255 50.0632 74.9507 50.8315L64.4405 58.9759C64.1743 59.1913 63.8724 59.345 63.5504 59.4281L63.5528 59.4678ZM55.8534 58.6299L62.8075 58.2125C63.0856 58.1958 63.359 58.0996 63.5879 57.9264L74.0981 49.782C74.6922 49.3156 74.74 48.6508 74.5525 48.1835C74.3803 47.7072 73.9211 47.2323 73.1572 47.2622L67.607 47.5475C67.384 47.5529 67.1723 47.6135 66.9718 47.7292L59.5137 51.9735L55.8291 58.6234L55.8534 58.6299Z" fill="black" fill-opacity="0.2"/>
<path d="M63.5528 59.4678C63.3411 59.5284 63.1205 59.5736 62.8974 59.579L54.6872 60.0638C54.4334 60.087 54.1943 59.9578 54.0697 59.7419C53.9451 59.5261 53.9373 59.2633 54.0511 59.0332L58.4411 51.1126C58.498 50.9975 58.5881 50.9044 58.6961 50.8421L66.3238 46.4999C66.6938 46.2863 67.1327 46.1562 67.5544 46.1389L73.1045 45.8536C74.3453 45.7951 75.4327 46.5035 75.853 47.6587C76.2822 48.8294 75.9255 50.0632 74.9507 50.8315L64.4405 58.9759C64.1743 59.1913 63.8724 59.345 63.5504 59.4281L63.5528 59.4678ZM55.8534 58.6299L62.8075 58.2125C63.0856 58.1958 63.359 58.0996 63.5879 57.9264L74.0981 49.782C74.6922 49.3156 74.74 48.6508 74.5525 48.1835C74.3803 47.7072 73.9211 47.2323 73.1572 47.2622L67.607 47.5475C67.384 47.5529 67.1723 47.6135 66.9718 47.7292L59.5137 51.9735L55.8291 58.6234L55.8534 58.6299Z" fill="black" fill-opacity="0.2"/>
<path d="M50.04 54.7898L50.4804 46.5799C50.5028 46.1558 50.6623 45.7554 50.9213 45.4208L59.0138 34.8692C60.2719 33.2384 62.873 34.183 62.7651 36.2393L62.516 41.7897C62.5042 42.1254 62.4106 42.4261 62.2529 42.7227L57.95 50.3668L50.0643 54.7963L50.04 54.7898Z" fill="#FF8000"/>
<path d="M50.2397 55.4573C50.0523 55.5243 49.8512 55.4965 49.6851 55.3869C49.4703 55.2641 49.3522 55.024 49.3688 54.7677L49.8092 46.5578C49.8309 45.9902 50.0384 45.4593 50.3787 45.0162L58.4712 34.4646C59.2176 33.4786 60.4725 33.1241 61.6381 33.5407C62.8037 33.9573 63.5151 35.0472 63.4699 36.2862L63.2208 41.8366C63.1984 42.2607 63.0811 42.6984 62.8641 43.0703L58.5612 50.7145C58.5043 50.8296 58.4053 50.9073 58.2973 50.9696L50.4117 55.3991C50.4117 55.3991 50.3191 55.4525 50.2883 55.4703L50.2397 55.4573ZM60.2459 34.7968C60.0033 34.8751 59.7566 35.0176 59.5503 35.3011L51.4578 45.8527C51.2799 46.0787 51.1839 46.3397 51.1698 46.6357L50.7901 53.5977L57.418 49.8738L61.6267 42.3869C61.7428 42.1965 61.8015 41.9776 61.805 41.77L62.0541 36.2196C62.0883 35.4599 61.5982 35.0027 61.1249 34.8238C60.8639 34.7278 60.5347 34.6917 60.2215 34.7903L60.2459 34.7968Z" fill="#161B26"/>
<path d="M50.2397 55.4573C50.0523 55.5243 49.8512 55.4965 49.6851 55.3869C49.4703 55.2641 49.3522 55.024 49.3688 54.7677L49.8092 46.5578C49.8309 45.9902 50.0384 45.4593 50.3787 45.0162L58.4712 34.4646C59.2176 33.4786 60.4725 33.1241 61.6381 33.5407C62.8037 33.9573 63.5151 35.0472 63.4699 36.2862L63.2208 41.8366C63.1984 42.2607 63.0811 42.6984 62.8641 43.0703L58.5612 50.7145C58.5043 50.8296 58.4053 50.9073 58.2973 50.9696L50.4117 55.3991C50.4117 55.3991 50.3191 55.4525 50.2883 55.4703L50.2397 55.4573ZM60.2459 34.7968C60.0033 34.8751 59.7566 35.0176 59.5503 35.3011L51.4578 45.8527C51.2799 46.0787 51.1839 46.3397 51.1698 46.6357L50.7901 53.5977L57.418 49.8738L61.6267 42.3869C61.7428 42.1965 61.8015 41.9776 61.805 41.77L62.0541 36.2196C62.0883 35.4599 61.5982 35.0027 61.1249 34.8238C60.8639 34.7278 60.5347 34.6917 60.2215 34.7903L60.2459 34.7968Z" fill="black" fill-opacity="0.2"/>
<path d="M50.2397 55.4573C50.0523 55.5243 49.8512 55.4965 49.6851 55.3869C49.4703 55.2641 49.3522 55.024 49.3688 54.7677L49.8092 46.5578C49.8309 45.9902 50.0384 45.4593 50.3787 45.0162L58.4712 34.4646C59.2176 33.4786 60.4725 33.1241 61.6381 33.5407C62.8037 33.9573 63.5151 35.0472 63.4699 36.2862L63.2208 41.8366C63.1984 42.2607 63.0811 42.6984 62.8641 43.0703L58.5612 50.7145C58.5043 50.8296 58.4053 50.9073 58.2973 50.9696L50.4117 55.3991C50.4117 55.3991 50.3191 55.4525 50.2883 55.4703L50.2397 55.4573ZM60.2459 34.7968C60.0033 34.8751 59.7566 35.0176 59.5503 35.3011L51.4578 45.8527C51.2799 46.0787 51.1839 46.3397 51.1698 46.6357L50.7901 53.5977L57.418 49.8738L61.6267 42.3869C61.7428 42.1965 61.8015 41.9776 61.805 41.77L62.0541 36.2196C62.0883 35.4599 61.5982 35.0027 61.1249 34.8238C60.8639 34.7278 60.5347 34.6917 60.2215 34.7903L60.2459 34.7968Z" fill="black" fill-opacity="0.2"/>
<path d="M50.2397 55.4573C50.0523 55.5243 49.8512 55.4965 49.6851 55.3869C49.4703 55.2641 49.3522 55.024 49.3688 54.7677L49.8092 46.5578C49.8309 45.9902 50.0384 45.4593 50.3787 45.0162L58.4712 34.4646C59.2176 33.4786 60.4725 33.1241 61.6381 33.5407C62.8037 33.9573 63.5151 35.0472 63.4699 36.2862L63.2208 41.8366C63.1984 42.2607 63.0811 42.6984 62.8641 43.0703L58.5612 50.7145C58.5043 50.8296 58.4053 50.9073 58.2973 50.9696L50.4117 55.3991C50.4117 55.3991 50.3191 55.4525 50.2883 55.4703L50.2397 55.4573ZM60.2459 34.7968C60.0033 34.8751 59.7566 35.0176 59.5503 35.3011L51.4578 45.8527C51.2799 46.0787 51.1839 46.3397 51.1698 46.6357L50.7901 53.5977L57.418 49.8738L61.6267 42.3869C61.7428 42.1965 61.8015 41.9776 61.805 41.77L62.0541 36.2196C62.0883 35.4599 61.5982 35.0027 61.1249 34.8238C60.8639 34.7278 60.5347 34.6917 60.2215 34.7903L60.2459 34.7968Z" fill="black" fill-opacity="0.2"/>
<path d="M52.189 54.8443C52.8507 54.1745 67.9188 40.1095 68.5886 40.7712C69.2584 41.4329 55.2529 56.5906 54.5978 57.2361C53.9426 57.8816 52.8673 57.9063 52.1975 57.2446C51.5276 56.5829 51.5273 55.5141 52.189 54.8443Z" fill="#FF8000"/>
<path d="M54.0968 58.3284C53.8697 58.3979 53.6402 58.4276 53.4017 58.4419C52.7636 58.4404 52.1662 58.1891 51.7094 57.7539C50.7844 56.8284 50.7733 55.3136 51.6988 54.3886C52.0593 54.016 56.0088 50.3173 59.9305 46.8197C68.196 39.4163 68.5021 39.7329 69.0788 40.3045C69.6466 40.8606 69.9528 41.1773 62.6187 49.4819C59.1295 53.4082 55.4595 57.3773 55.099 57.7498C54.8132 58.0382 54.474 58.234 54.1057 58.3439L54.0968 58.3284ZM52.6813 55.3426C52.29 55.733 52.2884 56.3712 52.6877 56.7779C52.8829 56.9736 53.1285 57.0785 53.4066 57.0618C53.6783 57.0694 53.9274 56.9667 54.123 56.7715C54.8903 55.9997 62.5641 47.6427 66.1374 43.2567C61.7834 46.8601 53.464 54.5618 52.6813 55.3426ZM27.5288 82.9182C27.3017 82.9877 27.0277 82.9403 26.8325 82.7447C26.553 82.4743 26.5665 82.0348 26.8304 81.7797L32.788 75.791C33.0584 75.5115 33.4979 75.525 33.753 75.7889C34.0324 76.0592 34.0189 76.4987 33.7551 76.7539L27.7975 82.7426C27.7228 82.8268 27.6148 82.8891 27.5045 82.9117L27.5288 82.9182Z" fill="#161B26"/>
<path d="M54.0968 58.3284C53.8697 58.3979 53.6402 58.4276 53.4017 58.4419C52.7636 58.4404 52.1662 58.1891 51.7094 57.7539C50.7844 56.8284 50.7733 55.3136 51.6988 54.3886C52.0593 54.016 56.0088 50.3173 59.9305 46.8197C68.196 39.4163 68.5021 39.7329 69.0788 40.3045C69.6466 40.8606 69.9528 41.1773 62.6187 49.4819C59.1295 53.4082 55.4595 57.3773 55.099 57.7498C54.8132 58.0382 54.474 58.234 54.1057 58.3439L54.0968 58.3284ZM52.6813 55.3426C52.29 55.733 52.2884 56.3712 52.6877 56.7779C52.8829 56.9736 53.1285 57.0785 53.4066 57.0618C53.6783 57.0694 53.9274 56.9667 54.123 56.7715C54.8903 55.9997 62.5641 47.6427 66.1374 43.2567C61.7834 46.8601 53.464 54.5618 52.6813 55.3426ZM27.5288 82.9182C27.3017 82.9877 27.0277 82.9403 26.8325 82.7447C26.553 82.4743 26.5665 82.0348 26.8304 81.7797L32.788 75.791C33.0584 75.5115 33.4979 75.525 33.753 75.7889C34.0324 76.0592 34.0189 76.4987 33.7551 76.7539L27.7975 82.7426C27.7228 82.8268 27.6148 82.8891 27.5045 82.9117L27.5288 82.9182Z" fill="black" fill-opacity="0.2"/>
<path d="M54.0968 58.3284C53.8697 58.3979 53.6402 58.4276 53.4017 58.4419C52.7636 58.4404 52.1662 58.1891 51.7094 57.7539C50.7844 56.8284 50.7733 55.3136 51.6988 54.3886C52.0593 54.016 56.0088 50.3173 59.9305 46.8197C68.196 39.4163 68.5021 39.7329 69.0788 40.3045C69.6466 40.8606 69.9528 41.1773 62.6187 49.4819C59.1295 53.4082 55.4595 57.3773 55.099 57.7498C54.8132 58.0382 54.474 58.234 54.1057 58.3439L54.0968 58.3284ZM52.6813 55.3426C52.29 55.733 52.2884 56.3712 52.6877 56.7779C52.8829 56.9736 53.1285 57.0785 53.4066 57.0618C53.6783 57.0694 53.9274 56.9667 54.123 56.7715C54.8903 55.9997 62.5641 47.6427 66.1374 43.2567C61.7834 46.8601 53.464 54.5618 52.6813 55.3426ZM27.5288 82.9182C27.3017 82.9877 27.0277 82.9403 26.8325 82.7447C26.553 82.4743 26.5665 82.0348 26.8304 81.7797L32.788 75.791C33.0584 75.5115 33.4979 75.525 33.753 75.7889C34.0324 76.0592 34.0189 76.4987 33.7551 76.7539L27.7975 82.7426C27.7228 82.8268 27.6148 82.8891 27.5045 82.9117L27.5288 82.9182Z" fill="black" fill-opacity="0.2"/>
<path d="M54.0968 58.3284C53.8697 58.3979 53.6402 58.4276 53.4017 58.4419C52.7636 58.4404 52.1662 58.1891 51.7094 57.7539C50.7844 56.8284 50.7733 55.3136 51.6988 54.3886C52.0593 54.016 56.0088 50.3173 59.9305 46.8197C68.196 39.4163 68.5021 39.7329 69.0788 40.3045C69.6466 40.8606 69.9528 41.1773 62.6187 49.4819C59.1295 53.4082 55.4595 57.3773 55.099 57.7498C54.8132 58.0382 54.474 58.234 54.1057 58.3439L54.0968 58.3284ZM52.6813 55.3426C52.29 55.733 52.2884 56.3712 52.6877 56.7779C52.8829 56.9736 53.1285 57.0785 53.4066 57.0618C53.6783 57.0694 53.9274 56.9667 54.123 56.7715C54.8903 55.9997 62.5641 47.6427 66.1374 43.2567C61.7834 46.8601 53.464 54.5618 52.6813 55.3426ZM27.5288 82.9182C27.3017 82.9877 27.0277 82.9403 26.8325 82.7447C26.553 82.4743 26.5665 82.0348 26.8304 81.7797L32.788 75.791C33.0584 75.5115 33.4979 75.525 33.753 75.7889C34.0324 76.0592 34.0189 76.4987 33.7551 76.7539L27.7975 82.7426C27.7228 82.8268 27.6148 82.8891 27.5045 82.9117L27.5288 82.9182Z" fill="black" fill-opacity="0.2"/>
</g>
<defs>
<clipPath id="clip0_115_5575">
<rect width="124" height="118.54" fill="white" transform="translate(-59 62) rotate(-30)"/>
</clipPath>
</defs>
</svg>
