<svg width="124" height="64" viewBox="0 0 124 64" fill="none" xmlns="http://www.w3.org/2000/svg">
<g opacity="0.2" clip-path="url(#clip0_137_19392)">
<path d="M85.1632 62.1625L7.19043 46.3721L4.13159 61.4766L82.1044 77.267L85.1632 62.1625Z" fill="#008080"/>
<path d="M82.04 77.5582L4.07313 61.769C3.90939 61.7358 3.8068 61.5811 3.83995 61.4174L6.8988 46.3129C6.93195 46.1492 7.08666 46.0466 7.25039 46.0797L85.2232 61.8701C85.3869 61.9033 85.4895 62.058 85.4563 62.2217L82.3975 77.3262C82.3643 77.49 82.2096 77.5926 82.0459 77.5594L82.04 77.5582ZM4.47809 61.2423L81.8661 76.9142L84.8065 62.3945L7.42435 46.7237L4.48393 61.2434L4.47809 61.2423Z" fill="black"/>
<path d="M64.8137 59.8433L6.83998 48.103C6.67624 48.0698 6.57365 47.9151 6.6068 47.7514C6.63996 47.5876 6.79466 47.485 6.9584 47.5182L64.9321 59.2586C65.0959 59.2917 65.1985 59.4464 65.1653 59.6102C65.1322 59.7739 64.9775 59.8765 64.8137 59.8433ZM68.2722 69.2184L10.2984 57.478C10.1347 57.4448 10.0321 57.2901 10.0652 57.1264C10.0984 56.9627 10.2531 56.8601 10.4168 56.8932L68.3906 68.6336C68.5543 68.6668 68.6569 68.8215 68.6237 68.9852C68.5906 69.1489 68.4359 69.2515 68.2722 69.2184ZM83.3621 71.0263L25.3884 59.286C25.2247 59.2528 25.1221 59.0981 25.1552 58.9344C25.1884 58.7706 25.3431 58.668 25.5068 58.7012L83.4806 70.4416C83.6443 70.4747 83.7469 70.6294 83.7137 70.7932C83.6806 70.9569 83.5259 71.0595 83.3621 71.0263ZM66.517 65.8314L8.54324 54.091C8.3795 54.0578 8.27691 53.9031 8.31006 53.7394C8.34322 53.5757 8.49792 53.4731 8.66166 53.5062L66.6354 65.2466C66.7991 65.2797 66.9017 65.4344 66.8686 65.5982C66.8354 65.7619 66.6807 65.8645 66.517 65.8314ZM82.219 75.3483L20.9238 62.9353C20.7601 62.9021 20.6575 62.7474 20.6907 62.5837C20.7238 62.4199 20.8785 62.3173 21.0422 62.3505L82.3375 74.7635C82.5012 74.7967 82.6038 74.9514 82.5706 75.1151C82.5375 75.2788 82.3828 75.3814 82.219 75.3483ZM75.1154 72.9114L13.8201 60.4984C13.6564 60.4652 13.5538 60.3105 13.587 60.1468C13.6201 59.983 13.7748 59.8804 13.9386 59.9136L75.2338 72.3266C75.3975 72.3598 75.5001 72.5145 75.467 72.6782C75.4338 72.8419 75.2791 72.9445 75.1154 72.9114ZM84.2977 66.4067L6.33076 50.6175C6.16703 50.5843 6.06443 50.4296 6.09759 50.2659C6.13075 50.1021 6.28545 49.9995 6.44919 50.0327L84.422 65.8231C84.5857 65.8562 84.6883 66.0109 84.6551 66.1747C84.622 66.3384 84.4673 66.441 84.3035 66.4079L84.2977 66.4067Z" fill="black"/>
<path d="M54.3812 55.9286L37.9668 52.6045L34.908 67.709L51.3223 71.0331L54.3812 55.9286Z" fill="#FF8000"/>
<path d="M51.2629 71.3255L34.8485 68.0014C34.6848 67.9683 34.5822 67.8136 34.6153 67.6498L37.6742 52.5453C37.7073 52.3816 37.862 52.279 38.0258 52.3121L54.4402 55.6362C54.6039 55.6694 54.7065 55.8241 54.6734 55.9878L51.6145 71.0924C51.5814 71.2561 51.4266 71.3587 51.2629 71.3255ZM35.2593 67.4759L51.089 70.6816L54.0294 56.1618L38.1997 52.9561L35.2593 67.4759ZM135.007 88.2848L57.0346 72.4944C56.8708 72.4612 56.7682 72.3065 56.8014 72.1428L59.8602 57.0382C59.8934 56.8745 60.0481 56.7719 60.2118 56.8051L138.185 72.5955C138.348 72.6286 138.451 72.7833 138.418 72.9471L135.359 88.0516C135.326 88.2153 135.171 88.3179 135.007 88.2848ZM57.4454 71.9688L134.833 87.6408L137.774 73.121L60.3858 57.4491L57.4454 71.9688Z" fill="black"/>
<path d="M117.777 70.5689L59.8029 58.8285C59.6391 58.7954 59.5365 58.6407 59.5697 58.477C59.6029 58.3132 59.7576 58.2106 59.9213 58.2438L117.895 69.9842C118.059 70.0173 118.161 70.172 118.128 70.3357C118.095 70.4995 117.94 70.6021 117.777 70.5689ZM117.025 74.2822L59.0509 62.5418C58.8872 62.5087 58.7846 62.354 58.8177 62.1902C58.8509 62.0265 59.0056 61.9239 59.1693 61.9571L117.143 73.6974C117.307 73.7306 117.409 73.8853 117.376 74.049C117.343 74.2127 117.188 74.3153 117.025 74.2822ZM115.834 80.1591L57.8607 68.4187C57.697 68.3856 57.5944 68.2309 57.6276 68.0671C57.6607 67.9034 57.8154 67.8008 57.9792 67.8339L115.953 79.5743C116.117 79.6075 116.219 79.7622 116.186 79.9259C116.153 80.0896 115.998 80.1922 115.834 80.1591ZM121.235 79.944L63.2613 68.2036C63.0976 68.1704 62.995 68.0157 63.0281 67.852C63.0613 67.6883 63.216 67.5857 63.3797 67.6188L121.353 79.3592C121.517 79.3923 121.62 79.547 121.587 79.7108C121.553 79.8745 121.399 79.9771 121.235 79.944ZM136.331 81.7531L78.3571 70.0127C78.1934 69.9796 78.0908 69.8249 78.124 69.6611C78.1571 69.4974 78.3118 69.3948 78.4755 69.428L136.449 81.1683C136.613 81.2015 136.716 81.3562 136.682 81.5199C136.649 81.6837 136.495 81.7863 136.331 81.7531ZM119.48 76.5569L61.5061 64.8166C61.3424 64.7834 61.2398 64.6287 61.273 64.465C61.3061 64.3012 61.4608 64.1986 61.6245 64.2318L119.598 75.9722C119.762 76.0053 119.865 76.16 119.831 76.3238C119.798 76.4875 119.644 76.5901 119.48 76.5569ZM137.509 75.9347L76.214 63.5217C76.0502 63.4885 75.9476 63.3338 75.9808 63.1701C76.0139 63.0063 76.1686 62.9037 76.3324 62.9369L137.628 75.3499C137.791 75.3831 137.894 75.5378 137.861 75.7015C137.828 75.8652 137.673 75.9678 137.509 75.9347ZM135.182 86.0739L73.8867 73.6609C73.723 73.6277 73.6204 73.473 73.6535 73.3093C73.6867 73.1455 73.8414 73.0429 74.0051 73.0761L135.3 85.4891C135.464 85.5223 135.567 85.677 135.534 85.8407C135.5 86.0044 135.346 86.107 135.182 86.0739ZM128.084 83.6381L66.7889 71.2251C66.6251 71.192 66.5226 71.0373 66.5557 70.8735C66.5889 70.7098 66.7436 70.6072 66.9073 70.6404L128.203 83.0534C128.366 83.0865 128.469 83.2412 128.436 83.405C128.403 83.5687 128.248 83.6713 128.084 83.6381ZM137.266 77.1334L59.2937 61.343C59.1299 61.3099 59.0273 61.1552 59.0605 60.9914C59.0936 60.8277 59.2483 60.7251 59.4121 60.7583L137.385 76.5487C137.549 76.5818 137.651 76.7365 137.618 76.9003C137.585 77.064 137.43 77.1666 137.266 77.1334ZM135.251 87.0862L57.2781 71.2958C57.1144 71.2626 57.0118 71.1079 57.0449 70.9442C57.0781 70.7804 57.2328 70.6778 57.3965 70.711L135.369 86.5014C135.533 86.5346 135.636 86.6893 135.602 86.853C135.569 87.0167 135.415 87.1193 135.251 87.0862Z" fill="black"/>
<path d="M107.35 66.6552L90.9355 63.3311L87.8767 78.4356L104.291 81.7597L107.35 66.6552Z" fill="#FF8000"/>
<path d="M104.232 82.0521L87.8173 78.728C87.6535 78.6948 87.5509 78.5401 87.5841 78.3764L90.6429 63.2719C90.6761 63.1081 90.8308 63.0055 90.9945 63.0387L107.409 66.3628C107.573 66.396 107.675 66.5507 107.642 66.7144L104.583 81.8189C104.55 81.9827 104.395 82.0852 104.232 82.0521ZM88.2281 78.2024L104.058 81.4081L106.998 66.8884L91.1685 63.6827L88.2281 78.2024Z" fill="black"/>
<path d="M124.12 70.3563L46.1473 54.5659C45.9836 54.5327 45.881 54.378 45.9142 54.2143L48.973 39.1098C49.0062 38.946 49.1609 38.8434 49.3246 38.8766L127.297 54.667C127.461 54.7002 127.564 54.8549 127.531 55.0186L124.472 70.1231C124.439 70.2868 124.284 70.3894 124.12 70.3563ZM46.5581 54.0403L123.946 69.7123L126.887 55.1926L49.4986 39.5206L46.5581 54.0403Z" fill="black"/>
<path d="M106.889 52.6402L48.9152 40.8998C48.7514 40.8667 48.6488 40.712 48.682 40.5482C48.7152 40.3845 48.8699 40.2819 49.0336 40.3151L107.007 52.0554C107.171 52.0886 107.274 52.2433 107.241 52.407C107.207 52.5708 107.053 52.6734 106.889 52.6402ZM106.137 56.3535L48.1632 44.6131C47.9995 44.5799 47.8969 44.4252 47.93 44.2615C47.9632 44.0978 48.1179 43.9952 48.2816 44.0283L106.255 55.7687C106.419 55.8019 106.522 55.9566 106.489 56.1203C106.455 56.284 106.301 56.3866 106.137 56.3535ZM104.947 62.2304L46.973 50.49C46.8093 50.4569 46.7067 50.3022 46.7399 50.1384C46.773 49.9747 46.9277 49.8721 47.0915 49.9052L105.065 61.6456C105.229 61.6788 105.332 61.8335 105.298 61.9972C105.265 62.1609 105.111 62.2635 104.947 62.2304ZM110.349 62.0094L52.3748 50.269C52.2111 50.2359 52.1085 50.0812 52.1416 49.9174C52.1748 49.7537 52.3295 49.6511 52.4932 49.6843L110.467 61.4246C110.631 61.4578 110.733 61.6125 110.7 61.7762C110.667 61.94 110.512 62.0426 110.349 62.0094ZM125.444 63.8185L67.4706 52.0782C67.3069 52.045 67.2043 51.8903 67.2374 51.7266C67.2706 51.5628 67.4253 51.4603 67.589 51.4934L125.563 63.2338C125.727 63.2669 125.829 63.4216 125.796 63.5854C125.763 63.7491 125.608 63.8517 125.444 63.8185ZM108.592 58.6282L50.6184 46.8879C50.4547 46.8547 50.3521 46.7 50.3853 46.5363C50.4184 46.3725 50.5731 46.2699 50.7369 46.3031L108.711 58.0435C108.874 58.0766 108.977 58.2313 108.944 58.3951C108.911 58.5588 108.756 58.6614 108.592 58.6282ZM126.621 58.006L65.3263 45.593C65.1625 45.5598 65.0599 45.4051 65.0931 45.2414C65.1263 45.0776 65.281 44.975 65.4447 45.0082L126.74 57.4212C126.904 57.4544 127.006 57.6091 126.973 57.7728C126.94 57.9365 126.785 58.0391 126.621 58.006ZM124.294 68.1452L62.999 55.7322C62.8353 55.699 62.7327 55.5443 62.7658 55.3806C62.799 55.2168 62.9537 55.1142 63.1174 55.1474L124.413 67.5604C124.576 67.5936 124.679 67.7483 124.646 67.912C124.613 68.0757 124.458 68.1783 124.294 68.1452ZM117.196 65.7094L55.9012 53.2964C55.7375 53.2632 55.6349 53.1085 55.668 52.9448C55.7012 52.7811 55.8559 52.6785 56.0196 52.7116L117.315 65.1246C117.479 65.1578 117.581 65.3125 117.548 65.4762C117.515 65.64 117.36 65.7426 117.196 65.7094ZM126.379 59.2047L48.406 43.4143C48.2422 43.3812 48.1396 43.2265 48.1728 43.0627C48.2059 42.899 48.3606 42.7964 48.5244 42.8296L126.497 58.62C126.661 58.6531 126.763 58.8078 126.73 58.9716C126.697 59.1353 126.542 59.2379 126.379 59.2047ZM124.363 69.1575L46.3904 53.3671C46.2267 53.3339 46.1241 53.1792 46.1572 53.0155C46.1904 52.8517 46.3451 52.7491 46.5088 52.7823L124.482 68.5727C124.645 68.6058 124.748 68.7606 124.715 68.9243C124.682 69.088 124.527 69.1906 124.363 69.1575Z" fill="black"/>
<path d="M96.4564 48.7255L80.042 45.4014L76.9831 60.5059L93.3975 63.83L96.4564 48.7255Z" fill="#FF8000"/>
<path d="M93.344 64.1234L76.9296 60.7993C76.7658 60.7661 76.6632 60.6114 76.6964 60.4477L79.7552 45.3432C79.7884 45.1794 79.9431 45.0768 80.1068 45.11L96.5212 48.4341C96.685 48.4673 96.7876 48.622 96.7544 48.7857L93.6956 63.8902C93.6624 64.0539 93.5077 64.1565 93.344 64.1234ZM77.3404 60.2737L93.17 63.4794L96.1104 48.9597L80.2808 45.754L77.3404 60.2737Z" fill="black"/>
<path d="M160.582 46.0482L82.6094 30.2578L79.5505 45.3623L157.523 61.1527L160.582 46.0482Z" fill="#008080"/>
<path d="M157.464 61.4452L79.4911 45.6547C79.3274 45.6216 79.2248 45.4669 79.2579 45.3032L82.3168 30.1986C82.3499 30.0349 82.5046 29.9323 82.6684 29.9655L160.641 45.7559C160.805 45.789 160.907 45.9437 160.874 46.1075L157.815 61.212C157.782 61.3757 157.628 61.4783 157.464 61.4452ZM79.9019 45.1292L157.29 60.8012L160.23 46.2814L82.8423 30.6094L79.9019 45.1292Z" fill="black"/>
<path d="M140.233 43.73L82.2589 31.9897C82.0952 31.9565 81.9926 31.8018 82.0257 31.6381C82.0589 31.4744 82.2136 31.3718 82.3773 31.4049L140.351 43.1453C140.515 43.1784 140.617 43.3331 140.584 43.4969C140.551 43.6606 140.396 43.7632 140.233 43.73ZM139.481 47.4433L81.5069 35.703C81.3432 35.6698 81.2406 35.5151 81.2738 35.3514C81.3069 35.1876 81.4616 35.085 81.6254 35.1182L139.599 46.8586C139.763 46.8917 139.865 47.0464 139.832 47.2101C139.799 47.3739 139.644 47.4765 139.481 47.4433ZM138.291 53.3202L80.3168 41.5798C80.1531 41.5467 80.0505 41.392 80.0836 41.2283C80.1168 41.0645 80.2715 40.9619 80.4352 40.9951L138.409 52.7354C138.573 52.7686 138.675 52.9233 138.642 53.087C138.609 53.2508 138.454 53.3534 138.291 53.3202ZM143.692 53.0992L85.7185 41.3589C85.5548 41.3257 85.4522 41.171 85.4854 41.0073C85.5185 40.8435 85.6732 40.7409 85.837 40.7741L143.811 52.5145C143.974 52.5476 144.077 52.7023 144.044 52.8661C144.011 53.0298 143.856 53.1324 143.692 53.0992ZM158.788 54.9084L100.814 43.168C100.651 43.1349 100.548 42.9802 100.581 42.8164C100.614 42.6527 100.769 42.5501 100.933 42.5833L158.907 54.3236C159.07 54.3568 159.173 54.5115 159.14 54.6752C159.107 54.839 158.952 54.9416 158.788 54.9084ZM141.936 49.7181L83.9622 37.9777C83.7985 37.9446 83.6959 37.7899 83.729 37.6261C83.7622 37.4624 83.9169 37.3598 84.0806 37.3929L142.054 49.1333C142.218 49.1665 142.321 49.3212 142.288 49.4849C142.254 49.6486 142.1 49.7512 141.936 49.7181ZM159.965 49.0958L98.67 36.6828C98.5063 36.6496 98.4037 36.4949 98.4368 36.3312C98.47 36.1675 98.6247 36.0649 98.7884 36.098L160.084 48.511C160.247 48.5442 160.35 48.6989 160.317 48.8626C160.284 49.0264 160.129 49.129 159.965 49.0958ZM157.644 59.2362L96.3486 46.8232C96.1849 46.79 96.0823 46.6353 96.1154 46.4716C96.1486 46.3078 96.3033 46.2052 96.467 46.2384L157.762 58.6514C157.926 58.6846 158.029 58.8393 157.995 59.003C157.962 59.1667 157.808 59.2693 157.644 59.2362ZM150.54 56.7993L89.2449 44.3862C89.0812 44.3531 88.9786 44.1984 89.0118 44.0347C89.0449 43.8709 89.1996 43.7683 89.3634 43.8015L150.659 56.2145C150.822 56.2476 150.925 56.4023 150.892 56.5661C150.859 56.7298 150.704 56.8324 150.54 56.7993Z" fill="black"/>
<path d="M129.806 39.8163L113.392 36.4922L110.333 51.5967L126.747 54.9208L129.806 39.8163Z" fill="#FF8000"/>
<path d="M126.688 55.2132L110.273 51.8891C110.11 51.856 110.007 51.7013 110.04 51.5375L113.099 36.433C113.132 36.2693 113.287 36.1667 113.451 36.1998L129.865 39.5239C130.029 39.5571 130.131 39.7118 130.098 39.8755L127.039 54.9801C127.006 55.1438 126.851 55.2464 126.688 55.2132ZM110.684 51.3636L126.514 54.5693L129.454 40.0495L113.625 36.8438L110.684 51.3636Z" fill="black"/>
<path d="M146.497 38.1957L71.8965 40.4121L72.9353 75.3775L147.536 73.1611L146.497 38.1957Z" fill="#008080"/>
<path d="M72.8849 75.6618C72.8322 75.6511 72.7832 75.6229 72.7423 75.5842C72.6863 75.5302 72.6525 75.4565 72.6504 75.3769L71.6103 40.4128C71.6072 40.2478 71.7327 40.1089 71.8977 40.1058L146.5 37.8825C146.579 37.8803 146.652 37.9132 146.715 37.9625C146.778 38.0118 146.804 38.0903 146.807 38.1699L147.847 73.1339C147.85 73.2989 147.724 73.4379 147.559 73.441L72.9574 75.6643C72.9574 75.6643 72.9094 75.6607 72.8919 75.6571L72.8849 75.6618ZM72.211 40.6927L73.2373 75.0635L147.239 72.8587L146.213 38.4879L72.211 40.6927Z" fill="black"/>
<path d="M141.567 61.9094L141.204 49.7523C137.469 49.8603 134.355 46.9287 134.242 43.1923L84.4442 44.6739C84.5522 48.4092 81.6206 51.5228 77.8841 51.6366L78.2468 63.7937C81.982 63.6857 85.0956 66.6173 85.2094 70.3537L135.007 68.8721C134.899 65.1368 137.83 62.0232 141.567 61.9094Z" fill="#008080"/>
<path d="M85.1505 70.6463C85.0979 70.6357 85.0488 70.6074 85.008 70.5687C84.9519 70.5148 84.9182 70.441 84.916 70.3614C84.81 66.797 81.8248 63.9827 78.2592 64.0946C78.0942 64.0978 77.9553 63.9722 77.9522 63.8072L77.5896 51.6501C77.5864 51.4851 77.712 51.3462 77.877 51.3431C81.4414 51.237 84.2498 48.2507 84.1437 44.6863C84.1416 44.6067 84.1745 44.5342 84.2238 44.4712C84.2778 44.4151 84.3516 44.3814 84.4311 44.3792L134.229 42.8976C134.308 42.8954 134.381 42.9284 134.444 42.9777C134.5 43.0316 134.533 43.1054 134.536 43.185C134.588 44.9122 135.31 46.5135 136.562 47.6983C137.819 48.8843 139.458 49.5084 141.185 49.4564C141.35 49.4533 141.489 49.5789 141.492 49.7438L141.855 61.9009C141.858 62.0659 141.733 62.2049 141.568 62.208C138.003 62.314 135.195 65.3004 135.301 68.8648C135.304 69.0298 135.178 69.1687 135.013 69.1718L85.216 70.6535C85.216 70.6535 85.1681 70.6499 85.1505 70.6463ZM79.8505 63.6316C82.8972 64.2486 85.2639 66.8402 85.4913 70.0457L134.707 68.5802C134.749 64.9179 137.609 61.8872 141.259 61.628L140.912 50.0525C139.139 50.0342 137.456 49.3526 136.157 48.1338C134.859 46.909 134.082 45.2725 133.954 43.4995L84.7386 44.965C84.697 48.6274 81.837 51.658 78.1868 51.9172L78.5333 63.4927C78.9826 63.4985 79.4236 63.5452 79.8447 63.6304L79.8505 63.6316Z" fill="black"/>
<path d="M109.994 66.2478C114.213 66.1225 117.508 61.7835 117.352 56.5564C117.197 51.3293 113.651 47.1936 109.432 47.3189C105.212 47.4443 101.918 51.7833 102.073 57.0103C102.228 62.2374 105.775 66.3732 109.994 66.2478Z" fill="#008080"/>
<path d="M108.525 66.4129C104.829 65.6645 101.928 61.7716 101.784 57.0124C101.626 51.6296 105.055 47.1435 109.434 47.0136C113.813 46.8838 117.501 51.1554 117.665 56.5394C117.742 59.1361 116.998 61.6032 115.564 63.4859C114.119 65.3909 112.147 66.4708 110.015 66.5382C109.507 66.551 109.01 66.5112 108.525 66.4129ZM110.811 47.7307C110.366 47.6407 109.912 47.5975 109.452 47.6139C105.403 47.7375 102.233 51.9411 102.383 56.9998C102.535 62.0527 105.947 66.0674 110.001 65.9449C111.948 65.8888 113.759 64.8857 115.095 63.1291C116.441 61.3503 117.144 59.0211 117.07 56.559C116.936 52.0819 114.243 48.4258 110.816 47.7319L110.811 47.7307Z" fill="black"/>
<path d="M132.217 24.5746L54.2441 8.78418L51.1853 23.8887L129.158 39.6791L132.217 24.5746Z" fill="#008080"/>
<path d="M129.092 39.9762L51.1249 24.187C50.9612 24.1538 50.8586 23.9991 50.8917 23.8354L53.9506 8.73086C53.9837 8.56713 54.1384 8.46453 54.3021 8.49769L132.275 24.2881C132.439 24.3212 132.541 24.476 132.508 24.6397L129.449 39.7442C129.416 39.9079 129.261 40.0105 129.098 39.9774L129.092 39.9762ZM51.5298 23.6602L128.918 39.3322L131.858 24.8125L54.4761 9.14167L51.5357 23.6614L51.5298 23.6602Z" fill="black"/>
<path d="M111.866 22.2554L53.8927 10.5151C53.729 10.4819 53.6264 10.3272 53.6595 10.1635C53.6927 9.99974 53.8474 9.89715 54.0111 9.9303L111.985 21.6707C112.149 21.7038 112.251 21.8585 112.218 22.0223C112.185 22.186 112.03 22.2886 111.866 22.2554ZM111.113 25.9746L53.1395 14.2342C52.9758 14.201 52.8732 14.0463 52.9064 13.8826C52.9395 13.7189 53.0942 13.6163 53.258 13.6494L111.232 25.3898C111.395 25.4229 111.498 25.5776 111.465 25.7414C111.432 25.9051 111.277 26.0077 111.113 25.9746ZM130.415 33.4384L72.4411 21.6981C72.2774 21.6649 72.1748 21.5102 72.208 21.3465C72.2411 21.1827 72.3958 21.0801 72.5596 21.1133L130.533 32.8537C130.697 32.8868 130.8 33.0415 130.766 33.2053C130.733 33.369 130.579 33.4716 130.415 33.4384ZM113.569 28.2493L55.5948 16.5089C55.4311 16.4758 55.3285 16.3211 55.3616 16.1574C55.3948 15.9936 55.5495 15.891 55.7132 15.9242L113.687 27.6645C113.851 27.6977 113.953 27.8524 113.92 28.0161C113.887 28.1799 113.732 28.2825 113.569 28.2493ZM131.592 27.6259L70.2968 15.2129C70.133 15.1797 70.0304 15.025 70.0636 14.8613C70.0968 14.6975 70.2515 14.5949 70.4152 14.6281L131.71 27.0411C131.874 27.0743 131.977 27.229 131.944 27.3927C131.91 27.5564 131.756 27.659 131.592 27.6259ZM122.167 35.3293L60.8717 22.9163C60.708 22.8832 60.6054 22.7285 60.6385 22.5647C60.6717 22.401 60.8264 22.2984 60.9901 22.3315L122.285 34.7445C122.449 34.7777 122.552 34.9324 122.519 35.0961C122.485 35.2599 122.331 35.3625 122.167 35.3293Z" fill="black"/>
<path d="M101.434 18.3407L85.0195 15.0166L81.9607 30.1211L98.3751 33.4452L101.434 18.3407Z" fill="#FF8000"/>
<path d="M98.3147 33.7435L81.9003 30.4194C81.7365 30.3862 81.6339 30.2315 81.6671 30.0678L84.7259 14.9633C84.7591 14.7995 84.9138 14.697 85.0775 14.7301L101.492 18.0542C101.656 18.0874 101.758 18.2421 101.725 18.4058L98.6663 33.5103C98.6331 33.6741 98.4784 33.7767 98.3147 33.7435ZM82.3111 29.8938L98.1407 33.0995L101.081 18.5798L85.2515 15.3741L82.3111 29.8938Z" fill="black"/>
<path d="M164.961 78.3226L86.9883 62.5322L83.9294 77.6367L161.902 93.4271L164.961 78.3226Z" fill="#008080"/>
<path d="M161.843 93.7196L83.87 77.9292C83.7063 77.896 83.6037 77.7413 83.6368 77.5776L86.6957 62.473C86.7288 62.3093 86.8835 62.2067 87.0473 62.2399L165.02 78.0303C165.184 78.0634 165.286 78.2181 165.253 78.3819L162.194 93.4864C162.161 93.6501 162.006 93.7527 161.843 93.7196ZM84.2808 77.4036L161.669 93.0756L164.609 78.5558L87.2212 62.8839L84.2808 77.4036Z" fill="black"/>
<path d="M144.612 76.0035L86.6378 64.2631C86.4741 64.23 86.3715 64.0753 86.4047 63.9115C86.4378 63.7478 86.5925 63.6452 86.7563 63.6784L144.73 75.4187C144.894 75.4519 144.996 75.6066 144.963 75.7703C144.93 75.934 144.775 76.0366 144.612 76.0035ZM143.86 79.7168L85.8858 67.9764C85.7221 67.9432 85.6195 67.7885 85.6527 67.6248C85.6858 67.4611 85.8405 67.3585 86.0043 67.3916L143.978 79.132C144.142 79.1651 144.244 79.3198 144.211 79.4836C144.178 79.6473 144.023 79.7499 143.86 79.7168ZM142.669 85.5937L84.6957 73.8533C84.532 73.8201 84.4294 73.6654 84.4625 73.5017C84.4957 73.338 84.6504 73.2354 84.8141 73.2685L142.788 85.0089C142.952 85.042 143.054 85.1967 143.021 85.3605C142.988 85.5242 142.833 85.6268 142.669 85.5937ZM163.166 87.1877L105.192 75.4473C105.028 75.4142 104.926 75.2595 104.959 75.0957C104.992 74.932 105.147 74.8294 105.311 74.8625L163.284 86.6029C163.448 86.6361 163.551 86.7908 163.517 86.9545C163.484 87.1182 163.33 87.2208 163.166 87.1877ZM146.315 81.9915L88.3411 70.2511C88.1773 70.218 88.0748 70.0633 88.1079 69.8995C88.1411 69.7358 88.2958 69.6332 88.4595 69.6664L146.433 81.4067C146.597 81.4399 146.7 81.5946 146.666 81.7583C146.633 81.9221 146.479 82.0247 146.315 81.9915ZM162.017 91.5084L100.722 79.0954C100.558 79.0623 100.455 78.9076 100.488 78.7438C100.522 78.5801 100.676 78.4775 100.84 78.5107L162.135 90.9237C162.299 90.9568 162.402 91.1115 162.368 91.2753C162.335 91.439 162.181 91.5416 162.017 91.5084ZM164.101 82.568L86.1286 66.7776C85.9649 66.7444 85.8623 66.5897 85.8954 66.426C85.9286 66.2623 86.0833 66.1597 86.247 66.1928L164.22 81.9832C164.384 82.0164 164.486 82.1711 164.453 82.3348C164.42 82.4986 164.265 82.6012 164.101 82.568Z" fill="black"/>
<path d="M172.323 64.0892L94.3506 48.2988L91.2917 63.4033L169.265 79.1938L172.323 64.0892Z" fill="#008080"/>
<path d="M169.205 79.4862L91.2323 63.6958C91.0686 63.6626 90.966 63.5079 90.9991 63.3442L94.058 48.2396C94.0911 48.0759 94.2458 47.9733 94.4096 48.0065L172.382 63.7969C172.546 63.83 172.649 63.9847 172.616 64.1485L169.557 79.253C169.524 79.4167 169.369 79.5193 169.205 79.4862ZM91.6431 63.1702L169.031 78.8422L171.972 64.3224L94.5835 48.6505L91.6431 63.1702Z" fill="black"/>
<path d="M151.974 61.7701L94.0001 50.0297C93.8364 49.9966 93.7338 49.8419 93.767 49.6781C93.8001 49.5144 93.9548 49.4118 94.1186 49.445L152.092 61.1853C152.256 61.2185 152.359 61.3732 152.325 61.5369C152.292 61.7007 152.138 61.8032 151.974 61.7701ZM151.222 65.4834L93.2482 53.743C93.0844 53.7098 92.9818 53.5551 93.015 53.3914C93.0481 53.2277 93.2028 53.1251 93.3666 53.1582L151.34 64.8986C151.504 64.9318 151.607 65.0865 151.573 65.2502C151.54 65.4139 151.386 65.5165 151.222 65.4834ZM150.032 71.3603L92.058 59.6199C91.8943 59.5867 91.7917 59.432 91.8248 59.2683C91.858 59.1046 92.0127 59.002 92.1764 59.0351L150.15 70.7755C150.314 70.8087 150.417 70.9634 150.383 71.1271C150.35 71.2908 150.195 71.3934 150.032 71.3603ZM170.529 72.9484L112.556 61.2081C112.392 61.1749 112.289 61.0202 112.322 60.8565C112.356 60.6927 112.51 60.5901 112.674 60.6233L170.648 72.3637C170.811 72.3968 170.914 72.5515 170.881 72.7153C170.848 72.879 170.693 72.9816 170.529 72.9484ZM153.677 67.7581L95.7034 56.0177C95.5397 55.9846 95.4371 55.8299 95.4702 55.6662C95.5034 55.5024 95.6581 55.3998 95.8218 55.433L153.796 67.1734C153.959 67.2065 154.062 67.3612 154.029 67.5249C153.996 67.6887 153.841 67.7913 153.677 67.7581ZM171.706 67.1359L110.411 54.7228C110.247 54.6897 110.145 54.535 110.178 54.3712C110.211 54.2075 110.366 54.1049 110.53 54.1381L171.825 66.5511C171.989 66.5842 172.091 66.7389 172.058 66.9027C172.025 67.0664 171.87 67.169 171.706 67.1359ZM169.385 77.2762L108.09 64.8632C107.926 64.8301 107.823 64.6754 107.857 64.5116C107.89 64.3479 108.045 64.2453 108.208 64.2785L169.503 76.6915C169.667 76.7246 169.77 76.8793 169.737 77.0431C169.703 77.2068 169.549 77.3094 169.385 77.2762Z" fill="black"/>
<path d="M141.547 57.8573L125.133 54.5332L122.074 69.6377L138.488 72.9618L141.547 57.8573Z" fill="#FF8000"/>
<path d="M138.429 73.2542L122.015 69.9301C121.851 69.897 121.748 69.7423 121.781 69.5785L124.84 54.474C124.873 54.3103 125.028 54.2077 125.192 54.2409L141.606 57.565C141.77 57.5981 141.873 57.7528 141.839 57.9166L138.781 73.0211C138.747 73.1848 138.593 73.2874 138.429 73.2542ZM122.425 69.4046L138.255 72.6103L141.195 58.0905L125.366 54.8848L122.425 69.4046Z" fill="black"/>
<path d="M84.5742 17.679L6.24219 31.5781L8.93466 46.7522L87.2667 32.8531L84.5742 17.679Z" fill="#008080"/>
<path d="M8.88781 47.0385C8.84688 47.0303 8.80713 47.0161 8.7756 46.9915C8.71135 46.948 8.66471 46.8777 8.65087 46.7958L5.95881 31.6224C5.93112 31.4585 6.03564 31.3031 6.19952 31.2754L84.5307 17.3706C84.6067 17.3556 84.6886 17.3722 84.7529 17.4156C84.8171 17.459 84.8637 17.5294 84.8776 17.6113L87.5696 32.7847C87.5973 32.9486 87.4928 33.104 87.3289 33.1316L8.99781 47.0365C8.96035 47.041 8.92408 47.0398 8.889 47.0327L8.88781 47.0385ZM6.60191 31.8135L9.19358 46.4004L86.9371 32.6018L84.3454 18.0149L6.60191 31.8135Z" fill="black"/>
<path d="M6.45098 33.3108C6.33403 33.2871 6.23713 33.1944 6.21403 33.068C6.18635 32.9041 6.29086 32.7488 6.45474 32.7211L64.6936 22.381C64.8575 22.3533 65.0128 22.4579 65.0405 22.6217C65.0682 22.7856 64.9637 22.941 64.7998 22.9687L6.56097 33.3087C6.52352 33.3133 6.48607 33.3179 6.45098 33.3108ZM7.11361 37.0427C6.99666 37.019 6.89976 36.9263 6.87667 36.7999C6.84898 36.636 6.95349 36.4807 7.11737 36.453L65.3562 26.1129C65.5201 26.0852 65.6755 26.1898 65.7032 26.3536C65.7308 26.5175 65.6263 26.6729 65.4624 26.7006L7.22361 37.0406C7.18615 37.0452 7.1487 37.0498 7.11361 37.0427ZM8.16415 42.9472C8.0472 42.9235 7.95031 42.8309 7.92721 42.7044C7.89952 42.5406 8.00404 42.3852 8.16792 42.3575L66.4068 32.0175C66.5706 31.9898 66.726 32.0943 66.7537 32.2582C66.7814 32.4221 66.6769 32.5774 66.513 32.6051L8.27415 42.9452C8.23669 42.9497 8.19924 42.9543 8.16415 42.9472ZM27.8131 36.9125C27.6961 36.8888 27.5992 36.7961 27.5761 36.6697C27.5484 36.5058 27.653 36.3504 27.8168 36.3227L86.0557 25.9827C86.2196 25.955 86.3749 26.0595 86.4026 26.2234C86.4303 26.3873 86.3258 26.5427 86.1619 26.5704L27.9231 36.9104C27.8856 36.915 27.8482 36.9196 27.8131 36.9125ZM24.9973 41.9488C24.8804 41.9251 24.7835 41.8325 24.7604 41.706C24.7327 41.5422 24.8372 41.3868 25.0011 41.3591L86.5797 30.4292C86.7436 30.4015 86.8989 30.506 86.9266 30.6699C86.9543 30.8338 86.8498 30.9892 86.6859 31.0168L25.1073 41.9467C25.0699 41.9513 25.0324 41.9559 24.9973 41.9488ZM6.90122 35.837C6.78427 35.8133 6.68737 35.7206 6.66428 35.5942C6.63659 35.4303 6.74111 35.2749 6.90499 35.2472L85.2361 21.3424C85.4 21.3147 85.5554 21.4193 85.583 21.5831C85.6107 21.747 85.5062 21.9024 85.3423 21.9301L7.01122 35.8349C6.97376 35.8395 6.93631 35.8441 6.90122 35.837Z" fill="black"/>
<path d="M53.656 23.1649L37.166 26.0908L39.8585 41.2649L56.3485 38.339L53.656 23.1649Z" fill="#FF8000"/>
<path d="M39.8094 41.5514C39.7685 41.5431 39.7288 41.529 39.6972 41.5043C39.633 41.4609 39.5863 41.3905 39.5725 41.3086L36.8804 26.1352C36.8654 26.0591 36.882 25.9772 36.9254 25.913C36.9689 25.8487 37.0392 25.8021 37.1211 25.7883L53.6138 22.8642C53.7777 22.8365 53.9331 22.941 53.9608 23.1049L56.6528 38.2783C56.6805 38.4422 56.576 38.5976 56.4121 38.6252L39.9194 41.5493C39.882 41.5539 39.8457 41.5526 39.8106 41.5455L39.8094 41.5514ZM37.5235 26.3263L40.1152 40.9132L56.0214 38.0896L53.4297 23.5026L37.5235 26.3263Z" fill="black"/>
<path d="M102.235 45.5253L29.0869 30.7119L22.1438 64.9968L95.2923 79.8102L102.235 45.5253Z" fill="#008080"/>
<path d="M95.2338 80.1026L22.0854 65.2892C21.9216 65.256 21.819 65.1013 21.8522 64.9376L28.7953 30.6527C28.8284 30.489 28.9831 30.3864 29.1469 30.4196L102.295 45.233C102.459 45.2661 102.562 45.4208 102.528 45.5846L95.5854 79.8694C95.5522 80.0332 95.3975 80.1358 95.2338 80.1026ZM22.4962 64.7636L95.0598 79.4586L101.885 45.7585L29.3208 31.0635L22.4962 64.7636Z" fill="black"/>
<path d="M92.0248 67.5092L94.4383 55.5916C90.7776 54.8503 88.4133 51.2851 89.1546 47.6245L40.3266 37.7363C39.5853 41.3969 36.0201 43.7613 32.3594 43.0199L29.946 54.9375C33.6066 55.6788 35.971 59.244 35.2297 62.9046L84.0577 72.7928C84.799 69.1322 88.3642 66.7678 92.0248 67.5092Z" fill="#008080"/>
<path d="M83.9924 73.0843L35.1644 63.196C35.0007 63.1629 34.8981 63.0082 34.9312 62.8444C35.6382 59.3534 33.3718 55.9359 29.8807 55.2289C29.717 55.1958 29.6144 55.0411 29.6475 54.8773L32.061 42.9598C32.0941 42.796 32.2488 42.6935 32.4126 42.7266C35.9036 43.4336 39.3211 41.1672 40.0281 37.6761C40.0435 37.6001 40.0881 37.53 40.1573 37.4892C40.2206 37.4472 40.3037 37.4275 40.3797 37.4429L89.2077 47.3312C89.3714 47.3643 89.474 47.519 89.4409 47.6828C88.7339 51.1738 91.0003 54.5913 94.4914 55.2983C94.6551 55.3315 94.7577 55.4862 94.7246 55.6499L92.3111 67.5674C92.278 67.7312 92.1233 67.8338 91.9595 67.8006C88.4685 67.0936 85.051 69.3601 84.344 72.8511C84.3108 73.0148 84.1561 73.1174 83.9924 73.0843ZM35.5693 62.6693L83.8243 72.4415C84.7022 68.8877 88.176 66.5839 91.7844 67.1625L94.0829 55.8122C90.5291 54.9342 88.2254 51.4604 88.8039 47.8521L40.549 38.0799C39.671 41.6337 36.1973 43.9374 32.5889 43.3589L30.2903 54.7092C33.8442 55.5872 36.1479 59.0609 35.5693 62.6693Z" fill="black"/>
<path d="M60.3073 64.5433C64.4444 65.3811 68.6396 61.9054 69.6775 56.78C70.7155 51.6547 68.2031 46.8206 64.0661 45.9828C59.929 45.145 55.7338 48.6207 54.6958 53.7461C53.6579 58.8714 56.1702 63.7055 60.3073 64.5433Z" fill="#008080"/>
<path d="M60.2491 64.8299C55.9569 63.9606 53.3351 58.9615 54.4044 53.681C54.9195 51.1373 56.2062 48.902 58.027 47.3958C59.8701 45.8697 62.0316 45.2665 64.125 45.6905C68.4172 46.5597 71.0391 51.5588 69.9697 56.8393C68.9004 62.1197 64.5401 65.7049 60.2479 64.8357L60.2491 64.8299ZM64.0066 46.2752C62.0944 45.888 60.1062 46.4472 58.4085 47.8566C56.6897 49.2799 55.4771 51.3902 54.988 53.8053C53.985 58.7583 56.3958 63.4469 60.3663 64.2509C64.3369 65.055 68.3807 61.6797 69.3849 56.7209C70.3892 51.762 67.9772 47.0793 64.0066 46.2752Z" fill="black"/>
</g>
<defs>
<clipPath id="clip0_137_19392">
<rect width="169.818" height="62.1815" fill="white" transform="translate(12.3418) rotate(11.4482)"/>
</clipPath>
</defs>
</svg>
