<svg width="16" height="16" viewBox="0 0 16 16" fill="none" xmlns="http://www.w3.org/2000/svg">
<path fill-rule="evenodd" clip-rule="evenodd" d="M1.3335 7.11393C1.3335 3.92176 3.89372 1.33398 7.05192 1.33398C8.56854 1.33398 10.023 1.94294 11.0955 3.02689C12.1679 4.11084 12.7703 5.581 12.7703 7.11393C12.7703 10.3061 10.2101 12.8939 7.05192 12.8939C3.89372 12.8939 1.3335 10.3061 1.3335 7.11393ZM12.6757 11.7702L14.3788 13.1449H14.4084C14.753 13.4932 14.753 14.0578 14.4084 14.4061C14.0638 14.7544 13.5052 14.7544 13.1606 14.4061L11.7473 12.7863C11.6137 12.6517 11.5386 12.4689 11.5386 12.2782C11.5386 12.0876 11.6137 11.9048 11.7473 11.7702C12.005 11.5142 12.418 11.5142 12.6757 11.7702Z" fill="#161B26"/>
<path fill-rule="evenodd" clip-rule="evenodd" d="M1.3335 7.11393C1.3335 3.92176 3.89372 1.33398 7.05192 1.33398C8.56854 1.33398 10.023 1.94294 11.0955 3.02689C12.1679 4.11084 12.7703 5.581 12.7703 7.11393C12.7703 10.3061 10.2101 12.8939 7.05192 12.8939C3.89372 12.8939 1.3335 10.3061 1.3335 7.11393ZM12.6757 11.7702L14.3788 13.1449H14.4084C14.753 13.4932 14.753 14.0578 14.4084 14.4061C14.0638 14.7544 13.5052 14.7544 13.1606 14.4061L11.7473 12.7863C11.6137 12.6517 11.5386 12.4689 11.5386 12.2782C11.5386 12.0876 11.6137 11.9048 11.7473 11.7702C12.005 11.5142 12.418 11.5142 12.6757 11.7702Z" fill="black" fill-opacity="0.2"/>
<path fill-rule="evenodd" clip-rule="evenodd" d="M1.3335 7.11393C1.3335 3.92176 3.89372 1.33398 7.05192 1.33398C8.56854 1.33398 10.023 1.94294 11.0955 3.02689C12.1679 4.11084 12.7703 5.581 12.7703 7.11393C12.7703 10.3061 10.2101 12.8939 7.05192 12.8939C3.89372 12.8939 1.3335 10.3061 1.3335 7.11393ZM12.6757 11.7702L14.3788 13.1449H14.4084C14.753 13.4932 14.753 14.0578 14.4084 14.4061C14.0638 14.7544 13.5052 14.7544 13.1606 14.4061L11.7473 12.7863C11.6137 12.6517 11.5386 12.4689 11.5386 12.2782C11.5386 12.0876 11.6137 11.9048 11.7473 11.7702C12.005 11.5142 12.418 11.5142 12.6757 11.7702Z" fill="black" fill-opacity="0.2"/>
<path fill-rule="evenodd" clip-rule="evenodd" d="M1.3335 7.11393C1.3335 3.92176 3.89372 1.33398 7.05192 1.33398C8.56854 1.33398 10.023 1.94294 11.0955 3.02689C12.1679 4.11084 12.7703 5.581 12.7703 7.11393C12.7703 10.3061 10.2101 12.8939 7.05192 12.8939C3.89372 12.8939 1.3335 10.3061 1.3335 7.11393ZM12.6757 11.7702L14.3788 13.1449H14.4084C14.753 13.4932 14.753 14.0578 14.4084 14.4061C14.0638 14.7544 13.5052 14.7544 13.1606 14.4061L11.7473 12.7863C11.6137 12.6517 11.5386 12.4689 11.5386 12.2782C11.5386 12.0876 11.6137 11.9048 11.7473 11.7702C12.005 11.5142 12.418 11.5142 12.6757 11.7702Z" fill="black" fill-opacity="0.2"/>
</svg>
