<svg width="119" height="113" viewBox="0 0 119 113" fill="none" xmlns="http://www.w3.org/2000/svg">
<g opacity="0.5" clip-path="url(#clip0_115_5548)">
<path d="M108.945 81.6006C136.653 65.6034 146.146 30.1733 130.149 2.46526C114.152 -25.2428 78.7216 -34.7362 51.0136 -18.739C23.3055 -2.74176 13.8121 32.6884 29.8093 60.3964C45.8065 88.1044 81.2367 97.5979 108.945 81.6006Z" fill="#161B26"/>
<path d="M108.945 81.6006C136.653 65.6034 146.146 30.1733 130.149 2.46526C114.152 -25.2428 78.7216 -34.7362 51.0136 -18.739C23.3055 -2.74176 13.8121 32.6884 29.8093 60.3964C45.8065 88.1044 81.2367 97.5979 108.945 81.6006Z" fill="black" fill-opacity="0.2"/>
<path d="M108.945 81.6006C136.653 65.6034 146.146 30.1733 130.149 2.46526C114.152 -25.2428 78.7216 -34.7362 51.0136 -18.739C23.3055 -2.74176 13.8121 32.6884 29.8093 60.3964C45.8065 88.1044 81.2367 97.5979 108.945 81.6006Z" fill="black" fill-opacity="0.2"/>
<path d="M108.945 81.6006C136.653 65.6034 146.146 30.1733 130.149 2.46526C114.152 -25.2428 78.7216 -34.7362 51.0136 -18.739C23.3055 -2.74176 13.8121 32.6884 29.8093 60.3964C45.8065 88.1044 81.2367 97.5979 108.945 81.6006Z" fill="black" fill-opacity="0.2"/>
<path d="M97.0816 87.4009C66.2218 96.8305 33.4317 79.4167 23.9932 48.5415C14.5636 17.6817 31.9774 -15.1084 62.8526 -24.5469C93.7124 -33.9765 126.502 -16.5627 135.941 14.3125C145.371 45.1723 127.957 77.9624 97.0816 87.4009ZM63.1999 -23.4112C32.9753 -14.1633 15.8875 17.9452 25.1289 48.1942C34.3768 78.4188 66.4853 95.5066 96.7343 86.2652C126.959 77.0173 144.047 44.9088 134.805 14.6598C125.557 -15.5648 93.4489 -32.6526 63.1999 -23.4112Z" fill="#161B26"/>
<path d="M97.0816 87.4009C66.2218 96.8305 33.4317 79.4167 23.9932 48.5415C14.5636 17.6817 31.9774 -15.1084 62.8526 -24.5469C93.7124 -33.9765 126.502 -16.5627 135.941 14.3125C145.371 45.1723 127.957 77.9624 97.0816 87.4009ZM63.1999 -23.4112C32.9753 -14.1633 15.8875 17.9452 25.1289 48.1942C34.3768 78.4188 66.4853 95.5066 96.7343 86.2652C126.959 77.0173 144.047 44.9088 134.805 14.6598C125.557 -15.5648 93.4489 -32.6526 63.1999 -23.4112Z" fill="black" fill-opacity="0.2"/>
<path d="M97.0816 87.4009C66.2218 96.8305 33.4317 79.4167 23.9932 48.5415C14.5636 17.6817 31.9774 -15.1084 62.8526 -24.5469C93.7124 -33.9765 126.502 -16.5627 135.941 14.3125C145.371 45.1723 127.957 77.9624 97.0816 87.4009ZM63.1999 -23.4112C32.9753 -14.1633 15.8875 17.9452 25.1289 48.1942C34.3768 78.4188 66.4853 95.5066 96.7343 86.2652C126.959 77.0173 144.047 44.9088 134.805 14.6598C125.557 -15.5648 93.4489 -32.6526 63.1999 -23.4112Z" fill="black" fill-opacity="0.2"/>
<path d="M97.0816 87.4009C66.2218 96.8305 33.4317 79.4167 23.9932 48.5415C14.5636 17.6817 31.9774 -15.1084 62.8526 -24.5469C93.7124 -33.9765 126.502 -16.5627 135.941 14.3125C145.371 45.1723 127.957 77.9624 97.0816 87.4009ZM63.1999 -23.4112C32.9753 -14.1633 15.8875 17.9452 25.1289 48.1942C34.3768 78.4188 66.4853 95.5066 96.7343 86.2652C126.959 77.0173 144.047 44.9088 134.805 14.6598C125.557 -15.5648 93.4489 -32.6526 63.1999 -23.4112Z" fill="black" fill-opacity="0.2"/>
<path d="M115.148 79.7042C142.856 63.7069 152.35 28.2768 136.353 0.56878C120.355 -27.1392 84.9252 -36.6327 57.2172 -20.6355C29.5092 -4.63824 20.0157 30.7919 36.0129 58.4999C52.0102 86.2079 87.4403 95.7014 115.148 79.7042Z" fill="#FAFAFA"/>
<path d="M103.285 85.5044C72.4249 94.934 39.6348 77.5202 30.1963 46.645C20.7668 15.7852 38.1805 -17.0049 69.0557 -26.4434C99.9156 -35.873 132.706 -18.4592 142.144 12.416C151.574 43.2758 134.16 76.0659 103.285 85.5044ZM69.4031 -25.3077C39.1784 -16.0598 22.0907 16.0487 31.332 46.2977C40.5799 76.5223 72.6884 93.6101 102.937 84.3687C133.162 75.1208 150.25 43.0123 141.008 12.7633C131.761 -17.4613 99.6521 -34.5491 69.4031 -25.3077Z" fill="#161B26"/>
<path d="M103.285 85.5044C72.4249 94.934 39.6348 77.5202 30.1963 46.645C20.7668 15.7852 38.1805 -17.0049 69.0557 -26.4434C99.9156 -35.873 132.706 -18.4592 142.144 12.416C151.574 43.2758 134.16 76.0659 103.285 85.5044ZM69.4031 -25.3077C39.1784 -16.0598 22.0907 16.0487 31.332 46.2977C40.5799 76.5223 72.6884 93.6101 102.937 84.3687C133.162 75.1208 150.25 43.0123 141.008 12.7633C131.761 -17.4613 99.6521 -34.5491 69.4031 -25.3077Z" fill="black" fill-opacity="0.2"/>
<path d="M103.285 85.5044C72.4249 94.934 39.6348 77.5202 30.1963 46.645C20.7668 15.7852 38.1805 -17.0049 69.0557 -26.4434C99.9156 -35.873 132.706 -18.4592 142.144 12.416C151.574 43.2758 134.16 76.0659 103.285 85.5044ZM69.4031 -25.3077C39.1784 -16.0598 22.0907 16.0487 31.332 46.2977C40.5799 76.5223 72.6884 93.6101 102.937 84.3687C133.162 75.1208 150.25 43.0123 141.008 12.7633C131.761 -17.4613 99.6521 -34.5491 69.4031 -25.3077Z" fill="black" fill-opacity="0.2"/>
<path d="M103.285 85.5044C72.4249 94.934 39.6348 77.5202 30.1963 46.645C20.7668 15.7852 38.1805 -17.0049 69.0557 -26.4434C99.9156 -35.873 132.706 -18.4592 142.144 12.416C151.574 43.2758 134.16 76.0659 103.285 85.5044ZM69.4031 -25.3077C39.1784 -16.0598 22.0907 16.0487 31.332 46.2977C40.5799 76.5223 72.6884 93.6101 102.937 84.3687C133.162 75.1208 150.25 43.0123 141.008 12.7633C131.761 -17.4613 99.6521 -34.5491 69.4031 -25.3077Z" fill="black" fill-opacity="0.2"/>
<path d="M111.552 73.4755C135.82 59.4644 144.134 28.4331 130.123 4.1652C116.112 -20.1027 85.081 -28.4175 60.8131 -14.4064C36.5451 -0.39535 28.2303 30.6359 42.2414 54.9039C56.2525 79.1718 87.2838 87.4866 111.552 73.4755Z" fill="#008080"/>
<path d="M101.18 78.6196C74.1114 86.8884 45.3498 71.6098 37.0809 44.5407C28.8121 17.4716 44.0908 -11.29 71.1598 -19.5588C98.2289 -27.8277 126.99 -12.549 135.259 14.52C143.528 41.5891 128.25 70.3507 101.18 78.6196ZM71.5072 -18.4231C45.0733 -10.336 30.1295 17.7595 38.2166 44.1934C46.3038 70.6273 74.3993 85.5711 100.833 77.4839C127.267 69.3967 142.211 41.3013 134.124 14.8674C126.037 -11.5665 97.9411 -26.5103 71.5072 -18.4231Z" fill="#161B26"/>
<path d="M101.18 78.6196C74.1114 86.8884 45.3498 71.6098 37.0809 44.5407C28.8121 17.4716 44.0908 -11.29 71.1598 -19.5588C98.2289 -27.8277 126.99 -12.549 135.259 14.52C143.528 41.5891 128.25 70.3507 101.18 78.6196ZM71.5072 -18.4231C45.0733 -10.336 30.1295 17.7595 38.2166 44.1934C46.3038 70.6273 74.3993 85.5711 100.833 77.4839C127.267 69.3967 142.211 41.3013 134.124 14.8674C126.037 -11.5665 97.9411 -26.5103 71.5072 -18.4231Z" fill="black" fill-opacity="0.2"/>
<path d="M101.18 78.6196C74.1114 86.8884 45.3498 71.6098 37.0809 44.5407C28.8121 17.4716 44.0908 -11.29 71.1598 -19.5588C98.2289 -27.8277 126.99 -12.549 135.259 14.52C143.528 41.5891 128.25 70.3507 101.18 78.6196ZM71.5072 -18.4231C45.0733 -10.336 30.1295 17.7595 38.2166 44.1934C46.3038 70.6273 74.3993 85.5711 100.833 77.4839C127.267 69.3967 142.211 41.3013 134.124 14.8674C126.037 -11.5665 97.9411 -26.5103 71.5072 -18.4231Z" fill="black" fill-opacity="0.2"/>
<path d="M101.18 78.6196C74.1114 86.8884 45.3498 71.6098 37.0809 44.5407C28.8121 17.4716 44.0908 -11.29 71.1598 -19.5588C98.2289 -27.8277 126.99 -12.549 135.259 14.52C143.528 41.5891 128.25 70.3507 101.18 78.6196ZM71.5072 -18.4231C45.0733 -10.336 30.1295 17.7595 38.2166 44.1934C46.3038 70.6273 74.3993 85.5711 100.833 77.4839C127.267 69.3967 142.211 41.3013 134.124 14.8674C126.037 -11.5665 97.9411 -26.5103 71.5072 -18.4231Z" fill="black" fill-opacity="0.2"/>
<path d="M107.956 67.2469C128.784 55.2219 135.92 28.5895 123.895 7.76161C111.87 -13.0662 85.2373 -20.2024 64.4094 -8.17742C43.5816 3.84754 36.4454 30.48 48.4704 51.3079C60.4954 72.1357 87.1278 79.2719 107.956 67.2469Z" fill="#FAFAFA"/>
<path d="M99.0767 71.7367C75.8073 78.8602 51.0742 65.7166 43.966 42.4383C36.8425 19.1689 49.9861 -5.5642 73.2644 -12.6723C96.5338 -19.7959 121.267 -6.65227 128.375 16.626C135.499 39.8954 122.355 64.6286 99.0767 71.7367ZM73.6028 -11.5521C50.9597 -4.62563 38.1664 19.4325 45.0928 42.0756C52.0192 64.7187 76.0773 77.512 98.7205 70.5856C121.364 63.6592 134.157 39.6011 127.23 16.9579C120.304 -5.6852 96.246 -18.4785 73.6028 -11.5521Z" fill="#161B26"/>
<path d="M99.0767 71.7367C75.8073 78.8602 51.0742 65.7166 43.966 42.4383C36.8425 19.1689 49.9861 -5.5642 73.2644 -12.6723C96.5338 -19.7959 121.267 -6.65227 128.375 16.626C135.499 39.8954 122.355 64.6286 99.0767 71.7367ZM73.6028 -11.5521C50.9597 -4.62563 38.1664 19.4325 45.0928 42.0756C52.0192 64.7187 76.0773 77.512 98.7205 70.5856C121.364 63.6592 134.157 39.6011 127.23 16.9579C120.304 -5.6852 96.246 -18.4785 73.6028 -11.5521Z" fill="black" fill-opacity="0.2"/>
<path d="M99.0767 71.7367C75.8073 78.8602 51.0742 65.7166 43.966 42.4383C36.8425 19.1689 49.9861 -5.5642 73.2644 -12.6723C96.5338 -19.7959 121.267 -6.65227 128.375 16.626C135.499 39.8954 122.355 64.6286 99.0767 71.7367ZM73.6028 -11.5521C50.9597 -4.62563 38.1664 19.4325 45.0928 42.0756C52.0192 64.7187 76.0773 77.512 98.7205 70.5856C121.364 63.6592 134.157 39.6011 127.23 16.9579C120.304 -5.6852 96.246 -18.4785 73.6028 -11.5521Z" fill="black" fill-opacity="0.2"/>
<path d="M99.0767 71.7367C75.8073 78.8602 51.0742 65.7166 43.966 42.4383C36.8425 19.1689 49.9861 -5.5642 73.2644 -12.6723C96.5338 -19.7959 121.267 -6.65227 128.375 16.626C135.499 39.8954 122.355 64.6286 99.0767 71.7367ZM73.6028 -11.5521C50.9597 -4.62563 38.1664 19.4325 45.0928 42.0756C52.0192 64.7187 76.0773 77.512 98.7205 70.5856C121.364 63.6592 134.157 39.6011 127.23 16.9579C120.304 -5.6852 96.246 -18.4785 73.6028 -11.5521Z" fill="black" fill-opacity="0.2"/>
<path d="M104.36 61.0183C121.747 50.9794 127.705 28.7458 117.666 11.358C107.627 -6.02974 85.3936 -11.9872 68.0058 -1.9484C50.618 8.09043 44.6605 30.3241 54.6994 47.7118C64.7382 65.0996 86.9718 71.0571 104.36 61.0183Z" fill="#008080"/>
<path d="M96.9813 64.8673C77.5027 70.8301 56.798 59.8216 50.8506 40.334C44.8878 20.8554 55.8964 0.150707 75.3839 -5.79668C94.8625 -11.7595 115.567 -0.750949 121.515 18.7366C127.477 38.2152 116.469 58.9199 96.9813 64.8673ZM75.7158 -4.65208C56.8634 1.11361 46.2052 21.1432 51.9709 39.9956C57.7366 58.848 77.7662 69.5062 96.6186 63.7405C115.471 57.9748 126.129 37.9452 120.364 19.0928C114.598 0.240435 94.5682 -10.4178 75.7158 -4.65208Z" fill="#161B26"/>
<path d="M96.9813 64.8673C77.5027 70.8301 56.798 59.8216 50.8506 40.334C44.8878 20.8554 55.8964 0.150707 75.3839 -5.79668C94.8625 -11.7595 115.567 -0.750949 121.515 18.7366C127.477 38.2152 116.469 58.9199 96.9813 64.8673ZM75.7158 -4.65208C56.8634 1.11361 46.2052 21.1432 51.9709 39.9956C57.7366 58.848 77.7662 69.5062 96.6186 63.7405C115.471 57.9748 126.129 37.9452 120.364 19.0928C114.598 0.240435 94.5682 -10.4178 75.7158 -4.65208Z" fill="black" fill-opacity="0.2"/>
<path d="M96.9813 64.8673C77.5027 70.8301 56.798 59.8216 50.8506 40.334C44.8878 20.8554 55.8964 0.150707 75.3839 -5.79668C94.8625 -11.7595 115.567 -0.750949 121.515 18.7366C127.477 38.2152 116.469 58.9199 96.9813 64.8673ZM75.7158 -4.65208C56.8634 1.11361 46.2052 21.1432 51.9709 39.9956C57.7366 58.848 77.7662 69.5062 96.6186 63.7405C115.471 57.9748 126.129 37.9452 120.364 19.0928C114.598 0.240435 94.5682 -10.4178 75.7158 -4.65208Z" fill="black" fill-opacity="0.2"/>
<path d="M96.9813 64.8673C77.5027 70.8301 56.798 59.8216 50.8506 40.334C44.8878 20.8554 55.8964 0.150707 75.3839 -5.79668C94.8625 -11.7595 115.567 -0.750949 121.515 18.7366C127.477 38.2152 116.469 58.9199 96.9813 64.8673ZM75.7158 -4.65208C56.8634 1.11361 46.2052 21.1432 51.9709 39.9956C57.7366 58.848 77.7662 69.5062 96.6186 63.7405C115.471 57.9748 126.129 37.9452 120.364 19.0928C114.598 0.240435 94.5682 -10.4178 75.7158 -4.65208Z" fill="black" fill-opacity="0.2"/>
<path d="M100.763 54.7896C114.711 46.7369 119.49 28.9021 111.437 14.9544C103.384 1.00676 85.5494 -3.77206 71.6017 4.28063C57.654 12.3333 52.8752 30.1682 60.9279 44.1158C68.9806 58.0635 86.8154 62.8423 100.763 54.7896Z" fill="#FAFAFA"/>
<path d="M94.8771 57.9825C79.1892 62.7845 62.5219 53.9265 57.7352 38.2297C52.9332 22.5419 61.7912 5.87453 77.488 1.08788C93.1759 -3.71418 109.843 5.14384 114.63 20.8406C119.432 36.5285 110.574 53.1958 94.8771 57.9825ZM77.8264 2.20815C62.7648 6.8131 54.2571 22.8054 58.862 37.867C63.467 52.9286 79.4592 61.4363 94.5209 56.8314C109.582 52.2264 118.09 36.2342 113.476 21.1571C108.871 6.09549 92.8791 -2.41222 77.8021 2.20163L77.8264 2.20815Z" fill="#161B26"/>
<path d="M94.8771 57.9825C79.1892 62.7845 62.5219 53.9265 57.7352 38.2297C52.9332 22.5419 61.7912 5.87453 77.488 1.08788C93.1759 -3.71418 109.843 5.14384 114.63 20.8406C119.432 36.5285 110.574 53.1958 94.8771 57.9825ZM77.8264 2.20815C62.7648 6.8131 54.2571 22.8054 58.862 37.867C63.467 52.9286 79.4592 61.4363 94.5209 56.8314C109.582 52.2264 118.09 36.2342 113.476 21.1571C108.871 6.09549 92.8791 -2.41222 77.8021 2.20163L77.8264 2.20815Z" fill="black" fill-opacity="0.2"/>
<path d="M94.8771 57.9825C79.1892 62.7845 62.5219 53.9265 57.7352 38.2297C52.9332 22.5419 61.7912 5.87453 77.488 1.08788C93.1759 -3.71418 109.843 5.14384 114.63 20.8406C119.432 36.5285 110.574 53.1958 94.8771 57.9825ZM77.8264 2.20815C62.7648 6.8131 54.2571 22.8054 58.862 37.867C63.467 52.9286 79.4592 61.4363 94.5209 56.8314C109.582 52.2264 118.09 36.2342 113.476 21.1571C108.871 6.09549 92.8791 -2.41222 77.8021 2.20163L77.8264 2.20815Z" fill="black" fill-opacity="0.2"/>
<path d="M94.8771 57.9825C79.1892 62.7845 62.5219 53.9265 57.7352 38.2297C52.9332 22.5419 61.7912 5.87453 77.488 1.08788C93.1759 -3.71418 109.843 5.14384 114.63 20.8406C119.432 36.5285 110.574 53.1958 94.8771 57.9825ZM77.8264 2.20815C62.7648 6.8131 54.2571 22.8054 58.862 37.867C63.467 52.9286 79.4592 61.4363 94.5209 56.8314C109.582 52.2264 118.09 36.2342 113.476 21.1571C108.871 6.09549 92.8791 -2.41222 77.8021 2.20163L77.8264 2.20815Z" fill="black" fill-opacity="0.2"/>
<path d="M97.167 48.561C107.675 42.4945 111.275 29.0584 105.208 18.5509C99.1416 8.04327 85.7056 4.4431 75.198 10.5097C64.6904 16.5762 61.0903 30.0122 67.1568 40.5198C73.2234 51.0274 86.6594 54.6276 97.167 48.561Z" fill="#008080"/>
<path d="M92.7728 51.0977C80.8756 54.739 68.2368 48.0161 64.5954 36.1189C60.9541 24.2218 67.6771 11.5829 79.5742 7.94162C91.4713 4.30029 104.11 11.0232 107.752 22.9204C111.393 34.8175 104.67 47.4564 92.7728 51.0977ZM79.9304 9.09272C68.6596 12.5369 62.2958 24.5162 65.74 35.787C69.1843 47.0579 81.1635 53.4216 92.4343 49.9774C103.705 46.5332 110.069 34.554 106.625 23.2831C103.181 12.0123 91.2013 5.64851 79.9304 9.09272Z" fill="#161B26"/>
<path d="M92.7728 51.0977C80.8756 54.739 68.2368 48.0161 64.5954 36.1189C60.9541 24.2218 67.6771 11.5829 79.5742 7.94162C91.4713 4.30029 104.11 11.0232 107.752 22.9204C111.393 34.8175 104.67 47.4564 92.7728 51.0977ZM79.9304 9.09272C68.6596 12.5369 62.2958 24.5162 65.74 35.787C69.1843 47.0579 81.1635 53.4216 92.4343 49.9774C103.705 46.5332 110.069 34.554 106.625 23.2831C103.181 12.0123 91.2013 5.64851 79.9304 9.09272Z" fill="black" fill-opacity="0.2"/>
<path d="M92.7728 51.0977C80.8756 54.739 68.2368 48.0161 64.5954 36.1189C60.9541 24.2218 67.6771 11.5829 79.5742 7.94162C91.4713 4.30029 104.11 11.0232 107.752 22.9204C111.393 34.8175 104.67 47.4564 92.7728 51.0977ZM79.9304 9.09272C68.6596 12.5369 62.2958 24.5162 65.74 35.787C69.1843 47.0579 81.1635 53.4216 92.4343 49.9774C103.705 46.5332 110.069 34.554 106.625 23.2831C103.181 12.0123 91.2013 5.64851 79.9304 9.09272Z" fill="black" fill-opacity="0.2"/>
<path d="M92.7728 51.0977C80.8756 54.739 68.2368 48.0161 64.5954 36.1189C60.9541 24.2218 67.6771 11.5829 79.5742 7.94162C91.4713 4.30029 104.11 11.0232 107.752 22.9204C111.393 34.8175 104.67 47.4564 92.7728 51.0977ZM79.9304 9.09272C68.6596 12.5369 62.2958 24.5162 65.74 35.787C69.1843 47.0579 81.1635 53.4216 92.4343 49.9774C103.705 46.5332 110.069 34.554 106.625 23.2831C103.181 12.0123 91.2013 5.64851 79.9304 9.09272Z" fill="black" fill-opacity="0.2"/>
<path d="M93.5709 42.3324C100.638 38.252 103.06 29.2148 98.9795 22.1473C94.8991 15.0798 85.8619 12.6583 78.7944 16.7387C71.7269 20.8191 69.3054 29.8563 73.3858 36.9238C77.4662 43.9913 86.5034 46.4128 93.5709 42.3324Z" fill="#FAFAFA"/>
<path d="M90.6685 44.2129C82.5621 46.6934 73.9606 42.121 71.48 34.0146C68.9994 25.9083 73.5719 17.3068 81.6783 14.8262C89.7846 12.3456 98.3861 16.918 100.867 25.0244C103.347 33.1308 98.7749 41.7323 90.6685 44.2129ZM82.0256 15.9619C74.5455 18.2453 70.3322 26.1872 72.6157 33.6673C74.8992 41.1474 82.8411 45.3606 90.3212 43.0772C97.8013 40.7937 102.015 32.8518 99.731 25.3717C97.4476 17.8916 89.5057 13.6784 82.0256 15.9619Z" fill="#161B26"/>
<path d="M90.6685 44.2129C82.5621 46.6934 73.9606 42.121 71.48 34.0146C68.9994 25.9083 73.5719 17.3068 81.6783 14.8262C89.7846 12.3456 98.3861 16.918 100.867 25.0244C103.347 33.1308 98.7749 41.7323 90.6685 44.2129ZM82.0256 15.9619C74.5455 18.2453 70.3322 26.1872 72.6157 33.6673C74.8992 41.1474 82.8411 45.3606 90.3212 43.0772C97.8013 40.7937 102.015 32.8518 99.731 25.3717C97.4476 17.8916 89.5057 13.6784 82.0256 15.9619Z" fill="black" fill-opacity="0.2"/>
<path d="M90.6685 44.2129C82.5621 46.6934 73.9606 42.121 71.48 34.0146C68.9994 25.9083 73.5719 17.3068 81.6783 14.8262C89.7846 12.3456 98.3861 16.918 100.867 25.0244C103.347 33.1308 98.7749 41.7323 90.6685 44.2129ZM82.0256 15.9619C74.5455 18.2453 70.3322 26.1872 72.6157 33.6673C74.8992 41.1474 82.8411 45.3606 90.3212 43.0772C97.8013 40.7937 102.015 32.8518 99.731 25.3717C97.4476 17.8916 89.5057 13.6784 82.0256 15.9619Z" fill="black" fill-opacity="0.2"/>
<path d="M90.6685 44.2129C82.5621 46.6934 73.9606 42.121 71.48 34.0146C68.9994 25.9083 73.5719 17.3068 81.6783 14.8262C89.7846 12.3456 98.3861 16.918 100.867 25.0244C103.347 33.1308 98.7749 41.7323 90.6685 44.2129ZM82.0256 15.9619C74.5455 18.2453 70.3322 26.1872 72.6157 33.6673C74.8992 41.1474 82.8411 45.3606 90.3212 43.0772C97.8013 40.7937 102.015 32.8518 99.731 25.3717C97.4476 17.8916 89.5057 13.6784 82.0256 15.9619Z" fill="black" fill-opacity="0.2"/>
<path d="M89.9656 36.0877C93.5845 33.9983 94.8244 29.3708 92.735 25.7519C90.6457 22.133 86.0182 20.8931 82.3993 22.9825C78.7804 25.0719 77.5405 29.6993 79.6298 33.3182C81.7192 36.9371 86.3467 38.1771 89.9656 36.0877Z" fill="#008080"/>
<path d="M88.5579 37.3526C84.2423 38.6725 79.6693 36.2351 78.3583 31.9349C77.0474 27.6347 79.4759 23.0463 83.776 21.7353C88.0762 20.4244 92.6647 22.8529 93.9756 27.153C95.2866 31.4532 92.8581 36.0417 88.5579 37.3526ZM84.1234 22.871C80.434 23.9938 78.3559 27.9071 79.494 31.5876C80.6168 35.2769 84.5301 37.3551 88.2106 36.217C91.8999 35.0942 93.9781 31.1808 92.84 27.5004C91.7018 23.8199 87.8038 21.7329 84.1234 22.871Z" fill="#161B26"/>
<path d="M88.5579 37.3526C84.2423 38.6725 79.6693 36.2351 78.3583 31.9349C77.0474 27.6347 79.4759 23.0463 83.776 21.7353C88.0762 20.4244 92.6647 22.8529 93.9756 27.153C95.2866 31.4532 92.8581 36.0417 88.5579 37.3526ZM84.1234 22.871C80.434 23.9938 78.3559 27.9071 79.494 31.5876C80.6168 35.2769 84.5301 37.3551 88.2106 36.217C91.8999 35.0942 93.9781 31.1808 92.84 27.5004C91.7018 23.8199 87.8038 21.7329 84.1234 22.871Z" fill="black" fill-opacity="0.2"/>
<path d="M88.5579 37.3526C84.2423 38.6725 79.6693 36.2351 78.3583 31.9349C77.0474 27.6347 79.4759 23.0463 83.776 21.7353C88.0762 20.4244 92.6647 22.8529 93.9756 27.153C95.2866 31.4532 92.8581 36.0417 88.5579 37.3526ZM84.1234 22.871C80.434 23.9938 78.3559 27.9071 79.494 31.5876C80.6168 35.2769 84.5301 37.3551 88.2106 36.217C91.8999 35.0942 93.9781 31.1808 92.84 27.5004C91.7018 23.8199 87.8038 21.7329 84.1234 22.871Z" fill="black" fill-opacity="0.2"/>
<path d="M88.5579 37.3526C84.2423 38.6725 79.6693 36.2351 78.3583 31.9349C77.0474 27.6347 79.4759 23.0463 83.776 21.7353C88.0762 20.4244 92.6647 22.8529 93.9756 27.153C95.2866 31.4532 92.8581 36.0417 88.5579 37.3526ZM84.1234 22.871C80.434 23.9938 78.3559 27.9071 79.494 31.5876C80.6168 35.2769 84.5301 37.3551 88.2106 36.217C91.8999 35.0942 93.9781 31.1808 92.84 27.5004C91.7018 23.8199 87.8038 21.7329 84.1234 22.871Z" fill="black" fill-opacity="0.2"/>
<path d="M107.673 14.1031C114.711 7.02785 119.23 0.111723 117.766 -1.34448C116.303 -2.80068 109.41 1.75447 102.372 8.82973C95.3336 15.905 90.8146 22.8211 92.2785 24.2773C93.7423 25.7335 100.635 21.1784 107.673 14.1031Z" fill="#FF952B"/>
<path d="M94.3325 24.9944C93.2277 25.324 92.3487 25.297 91.7898 24.7562C90.7806 23.756 91.363 21.6313 93.554 18.2695C95.4818 15.3063 98.445 11.7864 101.874 8.32634C106.456 3.7283 115.752 -4.31125 118.245 -1.84473C119.254 -0.844485 118.672 1.28021 116.481 4.64204C114.553 7.60522 111.59 11.1251 108.16 14.5851C104.595 18.1651 98.1785 23.8224 94.3325 24.9944ZM102.85 9.30465C99.4803 12.6894 96.5853 16.1493 94.7078 19.0217C92.5452 22.326 92.5818 23.6 92.7681 23.7803C93.4979 24.5101 99.2483 21.5807 107.184 13.6068C110.555 10.2221 113.45 6.76217 115.327 3.88975C117.49 0.58546 117.453 -0.688514 117.267 -0.868758C116.537 -1.59864 110.787 1.33077 102.85 9.30465Z" fill="#161B26"/>
<path d="M94.3325 24.9944C93.2277 25.324 92.3487 25.297 91.7898 24.7562C90.7806 23.756 91.363 21.6313 93.554 18.2695C95.4818 15.3063 98.445 11.7864 101.874 8.32634C106.456 3.7283 115.752 -4.31125 118.245 -1.84473C119.254 -0.844485 118.672 1.28021 116.481 4.64204C114.553 7.60522 111.59 11.1251 108.16 14.5851C104.595 18.1651 98.1785 23.8224 94.3325 24.9944ZM102.85 9.30465C99.4803 12.6894 96.5853 16.1493 94.7078 19.0217C92.5452 22.326 92.5818 23.6 92.7681 23.7803C93.4979 24.5101 99.2483 21.5807 107.184 13.6068C110.555 10.2221 113.45 6.76217 115.327 3.88975C117.49 0.58546 117.453 -0.688514 117.267 -0.868758C116.537 -1.59864 110.787 1.33077 102.85 9.30465Z" fill="black" fill-opacity="0.2"/>
<path d="M94.3325 24.9944C93.2277 25.324 92.3487 25.297 91.7898 24.7562C90.7806 23.756 91.363 21.6313 93.554 18.2695C95.4818 15.3063 98.445 11.7864 101.874 8.32634C106.456 3.7283 115.752 -4.31125 118.245 -1.84473C119.254 -0.844485 118.672 1.28021 116.481 4.64204C114.553 7.60522 111.59 11.1251 108.16 14.5851C104.595 18.1651 98.1785 23.8224 94.3325 24.9944ZM102.85 9.30465C99.4803 12.6894 96.5853 16.1493 94.7078 19.0217C92.5452 22.326 92.5818 23.6 92.7681 23.7803C93.4979 24.5101 99.2483 21.5807 107.184 13.6068C110.555 10.2221 113.45 6.76217 115.327 3.88975C117.49 0.58546 117.453 -0.688514 117.267 -0.868758C116.537 -1.59864 110.787 1.33077 102.85 9.30465Z" fill="black" fill-opacity="0.2"/>
<path d="M94.3325 24.9944C93.2277 25.324 92.3487 25.297 91.7898 24.7562C90.7806 23.756 91.363 21.6313 93.554 18.2695C95.4818 15.3063 98.445 11.7864 101.874 8.32634C106.456 3.7283 115.752 -4.31125 118.245 -1.84473C119.254 -0.844485 118.672 1.28021 116.481 4.64204C114.553 7.60522 111.59 11.1251 108.16 14.5851C104.595 18.1651 98.1785 23.8224 94.3325 24.9944ZM102.85 9.30465C99.4803 12.6894 96.5853 16.1493 94.7078 19.0217C92.5452 22.326 92.5818 23.6 92.7681 23.7803C93.4979 24.5101 99.2483 21.5807 107.184 13.6068C110.555 10.2221 113.45 6.76217 115.327 3.88975C117.49 0.58546 117.453 -0.688514 117.267 -0.868758C116.537 -1.59864 110.787 1.33077 102.85 9.30465Z" fill="black" fill-opacity="0.2"/>
<path d="M113.662 7.37913L121.873 6.8943C122.294 6.87697 122.7 6.72499 123.034 6.44969L133.545 -1.69465C135.16 -2.95611 134.199 -5.54648 132.154 -5.45568L126.604 -5.17039C126.286 -5.15131 125.949 -5.05927 125.671 -4.89905L118.043 -0.556846L113.653 7.3637L113.662 7.37913Z" fill="#FF8000"/>
<path d="M122.553 7.46784C122.341 7.5284 122.12 7.57356 121.897 7.57897L113.687 8.06379C113.433 8.087 113.194 7.95778 113.07 7.74193C112.945 7.52608 112.937 7.26334 113.051 7.03318L117.441 -0.887372C117.498 -1.00245 117.588 -1.0956 117.696 -1.15791L125.324 -5.50011C125.694 -5.71375 126.133 -5.84378 126.554 -5.86111L132.105 -6.14639C133.345 -6.20491 134.433 -5.4965 134.853 -4.34126C135.282 -3.17061 134.926 -1.93684 133.951 -1.16846L123.441 6.97587C123.174 7.19126 122.872 7.34497 122.55 7.42811L122.553 7.46784ZM114.853 6.62988L121.807 6.21248C122.086 6.19578 122.359 6.09961 122.588 5.92635L133.098 -2.21798C133.692 -2.68436 133.74 -3.34924 133.552 -3.81655C133.38 -4.29275 132.921 -4.76769 132.157 -4.73779L126.607 -4.45251C126.384 -4.4471 126.172 -4.38653 125.972 -4.27081L118.514 -0.0265309L114.829 6.62337L114.853 6.62988Z" fill="#161B26"/>
<path d="M122.553 7.46784C122.341 7.5284 122.12 7.57356 121.897 7.57897L113.687 8.06379C113.433 8.087 113.194 7.95778 113.07 7.74193C112.945 7.52608 112.937 7.26334 113.051 7.03318L117.441 -0.887372C117.498 -1.00245 117.588 -1.0956 117.696 -1.15791L125.324 -5.50011C125.694 -5.71375 126.133 -5.84378 126.554 -5.86111L132.105 -6.14639C133.345 -6.20491 134.433 -5.4965 134.853 -4.34126C135.282 -3.17061 134.926 -1.93684 133.951 -1.16846L123.441 6.97587C123.174 7.19126 122.872 7.34497 122.55 7.42811L122.553 7.46784ZM114.853 6.62988L121.807 6.21248C122.086 6.19578 122.359 6.09961 122.588 5.92635L133.098 -2.21798C133.692 -2.68436 133.74 -3.34924 133.552 -3.81655C133.38 -4.29275 132.921 -4.76769 132.157 -4.73779L126.607 -4.45251C126.384 -4.4471 126.172 -4.38653 125.972 -4.27081L118.514 -0.0265309L114.829 6.62337L114.853 6.62988Z" fill="black" fill-opacity="0.2"/>
<path d="M122.553 7.46784C122.341 7.5284 122.12 7.57356 121.897 7.57897L113.687 8.06379C113.433 8.087 113.194 7.95778 113.07 7.74193C112.945 7.52608 112.937 7.26334 113.051 7.03318L117.441 -0.887372C117.498 -1.00245 117.588 -1.0956 117.696 -1.15791L125.324 -5.50011C125.694 -5.71375 126.133 -5.84378 126.554 -5.86111L132.105 -6.14639C133.345 -6.20491 134.433 -5.4965 134.853 -4.34126C135.282 -3.17061 134.926 -1.93684 133.951 -1.16846L123.441 6.97587C123.174 7.19126 122.872 7.34497 122.55 7.42811L122.553 7.46784ZM114.853 6.62988L121.807 6.21248C122.086 6.19578 122.359 6.09961 122.588 5.92635L133.098 -2.21798C133.692 -2.68436 133.74 -3.34924 133.552 -3.81655C133.38 -4.29275 132.921 -4.76769 132.157 -4.73779L126.607 -4.45251C126.384 -4.4471 126.172 -4.38653 125.972 -4.27081L118.514 -0.0265309L114.829 6.62337L114.853 6.62988Z" fill="black" fill-opacity="0.2"/>
<path d="M122.553 7.46784C122.341 7.5284 122.12 7.57356 121.897 7.57897L113.687 8.06379C113.433 8.087 113.194 7.95778 113.07 7.74193C112.945 7.52608 112.937 7.26334 113.051 7.03318L117.441 -0.887372C117.498 -1.00245 117.588 -1.0956 117.696 -1.15791L125.324 -5.50011C125.694 -5.71375 126.133 -5.84378 126.554 -5.86111L132.105 -6.14639C133.345 -6.20491 134.433 -5.4965 134.853 -4.34126C135.282 -3.17061 134.926 -1.93684 133.951 -1.16846L123.441 6.97587C123.174 7.19126 122.872 7.34497 122.55 7.42811L122.553 7.46784ZM114.853 6.62988L121.807 6.21248C122.086 6.19578 122.359 6.09961 122.588 5.92635L133.098 -2.21798C133.692 -2.68436 133.74 -3.34924 133.552 -3.81655C133.38 -4.29275 132.921 -4.76769 132.157 -4.73779L126.607 -4.45251C126.384 -4.4471 126.172 -4.38653 125.972 -4.27081L118.514 -0.0265309L114.829 6.62337L114.853 6.62988Z" fill="black" fill-opacity="0.2"/>
<path d="M109.04 2.78978L109.48 -5.42012C109.503 -5.8442 109.662 -6.2446 109.921 -6.57919L118.014 -17.1308C119.272 -18.7616 121.873 -17.817 121.765 -15.7607L121.516 -10.2103C121.504 -9.87464 121.411 -9.57391 121.253 -9.27731L116.95 -1.63317L109.064 2.7963L109.04 2.78978Z" fill="#FF8000"/>
<path d="M109.24 3.45725C109.052 3.52433 108.851 3.49652 108.685 3.38685C108.47 3.26415 108.352 3.02397 108.369 2.76774L108.809 -5.44216C108.831 -6.00977 109.038 -6.54066 109.379 -6.98382L117.471 -17.5354C118.218 -18.5214 119.472 -18.8759 120.638 -18.4593C121.804 -18.0427 122.515 -16.9528 122.47 -15.7138L122.221 -10.1634C122.198 -9.73934 122.081 -9.3016 121.864 -8.92965L117.561 -1.28552C117.504 -1.17044 117.405 -1.09271 117.297 -1.0304L109.412 3.39907C109.412 3.39907 109.319 3.45248 109.288 3.47028L109.24 3.45725ZM119.246 -17.2032C119.003 -17.1249 118.757 -16.9824 118.55 -16.6989L110.458 -6.1473C110.28 -5.92127 110.184 -5.66027 110.17 -5.3643L109.79 1.59769L116.418 -2.12618L120.627 -9.6131C120.743 -9.80353 120.801 -10.0224 120.805 -10.23L121.054 -15.7804C121.088 -16.5401 120.598 -16.9973 120.125 -17.1762C119.864 -17.2722 119.535 -17.3083 119.222 -17.2097L119.246 -17.2032Z" fill="#161B26"/>
<path d="M109.24 3.45725C109.052 3.52433 108.851 3.49652 108.685 3.38685C108.47 3.26415 108.352 3.02397 108.369 2.76774L108.809 -5.44216C108.831 -6.00977 109.038 -6.54066 109.379 -6.98382L117.471 -17.5354C118.218 -18.5214 119.472 -18.8759 120.638 -18.4593C121.804 -18.0427 122.515 -16.9528 122.47 -15.7138L122.221 -10.1634C122.198 -9.73934 122.081 -9.3016 121.864 -8.92965L117.561 -1.28552C117.504 -1.17044 117.405 -1.09271 117.297 -1.0304L109.412 3.39907C109.412 3.39907 109.319 3.45248 109.288 3.47028L109.24 3.45725ZM119.246 -17.2032C119.003 -17.1249 118.757 -16.9824 118.55 -16.6989L110.458 -6.1473C110.28 -5.92127 110.184 -5.66027 110.17 -5.3643L109.79 1.59769L116.418 -2.12618L120.627 -9.6131C120.743 -9.80353 120.801 -10.0224 120.805 -10.23L121.054 -15.7804C121.088 -16.5401 120.598 -16.9973 120.125 -17.1762C119.864 -17.2722 119.535 -17.3083 119.222 -17.2097L119.246 -17.2032Z" fill="black" fill-opacity="0.2"/>
<path d="M109.24 3.45725C109.052 3.52433 108.851 3.49652 108.685 3.38685C108.47 3.26415 108.352 3.02397 108.369 2.76774L108.809 -5.44216C108.831 -6.00977 109.038 -6.54066 109.379 -6.98382L117.471 -17.5354C118.218 -18.5214 119.472 -18.8759 120.638 -18.4593C121.804 -18.0427 122.515 -16.9528 122.47 -15.7138L122.221 -10.1634C122.198 -9.73934 122.081 -9.3016 121.864 -8.92965L117.561 -1.28552C117.504 -1.17044 117.405 -1.09271 117.297 -1.0304L109.412 3.39907C109.412 3.39907 109.319 3.45248 109.288 3.47028L109.24 3.45725ZM119.246 -17.2032C119.003 -17.1249 118.757 -16.9824 118.55 -16.6989L110.458 -6.1473C110.28 -5.92127 110.184 -5.66027 110.17 -5.3643L109.79 1.59769L116.418 -2.12618L120.627 -9.6131C120.743 -9.80353 120.801 -10.0224 120.805 -10.23L121.054 -15.7804C121.088 -16.5401 120.598 -16.9973 120.125 -17.1762C119.864 -17.2722 119.535 -17.3083 119.222 -17.2097L119.246 -17.2032Z" fill="black" fill-opacity="0.2"/>
<path d="M109.24 3.45725C109.052 3.52433 108.851 3.49652 108.685 3.38685C108.47 3.26415 108.352 3.02397 108.369 2.76774L108.809 -5.44216C108.831 -6.00977 109.038 -6.54066 109.379 -6.98382L117.471 -17.5354C118.218 -18.5214 119.472 -18.8759 120.638 -18.4593C121.804 -18.0427 122.515 -16.9528 122.47 -15.7138L122.221 -10.1634C122.198 -9.73934 122.081 -9.3016 121.864 -8.92965L117.561 -1.28552C117.504 -1.17044 117.405 -1.09271 117.297 -1.0304L109.412 3.39907C109.412 3.39907 109.319 3.45248 109.288 3.47028L109.24 3.45725ZM119.246 -17.2032C119.003 -17.1249 118.757 -16.9824 118.55 -16.6989L110.458 -6.1473C110.28 -5.92127 110.184 -5.66027 110.17 -5.3643L109.79 1.59769L116.418 -2.12618L120.627 -9.6131C120.743 -9.80353 120.801 -10.0224 120.805 -10.23L121.054 -15.7804C121.088 -16.5401 120.598 -16.9973 120.125 -17.1762C119.864 -17.2722 119.535 -17.3083 119.222 -17.2097L119.246 -17.2032Z" fill="black" fill-opacity="0.2"/>
<path d="M111.189 2.84432C111.851 2.17449 126.919 -11.8905 127.589 -11.2288C128.258 -10.5671 114.253 4.59063 113.598 5.23613C112.943 5.88164 111.867 5.9063 111.197 5.24461C110.528 4.58292 110.527 3.51415 111.189 2.84432Z" fill="#FF8000"/>
<path d="M113.097 6.32844C112.87 6.39791 112.64 6.42763 112.402 6.44194C111.764 6.44037 111.166 6.18909 110.709 5.75389C109.784 4.82835 109.773 3.31356 110.699 2.38862C111.059 2.01603 115.009 -1.68265 118.93 -5.18027C127.196 -12.5837 127.502 -12.2671 128.079 -11.6955C128.647 -11.1394 128.953 -10.8227 121.619 -2.51809C118.13 1.4082 114.459 5.37726 114.099 5.74984C113.813 6.03818 113.474 6.23402 113.106 6.34386L113.097 6.32844ZM111.681 3.34261C111.29 3.733 111.288 4.37118 111.688 4.77792C111.883 4.97358 112.128 5.07848 112.407 5.06178C112.678 5.06941 112.927 4.96672 113.123 4.77153C113.89 3.99965 121.564 -4.35729 125.137 -8.74327C120.783 -5.13994 112.464 2.56183 111.681 3.34261ZM86.5288 30.9182C86.3017 30.9877 86.0277 30.9403 85.8325 30.7447C85.553 30.4743 85.5665 30.0348 85.8304 29.7797L91.788 23.791C92.0584 23.5115 92.4979 23.525 92.753 23.7889C93.0324 24.0592 93.0189 24.4987 92.7551 24.7539L86.7975 30.7426C86.7228 30.8268 86.6148 30.8891 86.5045 30.9117L86.5288 30.9182Z" fill="#161B26"/>
<path d="M113.097 6.32844C112.87 6.39791 112.64 6.42763 112.402 6.44194C111.764 6.44037 111.166 6.18909 110.709 5.75389C109.784 4.82835 109.773 3.31356 110.699 2.38862C111.059 2.01603 115.009 -1.68265 118.93 -5.18027C127.196 -12.5837 127.502 -12.2671 128.079 -11.6955C128.647 -11.1394 128.953 -10.8227 121.619 -2.51809C118.13 1.4082 114.459 5.37726 114.099 5.74984C113.813 6.03818 113.474 6.23402 113.106 6.34386L113.097 6.32844ZM111.681 3.34261C111.29 3.733 111.288 4.37118 111.688 4.77792C111.883 4.97358 112.128 5.07848 112.407 5.06178C112.678 5.06941 112.927 4.96672 113.123 4.77153C113.89 3.99965 121.564 -4.35729 125.137 -8.74327C120.783 -5.13994 112.464 2.56183 111.681 3.34261ZM86.5288 30.9182C86.3017 30.9877 86.0277 30.9403 85.8325 30.7447C85.553 30.4743 85.5665 30.0348 85.8304 29.7797L91.788 23.791C92.0584 23.5115 92.4979 23.525 92.753 23.7889C93.0324 24.0592 93.0189 24.4987 92.7551 24.7539L86.7975 30.7426C86.7228 30.8268 86.6148 30.8891 86.5045 30.9117L86.5288 30.9182Z" fill="black" fill-opacity="0.2"/>
<path d="M113.097 6.32844C112.87 6.39791 112.64 6.42763 112.402 6.44194C111.764 6.44037 111.166 6.18909 110.709 5.75389C109.784 4.82835 109.773 3.31356 110.699 2.38862C111.059 2.01603 115.009 -1.68265 118.93 -5.18027C127.196 -12.5837 127.502 -12.2671 128.079 -11.6955C128.647 -11.1394 128.953 -10.8227 121.619 -2.51809C118.13 1.4082 114.459 5.37726 114.099 5.74984C113.813 6.03818 113.474 6.23402 113.106 6.34386L113.097 6.32844ZM111.681 3.34261C111.29 3.733 111.288 4.37118 111.688 4.77792C111.883 4.97358 112.128 5.07848 112.407 5.06178C112.678 5.06941 112.927 4.96672 113.123 4.77153C113.89 3.99965 121.564 -4.35729 125.137 -8.74327C120.783 -5.13994 112.464 2.56183 111.681 3.34261ZM86.5288 30.9182C86.3017 30.9877 86.0277 30.9403 85.8325 30.7447C85.553 30.4743 85.5665 30.0348 85.8304 29.7797L91.788 23.791C92.0584 23.5115 92.4979 23.525 92.753 23.7889C93.0324 24.0592 93.0189 24.4987 92.7551 24.7539L86.7975 30.7426C86.7228 30.8268 86.6148 30.8891 86.5045 30.9117L86.5288 30.9182Z" fill="black" fill-opacity="0.2"/>
<path d="M113.097 6.32844C112.87 6.39791 112.64 6.42763 112.402 6.44194C111.764 6.44037 111.166 6.18909 110.709 5.75389C109.784 4.82835 109.773 3.31356 110.699 2.38862C111.059 2.01603 115.009 -1.68265 118.93 -5.18027C127.196 -12.5837 127.502 -12.2671 128.079 -11.6955C128.647 -11.1394 128.953 -10.8227 121.619 -2.51809C118.13 1.4082 114.459 5.37726 114.099 5.74984C113.813 6.03818 113.474 6.23402 113.106 6.34386L113.097 6.32844ZM111.681 3.34261C111.29 3.733 111.288 4.37118 111.688 4.77792C111.883 4.97358 112.128 5.07848 112.407 5.06178C112.678 5.06941 112.927 4.96672 113.123 4.77153C113.89 3.99965 121.564 -4.35729 125.137 -8.74327C120.783 -5.13994 112.464 2.56183 111.681 3.34261ZM86.5288 30.9182C86.3017 30.9877 86.0277 30.9403 85.8325 30.7447C85.553 30.4743 85.5665 30.0348 85.8304 29.7797L91.788 23.791C92.0584 23.5115 92.4979 23.525 92.753 23.7889C93.0324 24.0592 93.0189 24.4987 92.7551 24.7539L86.7975 30.7426C86.7228 30.8268 86.6148 30.8891 86.5045 30.9117L86.5288 30.9182Z" fill="black" fill-opacity="0.2"/>
</g>
<defs>
<clipPath id="clip0_115_5548">
<rect width="124" height="118.54" fill="white" transform="translate(0 10) rotate(-30)"/>
</clipPath>
</defs>
</svg>
