<svg width="122" height="96" viewBox="0 0 122 96" fill="none" xmlns="http://www.w3.org/2000/svg">
<path d="M17.7365 71.6265L13.984 74.0787C12.7014 74.9168 10.9822 74.5565 10.1441 73.2739L9.2862 71.9611C8.44805 70.6785 8.80835 68.9593 10.0909 68.1212L13.8435 65.669C15.1261 64.8309 16.8453 65.1912 17.6834 66.4738L18.5413 67.7865C19.3794 69.0691 19.0191 70.7883 17.7365 71.6265Z" fill="black"/>
<path d="M86.811 28.1283C69.9127 42.4074 66.8491 45.1125 62.3438 48.1469C51.873 55.2181 38.9935 59.4627 31.4076 69.5643C29.4359 72.1965 27.8429 75.1979 25.2981 77.2861C22.7435 79.3647 18.596 81.5405 17.3334 78.5003C9.96961 60.8079 13.711 39.7269 24.6279 26.0983C24.8707 26.04 25.1233 26.0108 25.3952 25.9914C27.2116 25.8555 34.0107 24.787 30.2421 21.6594C33.4765 21.6497 33.8553 19.8236 32.9617 18.0461C43.3689 10.2975 58.8589 6.31505 73.3778 9.4598C80.5072 11.0139 87.4229 14.1998 92.4931 19.4448C93.1828 22.9609 89.5501 25.8263 86.811 28.1283Z" fill="#008080"/>
<path d="M32.6411 14.4326C31.8702 14.8671 31.2204 15.1285 30.4265 15.3553C30.174 15.2097 29.9117 15.0737 29.6494 14.9765C30.6905 15.0272 31.7668 14.8073 32.6411 14.4326Z" fill="black"/>
<path d="M34.9628 12.6744C34.8171 12.82 34.6714 12.9657 34.5063 13.1114C34.652 12.9269 34.7588 12.7229 34.8268 12.5092C35.1377 11.6059 34.7394 10.5375 33.1465 9.43017C34.04 8.99741 34.9542 8.64584 35.4776 7.71094C35.8759 7.85666 36.1964 8.08976 36.4101 8.41031C37.09 9.45934 36.4586 11.1591 34.9628 12.6744Z" fill="black"/>
<path d="M63.2545 59.645C83.9437 42.8175 97.1614 24.8062 92.777 19.4156C88.3926 14.025 68.0664 23.2965 47.3772 40.1239C26.6879 56.9514 13.4703 74.9627 17.8547 80.3533C22.2391 85.7439 42.5653 76.4725 63.2545 59.645Z" fill="black"/>
<path d="M121.03 84.439C121.349 88.9537 95.7441 92.3754 70.4412 94.1662C45.1383 95.957 24.3672 93.7488 24.0477 89.2341C23.7282 84.7194 43.9812 79.6078 69.2841 77.8171C94.587 76.0263 120.71 79.9243 121.03 84.439Z" fill="#FFE6CC"/>
<path d="M53.437 95.0369C48.0253 95.0369 24.1354 94.6748 23.7524 89.255C23.6651 88.0234 24.8878 86.767 27.3867 85.5206C27.5072 85.4609 27.6528 85.5097 27.7126 85.6292C27.7723 85.7497 27.724 85.8953 27.604 85.9551C25.3298 87.089 24.166 88.2183 24.2371 89.2209C24.3799 91.2437 29.3412 92.9226 37.8482 93.827C55.9502 95.7523 84.9085 93.7016 102.555 89.2475C102.859 89.1651 102.991 89.6381 102.674 89.7179C88.3872 93.3246 68.4645 95.0369 53.437 95.0369Z" fill="black"/>
<path d="M37.1674 15.2877C37.07 15.3517 32.6405 18.2607 32.9227 18.0754C32.8576 17.9747 30.7502 14.7132 30.883 14.9186C31.4852 14.8312 32.0971 14.6661 32.641 14.433C32.6508 14.4427 32.6702 14.433 32.6799 14.4135C33.4472 14.1027 34.1077 13.6559 34.5059 13.112C34.6516 12.9274 34.7585 12.7235 34.8265 12.5098L34.9625 12.6749L37.1674 15.2877Z" fill="black"/>
<path d="M16.8022 28.3143C10.3222 25.5298 8.14211 21.5245 5.02797 18.7625C4.78844 18.5491 5.10907 18.185 5.35047 18.3992C8.65019 21.3266 10.4965 25.0755 16.9938 27.8685C17.1171 27.9211 17.174 28.0639 17.1209 28.1872C17.067 28.3133 16.9212 28.3666 16.8022 28.3143Z" fill="black"/>
<path d="M17.9202 31.8856C19.9934 28.8832 21.4211 26.0345 25.3772 25.7495C27.0566 25.6238 30.661 24.9399 31.0793 23.6304C31.2401 23.1268 30.9062 22.5268 30.0867 21.8467C29.9121 21.7016 30.0149 21.4181 30.2408 21.417C31.5982 21.4132 32.523 21.0741 32.9147 20.4362C33.5653 19.3775 32.6716 17.7567 31.8396 16.8403C31.3995 16.3347 30.8697 15.8955 30.3039 15.5659C30.0188 15.4009 29.7836 15.2861 29.565 15.205C29.4526 15.1633 29.3876 15.0461 29.4113 14.9285C29.4355 14.8114 29.5455 14.7231 29.6612 14.735C30.0468 14.7559 30.4471 14.7355 30.8493 14.6786C31.4445 14.5922 32.0317 14.43 32.5448 14.21C32.5472 14.209 32.5496 14.2081 32.5519 14.2071C32.5633 14.2 32.5756 14.1939 32.5884 14.1886C33.3478 13.8813 33.9591 13.4483 34.3101 12.9688C34.44 12.8038 34.5339 12.6273 34.5946 12.4367C34.9859 11.2999 33.9472 10.284 33.0072 9.63043C32.8558 9.52646 32.8718 9.2946 33.04 9.21259L33.3259 9.07648C34.1336 8.69564 35.1025 8.22024 35.3909 7.29085C35.5119 6.90669 35.4327 6.52585 35.1358 6.05395C31.6582 0.590695 23.904 0.0417935 18.8161 3.7414C14.0932 8.48212 10.2605 15.1854 5.52038 20.6245C5.30923 20.8673 4.94312 20.5476 5.15424 20.3058C9.73672 15.0471 13.7755 8.10953 18.5016 3.37337C23.8004 -0.500256 31.8842 0.0434847 35.546 5.79405C35.9657 6.46016 36.0846 7.10549 35.6902 7.82867C35.5389 8.09853 35.344 8.34468 35.1248 8.54292C34.6952 8.95601 34.1512 9.2235 33.6176 9.47581C35.2458 10.7341 35.3089 11.8538 35.0556 12.5894C34.9792 12.8303 34.8578 13.0589 34.6966 13.2629C33.8709 14.3909 32.0254 15.056 30.6283 15.1936C33.6965 17.0446 35.3604 21.5208 30.8403 21.879C31.4953 22.5486 31.731 23.186 31.5417 23.7779C30.865 25.8981 25.1582 26.222 24.6838 26.3347C21.4977 26.8839 20.1966 29.4408 18.3195 32.1616C18.1378 32.4259 17.7373 32.1503 17.9202 31.8856Z" fill="black"/>
<path d="M33.0084 9.6283C30.2211 7.73406 26.6873 7.11466 23.7847 8.01293C23.4847 8.11145 23.33 7.64487 23.6415 7.54909C26.6811 6.60814 30.3747 7.25125 33.2815 9.22659C33.3925 9.30153 33.421 9.45282 33.346 9.5638C33.2702 9.67448 33.1202 9.7033 33.0084 9.6283Z" fill="black"/>
<path d="M29.5334 15.1923C27.5993 14.1617 25.4756 13.9255 23.3945 14.5079C23.0814 14.5927 22.9567 14.126 23.2636 14.0403C25.4371 13.4328 27.7449 13.6889 29.762 14.7636C29.8801 14.8266 29.9252 14.9737 29.8621 15.0922C29.7987 15.2114 29.6508 15.2548 29.5334 15.1923Z" fill="black"/>
<path d="M30.1534 21.8861C28.1397 21.1183 25.3619 20.82 23.2414 21.1382C22.9309 21.1909 22.8459 20.7068 23.1684 20.6583C25.3643 20.3253 28.2412 20.6369 30.3261 21.4327C30.4518 21.4802 30.5144 21.6206 30.4665 21.7458C30.4196 21.8706 30.2791 21.9343 30.1534 21.8861Z" fill="black"/>
<path d="M13.9071 25.0438C18.9049 29.5614 21.0092 29.9074 21.6934 31.3737C22.212 32.485 21.4418 32.8888 20.8567 33.5755C19.8997 34.6984 19.3343 35.9976 18.1968 37.023C16.3594 38.6793 15.1281 38.3682 13.0555 37.0168C8.99186 34.3672 4.88032 31.5048 2.27606 27.4119C-0.0516163 23.7537 1.72443 22.4522 3.04372 20.6146C3.61614 19.8173 4.30624 18.7333 5.25874 18.3667C6.05842 18.0589 6.9841 18.2973 7.70122 18.7663C9.05301 19.6504 9.94178 21.4596 13.9071 25.0438Z" fill="black"/>
<path d="M15.5531 28.1805C10.7004 25.0463 7.36874 18.3043 5.53597 18.3944C4.74699 18.4269 4.39899 19.02 1.38468 22.0743C1.29077 22.1706 1.13711 22.1729 1.04131 22.079C0.94503 21.9851 0.943133 21.8314 1.03656 21.7356L3.73801 18.965C5.9956 16.6502 7.03739 18.3947 9.74134 21.7148C11.545 23.9291 13.4098 26.2185 15.8167 27.7726C15.9292 27.8452 15.9619 27.9955 15.8888 28.1084C15.8152 28.2218 15.6642 28.2529 15.5531 28.1805Z" fill="black"/>
</svg>
