<svg width="33" height="33" viewBox="0 0 33 33" fill="none" xmlns="http://www.w3.org/2000/svg">
<path fill-rule="evenodd" clip-rule="evenodd" d="M3.16699 16.4993C3.16699 9.14068 9.14033 3.16602 16.5003 3.16602C23.8737 3.16602 29.8337 9.14068 29.8337 16.4993C29.8337 23.8607 23.8737 29.8327 16.5003 29.8327C9.14033 29.8327 3.16699 23.8607 3.16699 16.4993ZM15.327 11.446C15.327 10.8073 15.8603 10.2727 16.5003 10.2727C17.1403 10.2727 17.6603 10.8073 17.6603 11.446V17.3393C17.6603 17.9807 17.1403 18.4993 16.5003 18.4993C15.8603 18.4993 15.327 17.9807 15.327 17.3393V11.446ZM16.5137 22.7407C15.8603 22.7407 15.3403 22.2073 15.3403 21.5673C15.3403 20.9273 15.8603 20.4073 16.5003 20.4073C17.1537 20.4073 17.6737 20.9273 17.6737 21.5673C17.6737 22.2073 17.1537 22.7407 16.5137 22.7407Z" fill="#CCE6E6"/>
</svg>
