<svg width="32" height="33" viewBox="0 0 32 33" fill="none" xmlns="http://www.w3.org/2000/svg">
<rect y="0.5" width="32" height="32" rx="16" fill="#FFE6CC"/>
<path fill-rule="evenodd" clip-rule="evenodd" d="M20.4711 14.3639C20.4711 15.2012 20.6924 15.6947 21.1793 16.2634C21.5484 16.6824 21.6663 17.2202 21.6663 17.8037C21.6663 18.3865 21.4749 18.9398 21.0912 19.389C20.589 19.9275 19.8807 20.2712 19.1578 20.331C18.1103 20.4203 17.0621 20.4955 16 20.4955C14.9372 20.4955 13.8897 20.4505 12.8422 20.331C12.1186 20.2712 11.4104 19.9275 10.9088 19.389C10.5252 18.9398 10.333 18.3865 10.333 17.8037C10.333 17.2202 10.4516 16.6824 10.82 16.2634C11.3222 15.6947 11.529 15.2012 11.529 14.3639V14.0799C11.529 12.9586 11.8086 12.2254 12.3843 11.5076C13.2404 10.4608 14.6126 9.83301 15.9702 9.83301H16.0298C17.4166 9.83301 18.8332 10.491 19.6746 11.5828C20.2206 12.2858 20.4711 12.9881 20.4711 14.0799V14.3639ZM14.0488 21.8736C14.0488 21.5378 14.3569 21.3841 14.6418 21.3183C14.9751 21.2478 17.0059 21.2478 17.3391 21.3183C17.624 21.3841 17.9321 21.5378 17.9321 21.8736C17.9156 22.1932 17.7281 22.4765 17.469 22.6565C17.1331 22.9183 16.7388 23.0842 16.3267 23.1439C16.0988 23.1735 15.8748 23.1741 15.6549 23.1439C15.2421 23.0842 14.8479 22.9183 14.5126 22.6558C14.2529 22.4765 14.0654 22.1932 14.0488 21.8736Z" fill="#130F26"/>
</svg>
