<svg width="32" height="32" viewBox="0 0 32 32" fill="none" xmlns="http://www.w3.org/2000/svg">
<rect width="32" height="32" rx="16" transform="matrix(-1 0 0 1 32 0)" fill="#FFD5AA"/>
<path fill-rule="evenodd" clip-rule="evenodd" d="M14.9407 15.9995L18.0655 12.8863C18.2513 12.7012 18.2513 12.4002 18.0655 12.215C17.8806 12.0309 17.5815 12.0309 17.3967 12.215L13.5981 15.9995L17.3967 19.784C17.5815 19.9682 17.8806 19.9682 18.0655 19.784C18.2513 19.5989 18.2513 19.2979 18.0655 19.1128L14.9407 15.9995Z" fill="#161B26"/>
<path fill-rule="evenodd" clip-rule="evenodd" d="M14.9407 15.9995L18.0655 12.8863C18.2513 12.7012 18.2513 12.4002 18.0655 12.215C17.8806 12.0309 17.5815 12.0309 17.3967 12.215L13.5981 15.9995L17.3967 19.784C17.5815 19.9682 17.8806 19.9682 18.0655 19.784C18.2513 19.5989 18.2513 19.2979 18.0655 19.1128L14.9407 15.9995Z" fill="black" fill-opacity="0.2"/>
<path fill-rule="evenodd" clip-rule="evenodd" d="M14.9407 15.9995L18.0655 12.8863C18.2513 12.7012 18.2513 12.4002 18.0655 12.215C17.8806 12.0309 17.5815 12.0309 17.3967 12.215L13.5981 15.9995L17.3967 19.784C17.5815 19.9682 17.8806 19.9682 18.0655 19.784C18.2513 19.5989 18.2513 19.2979 18.0655 19.1128L14.9407 15.9995Z" fill="black" fill-opacity="0.2"/>
<path fill-rule="evenodd" clip-rule="evenodd" d="M14.9407 15.9995L18.0655 12.8863C18.2513 12.7012 18.2513 12.4002 18.0655 12.215C17.8806 12.0309 17.5815 12.0309 17.3967 12.215L13.5981 15.9995L17.3967 19.784C17.5815 19.9682 17.8806 19.9682 18.0655 19.784C18.2513 19.5989 18.2513 19.2979 18.0655 19.1128L14.9407 15.9995Z" fill="black" fill-opacity="0.2"/>
<path fill-rule="evenodd" clip-rule="evenodd" d="M14.9407 15.9995L18.0655 12.8863C18.2513 12.7012 18.2513 12.4002 18.0655 12.215C17.8806 12.0309 17.5815 12.0309 17.3967 12.215L13.5981 15.9995L17.3967 19.784C17.5815 19.9682 17.8806 19.9682 18.0655 19.784C18.2513 19.5989 18.2513 19.2979 18.0655 19.1128L14.9407 15.9995Z" stroke="#161B26" stroke-width="0.5"/>
<path fill-rule="evenodd" clip-rule="evenodd" d="M14.9407 15.9995L18.0655 12.8863C18.2513 12.7012 18.2513 12.4002 18.0655 12.215C17.8806 12.0309 17.5815 12.0309 17.3967 12.215L13.5981 15.9995L17.3967 19.784C17.5815 19.9682 17.8806 19.9682 18.0655 19.784C18.2513 19.5989 18.2513 19.2979 18.0655 19.1128L14.9407 15.9995Z" stroke="black" stroke-opacity="0.2" stroke-width="0.5"/>
<path fill-rule="evenodd" clip-rule="evenodd" d="M14.9407 15.9995L18.0655 12.8863C18.2513 12.7012 18.2513 12.4002 18.0655 12.215C17.8806 12.0309 17.5815 12.0309 17.3967 12.215L13.5981 15.9995L17.3967 19.784C17.5815 19.9682 17.8806 19.9682 18.0655 19.784C18.2513 19.5989 18.2513 19.2979 18.0655 19.1128L14.9407 15.9995Z" stroke="black" stroke-opacity="0.2" stroke-width="0.5"/>
<path fill-rule="evenodd" clip-rule="evenodd" d="M14.9407 15.9995L18.0655 12.8863C18.2513 12.7012 18.2513 12.4002 18.0655 12.215C17.8806 12.0309 17.5815 12.0309 17.3967 12.215L13.5981 15.9995L17.3967 19.784C17.5815 19.9682 17.8806 19.9682 18.0655 19.784C18.2513 19.5989 18.2513 19.2979 18.0655 19.1128L14.9407 15.9995Z" stroke="black" stroke-opacity="0.2" stroke-width="0.5"/>
</svg>
