<svg width="139" height="73" viewBox="0 0 139 73" fill="none" xmlns="http://www.w3.org/2000/svg">
<g opacity="0.2" clip-path="url(#clip0_113_2680)">
<path d="M84.8575 13.4712L6.11131 45.3304C2.97505 46.5993 1.46124 50.1704 2.73011 53.3066L34.5893 132.053C35.8582 135.189 39.4292 136.703 42.5655 135.434L121.312 103.575C124.448 102.306 125.962 98.7349 124.693 95.5986L92.8337 16.8524C91.5648 13.7162 87.9938 12.2024 84.8575 13.4712Z" fill="#0C111D"/>
<path d="M121.431 103.887L42.6906 135.744C39.3899 137.079 35.6149 135.479 34.2795 132.179L2.42276 53.4385C1.08736 50.1378 2.68762 46.3628 5.98833 45.0274L84.7283 13.1707C88.029 11.8353 91.804 13.4356 93.1394 16.7363L124.996 95.4763C126.332 98.777 124.731 102.552 121.431 103.887ZM6.23636 45.6405C3.27626 46.8381 1.84193 50.2217 3.03953 53.1818L34.8962 131.922C36.0938 134.882 39.4774 136.316 42.4375 135.119L121.178 103.262C124.138 102.064 125.572 98.6807 124.374 95.7206L92.5177 16.9806C91.3201 14.0205 87.9365 12.5862 84.9764 13.7838L6.23636 45.6405Z" fill="#0C111D"/>
<path d="M109.089 3.66751L30.3428 35.5267C27.2065 36.7956 25.6927 40.3667 26.9616 43.5029L58.8208 122.249C60.0896 125.385 63.6607 126.899 66.797 125.63L145.543 93.7711C148.679 92.5022 150.193 88.9312 148.924 85.7949L117.065 7.04873C115.796 3.91247 112.225 2.39864 109.089 3.66751Z" fill="#008080"/>
<path d="M145.663 94.0837L66.923 125.94C63.6223 127.276 59.8473 125.676 58.5119 122.375L26.6552 43.6348C25.3198 40.3341 26.9201 36.5591 30.2208 35.2237L108.961 3.36701C112.261 2.03161 116.036 3.63188 117.372 6.93258L149.229 85.6726C150.564 88.9733 148.964 92.7483 145.663 94.0837ZM30.4688 35.8368C27.5087 37.0344 26.0743 40.418 27.2719 43.3781L59.1287 122.118C60.3263 125.078 63.7098 126.513 66.6699 125.315L145.41 93.4582C148.37 92.2606 149.804 88.877 148.607 85.9169L116.75 7.17694C115.552 4.21683 112.169 2.78248 109.209 3.98008L30.4688 35.8368Z" fill="#0C111D"/>
<path d="M107.193 13.3921L38.4608 41.2C36.8089 41.8684 36.0115 43.7493 36.6799 45.4012L64.4878 114.134C65.1561 115.786 67.037 116.583 68.689 115.915L137.422 88.1069C139.074 87.4385 139.871 85.5576 139.203 83.9057L111.395 15.1731C110.726 13.5211 108.845 12.7238 107.193 13.3921Z" fill="#55AAAA"/>
<path d="M137.544 88.4104L68.8116 116.218C66.991 116.955 64.9121 116.074 64.1755 114.253L36.3676 45.5204C35.631 43.6998 36.5123 41.6209 38.3329 40.8843L107.066 13.0764C108.886 12.3398 110.965 13.2211 111.702 15.0417L139.51 83.7743C140.246 85.595 139.365 87.6738 137.544 88.4104ZM38.5835 41.5036C37.1034 42.1024 36.3881 43.7898 36.9869 45.2699L64.7948 114.003C65.3936 115.483 67.081 116.198 68.5611 115.599L137.294 87.7912C138.774 87.1924 139.489 85.5049 138.89 84.0249L111.082 15.2923C110.484 13.8122 108.796 13.0969 107.316 13.6957L38.5835 41.5036Z" fill="#0C111D"/>
<path d="M41.5666 50.2483L36.5505 52.2777C35.6818 52.6291 35.2625 53.6183 35.6139 54.487L42.0429 70.3774C42.3944 71.2461 43.3835 71.6655 44.2522 71.314L49.2683 69.2846C50.137 68.9331 50.5563 67.944 50.2048 67.0753L43.7759 51.1848C43.4244 50.3161 42.4353 49.8968 41.5666 50.2483Z" fill="#FAFAFA"/>
<path d="M49.3906 69.6034L44.3808 71.6303C43.3404 72.0512 42.1549 71.5435 41.7365 70.5093L35.3076 54.6189C34.8866 53.5785 35.3943 52.3931 36.4285 51.9747L41.4384 49.9478C42.4787 49.5269 43.6642 50.0345 44.0826 51.0687L50.5116 66.9591C50.9325 67.9995 50.4248 69.1849 49.3906 69.6034ZM36.679 52.5939C35.9792 52.8771 35.6462 53.6748 35.9268 54.3684L42.3558 70.2588C42.6389 70.9586 43.4366 71.2916 44.1302 71.011L49.1401 68.9841C49.8399 68.701 50.1729 67.9032 49.8923 67.2097L43.4633 51.3192C43.1802 50.6195 42.3825 50.2864 41.6889 50.567L36.679 52.5939Z" fill="#0C111D"/>
<path d="M105.601 76.0899C114.428 72.5186 118.689 62.4674 115.118 53.6401C111.546 44.8127 101.495 40.5519 92.6679 44.1233C83.8406 47.6947 79.5797 57.7458 83.1511 66.5732C86.7225 75.4005 96.7737 79.6613 105.601 76.0899Z" fill="#008080"/>
<path d="M105.727 76.4003C96.741 80.0357 86.4772 75.6848 82.8418 66.6992C79.2064 57.7136 83.5574 47.4498 92.543 43.8144C101.529 40.179 111.792 44.53 115.428 53.5156C119.063 62.5011 114.712 72.7649 105.727 76.4003ZM92.791 44.4275C84.146 47.9251 79.9635 57.8037 83.4586 66.4425C86.9537 75.0813 96.8348 79.27 105.474 75.7749C114.112 72.2798 118.301 62.3987 114.806 53.7599C111.311 45.1211 101.43 40.9324 92.791 44.4275Z" fill="#0C111D"/>
<path d="M103.467 70.8138C109.38 68.4214 112.234 61.6882 109.842 55.7748C107.449 49.8614 100.716 47.0071 94.8029 49.3995C88.8895 51.792 86.0352 58.5252 88.4276 64.4386C90.8201 70.352 97.5533 73.2063 103.467 70.8138Z" fill="#55AAAA"/>
<path d="M103.592 71.1242C97.5173 73.5821 90.5762 70.6397 88.1183 64.5646C85.6605 58.4896 88.6029 51.5485 94.6779 49.0907C100.753 46.6328 107.694 49.5753 110.152 55.6503C112.61 61.7253 109.667 68.6664 103.592 71.1242ZM94.9285 49.7099C89.194 52.03 86.4175 58.5797 88.7376 64.3141C91.0576 70.0485 97.6073 72.825 103.342 70.505C109.076 68.1849 111.853 61.6353 109.533 55.9008C107.213 50.1664 100.663 47.3899 94.9285 49.7099Z" fill="#0C111D"/>
<path d="M102.394 62.5718C101.96 61.4979 100.738 60.979 99.666 61.4128C98.5938 61.8466 98.0768 63.0688 98.5113 64.1427L104.091 77.9339C104.525 79.0078 105.747 79.5267 106.819 79.0929C107.891 78.6591 108.408 77.4369 107.974 76.3629L102.394 62.5718Z" fill="#FAFAFA"/>
<path d="M106.939 79.3972C105.694 79.9008 104.276 79.2997 103.773 78.055L98.1932 64.2639C97.6896 63.0192 98.2907 61.6014 99.5354 61.0978C100.78 60.5942 102.198 61.1952 102.702 62.4399L108.281 76.2311C108.785 77.4758 108.184 78.8936 106.939 79.3972ZM99.7859 61.7171C98.888 62.0803 98.4467 63.1092 98.8125 64.0134L104.392 77.8045C104.755 78.7024 105.784 79.1437 106.688 78.7779C107.593 78.4121 108.028 77.3857 107.662 76.4816L102.082 62.6905C101.719 61.7925 100.69 61.3513 99.7859 61.7171Z" fill="#0C111D"/>
<path d="M101.294 65.4452C104.242 64.2524 105.665 60.8956 104.473 57.9474C103.28 54.9993 99.923 53.5763 96.9748 54.769C94.0267 55.9618 92.6036 59.3187 93.7964 62.2668C94.9892 65.215 98.3461 66.638 101.294 65.4452Z" fill="#FAFAFA"/>
<path d="M101.42 65.7546C98.3049 67.0149 94.7474 65.5068 93.4871 62.3919C92.2269 59.277 93.735 55.7194 96.8499 54.4592C99.9648 53.1989 103.522 54.707 104.783 57.8219C106.043 60.9369 104.535 64.4944 101.42 65.7546ZM97.0979 55.0723C94.3236 56.1947 92.9814 59.3608 94.1039 62.1351C95.2263 64.9095 98.3924 66.2516 101.167 65.1292C103.941 64.0067 105.283 60.8406 104.161 58.0663C103.038 55.292 99.8722 53.9498 97.0979 55.0723Z" fill="#0C111D"/>
</g>
<defs>
<clipPath id="clip0_113_2680">
<rect width="124" height="97.8599" fill="white" transform="translate(0 47.4502) rotate(-22.0273)"/>
</clipPath>
</defs>
</svg>
