<svg width="124" height="133" viewBox="0 0 124 133" fill="none" xmlns="http://www.w3.org/2000/svg">
<g opacity="0.5" clip-path="url(#clip0_134_14004)">
<path d="M92.9564 52.565C96.9878 47.6771 100.677 46.5008 105.399 47.7627C110.121 49.0247 110.755 56.585 112.171 59.6514C113.587 62.7234 117.762 64.0596 116.111 67.0518C114.455 70.0439 105.639 69.57 101.305 67.0518C96.9707 64.5336 95.4004 60.2795 95.4004 60.2795C95.4004 60.2795 89.2562 57.0532 92.9564 52.5593V52.565Z" fill="#FFA555"/>
<path d="M110.076 69.4094C106.969 69.4094 103.446 68.6328 101.156 67.2966C97.1079 64.9383 95.4405 61.1582 95.1664 60.4787C94.6239 60.176 92.0429 58.6057 91.5576 56.2131C91.3006 54.9284 91.6946 53.6378 92.7339 52.3759C96.6625 47.6079 100.471 46.1461 105.468 47.4765C109.122 48.453 110.39 52.8841 111.412 56.4473C111.749 57.6293 112.069 58.7428 112.428 59.5251C112.937 60.6328 113.822 61.5065 114.678 62.3459C116.129 63.7734 117.493 65.1268 116.357 67.1824C115.906 67.999 114.981 68.6043 113.616 68.9869C112.588 69.2724 111.366 69.4037 110.076 69.4037V69.4094ZM102.11 47.5736C98.8324 47.5736 96.0857 49.2067 93.1735 52.7413C92.2485 53.8605 91.8945 54.9912 92.1172 56.0989C92.5911 58.4572 95.4976 60.0104 95.5261 60.0218C95.589 60.0561 95.6346 60.1075 95.6632 60.176C95.6803 60.216 97.2563 64.3673 101.448 66.7998C104.577 68.6214 110.081 69.3694 113.468 68.4387C114.667 68.1075 115.495 67.5821 115.86 66.9083C116.791 65.2295 115.683 64.1389 114.278 62.7513C113.428 61.9119 112.468 60.964 111.909 59.7592C111.532 58.9426 111.206 57.8063 110.864 56.6014C109.882 53.1753 108.665 48.9155 105.325 48.0247C104.189 47.7221 103.126 47.5679 102.116 47.5679L102.11 47.5736Z" fill="#0C111D"/>
<path d="M95.3948 60.5643C95.2749 60.5643 95.1606 60.4843 95.1207 60.3644C94.4069 58.0975 94.7895 55.7106 94.8066 55.6078C94.8294 55.4536 94.9779 55.3452 95.1321 55.3737C95.2863 55.3966 95.3948 55.545 95.3662 55.6992C95.3662 55.722 94.9893 58.0575 95.6631 60.1931C95.7088 60.3416 95.6289 60.5015 95.4747 60.5529C95.4462 60.5643 95.4176 60.5643 95.3891 60.5643H95.3948Z" fill="#0C111D"/>
<path d="M64.0969 121.298C58.5466 125.369 50.9977 125.369 45.4531 121.298V93.0723H64.0969V121.298Z" fill="#FFA555"/>
<path d="M54.7779 124.65C51.4489 124.65 48.1255 123.611 45.2876 121.527C45.2133 121.475 45.1733 121.389 45.1733 121.298V93.0726C45.1733 92.9984 45.2019 92.9242 45.259 92.8728C45.3161 92.8214 45.3846 92.7871 45.4588 92.7871H64.1026C64.2625 92.7871 64.3882 92.9127 64.3882 93.0726V121.298C64.3882 121.389 64.3425 121.475 64.274 121.527C61.436 123.611 58.1069 124.65 54.7836 124.65H54.7779ZM45.7387 121.15C51.1633 125.055 58.3867 125.055 63.8114 121.15V93.3581H45.7387V121.15Z" fill="#0C111D"/>
<path d="M107.038 121.298C101.488 125.369 93.9386 125.369 88.394 121.298V93.0723H107.038V121.298Z" fill="#FFA555"/>
<path d="M97.713 124.65C94.3839 124.65 91.0606 123.611 88.2226 121.527C88.1484 121.475 88.1084 121.389 88.1084 121.298V93.0726C88.1084 92.9127 88.234 92.7871 88.3939 92.7871H107.038C107.198 92.7871 107.323 92.9127 107.323 93.0726V121.298C107.323 121.389 107.278 121.475 107.209 121.527C104.371 123.611 101.042 124.65 97.7187 124.65H97.713ZM88.6737 121.15C94.0984 125.055 101.322 125.055 106.746 121.15V93.3581H88.6737V121.15Z" fill="#0C111D"/>
<path d="M23.2293 65.4298C21.8931 60.6332 16.7425 57.4754 11.8774 57.7324C9.74747 55.711 6.32706 55.1742 3.64327 56.3334C3.06083 56.5961 0.359905 57.8809 1.00516 58.6917C1.17646 58.903 1.49623 58.9373 1.70751 58.7659C4.25997 56.6532 7.40058 56.716 9.61042 58.2006C6.25854 59.6853 5.00801 64.4476 7.34919 67.3655C8.71393 69.1185 11.4891 69.1756 13.1051 67.7481C14.7953 66.1435 14.9266 63.8081 14.2642 61.6781C14.367 61.7181 14.4698 61.7581 14.5726 61.7981C16.6168 62.5404 18.4498 64.2477 18.9352 66.3034C19.5919 69.1128 23.726 68.262 23.2178 65.424L23.2293 65.4298ZM12.357 64.1564C12.2428 65.5382 11.2493 66.4405 10.0273 66.0579C9.05654 65.6182 8.97088 63.8195 9.38773 62.8602C9.84454 61.5925 10.8553 61.1871 11.9687 61.2042C12.2942 62.0836 12.4427 63.0772 12.357 64.1621V64.1564Z" fill="#FFA555"/>
<path d="M10.353 69.0496C10.2102 69.0496 10.0732 69.0439 9.93042 69.0325C8.78267 68.924 7.78339 68.3987 7.12671 67.5535C5.97325 66.1203 5.58496 64.1788 6.0532 62.2373C6.48146 60.4786 7.57782 58.9997 9.0225 58.1831C6.77839 56.9212 4.03179 57.2181 1.89046 58.994C1.55356 59.268 1.05677 59.2167 0.782685 58.8798C0.63422 58.6913 0.588538 58.4743 0.63993 58.2459C0.851207 57.3666 2.72415 56.4358 3.52358 56.076C6.32158 54.8655 9.77624 55.4308 11.9804 57.4408C17.1538 57.2181 22.1959 60.6785 23.4979 65.3494C23.4979 65.3608 23.4979 65.3665 23.5036 65.378C23.8005 67.0282 22.7098 68.0332 21.5735 68.2673C20.4372 68.5014 19.0439 68.0104 18.6613 66.3715C18.2388 64.5899 16.697 62.9511 14.6927 62.1517C15.258 64.4757 14.7612 66.5714 13.3051 67.959C12.5171 68.6556 11.4379 69.0439 10.353 69.0439V69.0496ZM6.09888 56.8355C7.37796 56.8355 8.64562 57.2124 9.77624 57.9718C9.8619 58.0289 9.90758 58.1317 9.90187 58.2345C9.89616 58.3373 9.82764 58.4286 9.73057 58.4686C8.21165 59.1424 7.04677 60.5985 6.6128 62.3687C6.18453 64.1331 6.53285 65.8919 7.57782 67.1938C8.14313 67.919 8.99395 68.3701 9.98752 68.4615C11.061 68.5642 12.1574 68.2159 12.9226 67.5421C14.8469 65.7091 14.4243 63.1396 14.0018 61.7691C13.9675 61.6663 14.0018 61.5521 14.076 61.4779C14.156 61.4037 14.2702 61.3808 14.373 61.4151C14.4814 61.4551 14.5842 61.495 14.6927 61.535C16.9654 62.363 18.747 64.2131 19.2266 66.2402C19.5178 67.5022 20.5971 67.8847 21.4707 67.7077C22.3444 67.5307 23.1781 66.7598 22.9554 65.4922C21.7048 61.0382 16.8512 57.7606 11.9004 58.0175C11.8205 58.0175 11.7463 57.9947 11.6892 57.9376C9.65633 56.0075 6.39581 55.4593 3.76912 56.5957C2.62137 57.1153 1.32515 57.8919 1.21095 58.3773C1.19953 58.4344 1.21095 58.4743 1.2395 58.52C1.31373 58.6114 1.44507 58.6228 1.53643 58.5486C2.90688 57.4122 4.51144 56.8355 6.09888 56.8355ZM10.5871 66.4286C10.3758 66.4286 10.1588 66.3944 9.94184 66.3258C8.77696 65.8005 8.65705 63.8248 9.12528 62.7398C9.55926 61.5293 10.5528 60.884 11.9747 60.9126C12.0946 60.9126 12.1974 60.9868 12.2373 61.101C12.5914 62.0603 12.7284 63.0939 12.6428 64.1788C12.5742 65.0182 12.2031 65.7263 11.6264 66.1146C11.318 66.3259 10.9583 66.4286 10.5871 66.4286ZM11.7691 61.4836C10.6899 61.5236 9.99894 62.0032 9.65633 62.9511C9.28517 63.8076 9.36511 65.4408 10.1474 65.7891C10.5528 65.9147 10.964 65.8633 11.3123 65.6349C11.7463 65.3437 12.0261 64.7955 12.0775 64.1274C12.1517 63.1967 12.0489 62.3059 11.7748 61.4779L11.7691 61.4836Z" fill="#0C111D"/>
<path d="M118.31 82.4455C118.31 95.9958 110.156 108.016 97.5591 115.542V129.64C92.0145 133.712 84.4599 133.712 78.9153 129.64V122.554C75.021 123.308 70.9553 123.707 66.7697 123.707C62.5842 123.707 58.5185 123.308 54.6241 122.554V129.64C49.0738 133.712 41.525 133.712 35.9803 129.64V115.542C23.3837 108.016 15.2295 95.9958 15.2295 82.4455C15.2295 62.1971 33.445 45.3578 57.4678 41.8574C60.4885 41.412 63.5949 41.1836 66.7697 41.1836C71.2123 41.1836 75.5235 41.6347 79.6405 42.4855H79.6462C101.882 47.0594 118.31 63.2135 118.31 82.4455Z" fill="#FFA555"/>
<path d="M88.2339 132.998C84.9048 132.998 81.5815 131.959 78.7435 129.875C78.6693 129.823 78.6293 129.738 78.6293 129.646V122.903C70.8977 124.353 62.6408 124.353 54.9092 122.903V129.646C54.9092 129.738 54.8635 129.823 54.795 129.875C49.1133 134.043 41.4845 134.043 35.8143 129.875C35.74 129.823 35.7001 129.738 35.7001 129.646V115.708C22.5095 107.776 14.9492 95.6594 14.9492 82.4517C14.9492 62.3575 32.8164 45.1698 57.4331 41.5838C60.4766 41.1327 63.6229 40.9043 66.775 40.9043C71.149 40.9043 75.4944 41.344 79.6857 42.2062C79.6914 42.2062 79.7029 42.2062 79.7086 42.2062C102.606 46.9171 118.601 63.4653 118.601 82.446C118.601 95.6594 111.04 107.771 97.8499 115.702V129.641C97.8499 129.732 97.8042 129.818 97.7357 129.869C94.8977 131.953 91.5686 132.993 88.2453 132.993L88.2339 132.998ZM79.1946 129.498C84.6193 133.404 91.8427 133.404 97.2674 129.498V115.542C97.2674 115.439 97.3188 115.348 97.4045 115.297C110.504 107.468 118.018 95.4938 118.018 82.446C118.018 63.7451 102.224 47.4311 79.6001 42.7715C79.5944 42.7715 79.5829 42.7715 79.5772 42.7715C75.4145 41.9093 71.1033 41.4753 66.7635 41.4753C63.6401 41.4753 60.5223 41.7037 57.5016 42.1434C33.1705 45.6894 15.5088 62.6373 15.5088 82.4517C15.5088 95.5052 23.0234 107.479 36.1226 115.302C36.2083 115.354 36.2597 115.445 36.2597 115.548V129.504C41.6787 133.409 48.9078 133.409 54.3325 129.504V122.56C54.3325 122.474 54.3724 122.395 54.4352 122.337C54.5038 122.286 54.5894 122.263 54.6694 122.275C62.5437 123.799 70.9777 123.799 78.852 122.275C78.9377 122.257 79.0233 122.28 79.0862 122.337C79.149 122.395 79.1889 122.474 79.1889 122.56V129.504L79.1946 129.498Z" fill="#0C111D"/>
<path d="M97.559 115.828C97.559 115.828 97.559 115.828 97.5532 115.828C97.3934 115.828 97.2734 115.691 97.2734 115.537L97.4276 109.507C97.4276 109.347 97.5647 109.216 97.7188 109.227C97.8787 109.227 97.9986 109.364 97.9986 109.518L97.8445 115.548C97.8445 115.702 97.7131 115.828 97.559 115.828ZM54.624 122.84C54.4641 122.84 54.3385 122.709 54.3442 122.549L54.4984 109.501C54.4984 109.341 54.6297 109.21 54.7896 109.221C54.9495 109.221 55.0751 109.353 55.0694 109.513L54.9152 122.56C54.9152 122.715 54.7839 122.84 54.6297 122.84H54.624ZM78.9152 122.84C78.7553 122.84 78.6297 122.715 78.6297 122.555V118.558C78.6297 118.398 78.7553 118.272 78.9152 118.272C79.0751 118.272 79.2007 118.398 79.2007 118.558V122.555C79.2007 122.715 79.0751 122.84 78.9152 122.84ZM35.9745 115.828C35.8146 115.828 35.689 115.702 35.689 115.543V112.528C35.689 112.368 35.8146 112.242 35.9745 112.242C36.1344 112.242 36.26 112.368 36.26 112.528V115.543C36.26 115.702 36.1344 115.828 35.9745 115.828Z" fill="#0C111D"/>
<path d="M118.658 85.3245C118.658 81.1903 115.786 77.6328 111.657 75.9883V75.0176H106.541C99.8485 75.0176 94.4238 79.6314 94.4238 85.3245C94.4238 91.0176 99.8485 95.6314 106.541 95.6314H111.657V94.6607C115.791 93.0161 118.658 89.4644 118.658 85.3245Z" fill="#FFA555"/>
<path d="M111.658 95.9153H106.541C99.7004 95.9153 94.1387 91.1644 94.1387 85.3229C94.1387 79.4814 99.7004 74.7305 106.541 74.7305H111.658C111.817 74.7305 111.943 74.8561 111.943 75.016V75.7983C116.203 77.5627 118.944 81.2858 118.944 85.3229C118.944 89.36 116.203 93.083 111.943 94.8475V95.6298C111.943 95.7897 111.817 95.9153 111.658 95.9153ZM106.541 75.3015C100.014 75.3015 94.7097 79.7954 94.7097 85.3229C94.7097 90.8504 100.014 95.3443 106.541 95.3443H111.372V94.6591C111.372 94.5449 111.441 94.4364 111.555 94.3964C115.7 92.7519 118.378 89.1887 118.378 85.3286C118.378 81.4685 115.7 77.9053 111.555 76.2608C111.446 76.2151 111.372 76.1123 111.372 75.9981V75.3129H106.541V75.3015Z" fill="#0C111D"/>
<path d="M110.978 95.6314C117.67 95.6314 123.095 91.0168 123.095 85.3245C123.095 79.6321 117.67 75.0176 110.978 75.0176C104.286 75.0176 98.8608 79.6321 98.8608 85.3245C98.8608 91.0168 104.286 95.6314 110.978 95.6314Z" fill="#FF8000"/>
<path d="M110.978 95.9153C104.137 95.9153 98.5752 91.1644 98.5752 85.3229C98.5752 79.4814 104.137 74.7305 110.978 74.7305C117.819 74.7305 123.38 79.4814 123.38 85.3229C123.38 91.1644 117.819 95.9153 110.978 95.9153ZM110.978 75.3015C104.457 75.3015 99.1462 79.7954 99.1462 85.3229C99.1462 90.8504 104.451 95.3443 110.978 95.3443C117.505 95.3443 122.809 90.8504 122.809 85.3229C122.809 79.7954 117.505 75.3015 110.978 75.3015Z" fill="#0C111D"/>
<path d="M108.043 89.9831C109.241 89.9831 110.213 87.897 110.213 85.3236C110.213 82.7502 109.241 80.6641 108.043 80.6641C106.845 80.6641 105.873 82.7502 105.873 85.3236C105.873 87.897 106.845 89.9831 108.043 89.9831Z" fill="#FFA555"/>
<path d="M108.043 90.269C106.667 90.269 105.587 88.0991 105.587 85.3239C105.587 82.5488 106.667 80.3789 108.043 80.3789C109.419 80.3789 110.498 82.5488 110.498 85.3239C110.498 88.0991 109.419 90.269 108.043 90.269ZM108.043 80.9556C107.135 80.9556 106.158 82.7144 106.158 85.3296C106.158 87.9449 107.135 89.7037 108.043 89.7037C108.951 89.7037 109.927 87.9449 109.927 85.3296C109.927 82.7144 108.951 80.9556 108.043 80.9556Z" fill="#0C111D"/>
<path d="M116.488 89.9831C117.687 89.9831 118.658 87.897 118.658 85.3236C118.658 82.7502 117.687 80.6641 116.488 80.6641C115.29 80.6641 114.318 82.7502 114.318 85.3236C114.318 87.897 115.29 89.9831 116.488 89.9831Z" fill="#FFA555"/>
<path d="M116.488 90.2691C115.112 90.2691 114.033 88.0992 114.033 85.324C114.033 82.5489 115.112 80.379 116.488 80.379C117.864 80.379 118.943 82.5489 118.943 85.324C118.943 88.0992 117.864 90.2691 116.488 90.2691ZM116.488 80.9557C115.58 80.9557 114.604 82.7145 114.604 85.3298C114.604 87.945 115.58 89.7038 116.488 89.7038C117.396 89.7038 118.372 87.945 118.372 85.3298C118.372 82.7145 117.396 80.9557 116.488 80.9557ZM88.3882 69.4097C88.3882 69.4097 88.3653 69.4097 88.3539 69.4097C88.1998 69.3926 88.0855 69.2441 88.1084 69.09C88.1084 69.0557 88.5595 65.7723 91.289 65.7095C93.476 65.6695 94.3382 67.8965 94.481 69.09C94.4981 69.2441 94.3896 69.3869 94.2354 69.4097C94.0812 69.4269 93.9385 69.3184 93.9157 69.1642C93.8985 69.0443 93.5159 66.2234 91.3004 66.2863C89.0563 66.3376 88.6737 69.1356 88.6737 69.1642C88.6566 69.3069 88.5309 69.4154 88.3882 69.4154V69.4097ZM107.306 69.4097C107.306 69.4097 107.283 69.4097 107.272 69.4097C107.118 69.3926 107.003 69.2441 107.026 69.09C107.026 69.0557 107.477 65.7723 110.207 65.7095C112.4 65.6695 113.256 67.8965 113.399 69.09C113.416 69.2441 113.307 69.3869 113.153 69.4097C112.999 69.4269 112.856 69.3184 112.834 69.1642C112.816 69.0443 112.44 66.2234 110.218 66.2863C107.974 66.3376 107.592 69.1356 107.592 69.1642C107.574 69.3069 107.449 69.4154 107.306 69.4154V69.4097Z" fill="#0C111D"/>
<path d="M86.7267 56.608C82.6953 51.72 79.0065 50.5437 74.2842 51.8057C69.5619 53.0677 68.928 60.628 67.5119 63.6943C66.0958 66.7664 61.9216 68.1026 63.5719 71.0947C65.2278 74.0869 74.0444 73.6129 78.3784 71.0947C82.7124 68.5766 84.2827 64.3225 84.2827 64.3225C84.2827 64.3225 90.4269 61.0962 86.7267 56.6023V56.608Z" fill="#FFA555"/>
<path d="M69.6017 73.4525C68.3112 73.4525 67.0949 73.3212 66.0614 73.0357C64.6967 72.6588 63.7716 72.0535 63.3205 71.2313C62.1842 69.1756 63.5489 67.8223 64.9993 66.3947C65.8558 65.5496 66.7409 64.676 67.2491 63.5739C67.6089 62.7973 67.9286 61.6781 68.2655 60.4961C69.2877 56.9329 70.5553 52.4961 74.2099 51.5254C79.2063 50.1949 83.015 51.6567 86.9436 56.4247C87.9828 57.6867 88.3769 58.9772 88.1199 60.262C87.6402 62.6545 85.0535 64.2191 84.511 64.5275C84.237 65.207 82.5696 68.9929 78.5211 71.3455C76.2313 72.6759 72.7081 73.4582 69.6017 73.4582V73.4525ZM77.5675 51.6167C76.5567 51.6167 75.4946 51.7709 74.3583 52.0736C71.0178 52.9643 69.7959 57.2241 68.8194 60.6503C68.4768 61.8551 68.1513 62.9914 67.7745 63.808C67.2206 65.0071 66.2555 65.9607 65.4047 66.8001C64.0057 68.182 62.8979 69.2784 63.823 70.9572C64.1942 71.6253 65.0221 72.1563 66.2156 72.4875C69.6017 73.424 75.1006 72.6702 78.2355 70.8487C82.4211 68.4104 84.0028 64.2648 84.02 64.2249C84.0428 64.1563 84.0942 64.1049 84.157 64.0707C84.1856 64.0535 87.0921 62.5004 87.566 60.1421C87.7887 59.0343 87.4347 57.9037 86.5096 56.7845C83.5917 53.2499 80.8508 51.6167 77.5732 51.6167H77.5675Z" fill="#0C111D"/>
<path d="M84.2883 64.6068C84.2883 64.6068 84.2312 64.6068 84.2027 64.5954C84.0542 64.5497 83.9685 64.3898 84.0142 64.2357C84.6823 62.1 84.3112 59.7646 84.3112 59.7417C84.2883 59.5876 84.3911 59.4391 84.5453 59.4163C84.6995 59.3934 84.8479 59.4962 84.8708 59.6504C84.8879 59.7532 85.2705 62.14 84.5567 64.407C84.5167 64.5269 84.4082 64.6068 84.2826 64.6068H84.2883ZM79.6345 42.4855C79.6345 42.4855 79.5717 42.4912 79.4975 42.5026C78.5039 42.6568 72.3768 43.8959 66.9522 51.9702C61.0307 60.7981 60.7223 68.1186 60.7223 68.1186L50.7066 68.1471L41.7017 68.17C41.7017 68.17 42.6667 63.716 44.8994 58.514C45.7102 56.6354 46.6867 54.6539 47.8458 52.7524C52.2027 45.6033 57.4618 41.8574 57.4618 41.8574C60.4825 41.412 63.5888 41.1836 66.7637 41.1836C71.1491 41.1836 75.4032 41.6233 79.4689 42.4513C79.526 42.4627 79.5774 42.4741 79.6345 42.4855Z" fill="#0C111D"/>
<path d="M41.7017 68.4557C41.616 68.4557 41.5361 68.4157 41.479 68.3472C41.4219 68.2787 41.4047 68.193 41.4219 68.1074C41.4333 68.0617 42.4211 63.5678 44.6367 58.4C45.5503 56.2758 46.5496 54.3287 47.6003 52.6042C51.94 45.4893 57.2391 41.6635 57.2962 41.6235C57.3305 41.5949 57.3762 41.5778 57.4218 41.5721C60.4711 41.121 63.6117 40.8926 66.7637 40.8926C71.0806 40.8926 75.3747 41.3208 79.526 42.1659L79.6916 42.2002C79.8344 42.2288 79.9314 42.3601 79.92 42.5086C79.9086 42.6513 79.7887 42.7598 79.6459 42.7655C79.6288 42.7655 79.5945 42.7712 79.5431 42.7769C78.4125 42.954 72.4968 44.2273 67.192 52.1188C61.3904 60.7698 61.0136 68.0503 61.0078 68.1188C61.0021 68.273 60.8765 68.3929 60.7223 68.3929L41.7017 68.4443V68.4557ZM57.576 42.1317C57.0107 42.5542 52.1285 46.2773 48.0914 52.9011C47.0521 54.6028 46.07 56.5271 45.162 58.6285C43.3177 62.9225 42.3355 66.7426 42.0614 67.8847L60.4597 67.8333C60.5853 66.4172 61.4532 59.6563 66.718 51.8105C71.0863 45.3123 75.9 43.1824 78.2355 42.5028C71.4918 41.2694 64.3198 41.1438 57.576 42.1317Z" fill="#0C111D"/>
<path d="M15.2293 42.0909L12.3799 46.699L12.8253 54.9617C12.8253 54.9617 19.9744 53.8996 28.6882 56.5548C37.402 59.2101 43.2207 68.1465 43.2207 68.1465H49.6903L50.7067 45.1687L20.4255 40.4121L15.2293 42.0852V42.0909Z" fill="#2A9595"/>
<path d="M49.6902 68.4328H43.2205C43.1234 68.4328 43.0321 68.3815 42.9807 68.3015C42.9236 68.2101 37.1163 59.4221 28.6024 56.824C20.0543 54.2202 12.9336 55.2309 12.8651 55.2423C12.7852 55.2537 12.7052 55.2309 12.6424 55.1795C12.5796 55.1281 12.5396 55.0538 12.5396 54.9739L12.0942 46.7112C12.0942 46.6541 12.1057 46.597 12.1342 46.5456L14.9836 41.9375C15.0179 41.8804 15.075 41.8347 15.1378 41.8176L20.3341 40.1445C20.374 40.1331 20.4197 40.1274 20.4654 40.1331L50.7466 44.8897C50.8893 44.9125 50.9921 45.0382 50.9864 45.1866L49.97 68.1645C49.9643 68.3186 49.8386 68.4385 49.6845 68.4385L49.6902 68.4328ZM43.369 67.8618H49.4161L50.4097 45.415L20.4483 40.7098L15.4176 42.3258L12.671 46.7683L13.0935 54.637C14.5668 54.4714 21.1106 53.9404 28.7737 56.2758C36.9108 58.7541 42.6095 66.7369 43.3747 67.8561L43.369 67.8618Z" fill="#0C111D"/>
<path d="M16.737 35.7246L11.9575 41.7831C11.9575 41.7831 26.233 42.4798 33.9418 48.2642C41.6505 54.0429 49.6962 68.1528 49.6962 68.1528H50.7126L48.9139 42.7653L16.737 35.7303V35.7246Z" fill="#2A9595"/>
<path d="M50.7065 68.4336H49.6901C49.5873 68.4336 49.4902 68.3765 49.4445 68.2908C49.3646 68.1481 41.3418 54.1695 33.77 48.4936C26.2212 42.8348 12.0884 42.0753 11.9457 42.0696C11.8372 42.0696 11.7458 42.0011 11.7001 41.904C11.6544 41.8069 11.6716 41.6927 11.7344 41.6071L16.5138 35.5486C16.5823 35.4629 16.6908 35.4229 16.7993 35.4458L48.9763 42.4808C49.1019 42.5093 49.1933 42.6121 49.199 42.7377L50.9977 68.1253C50.9977 68.2052 50.9749 68.2794 50.9235 68.3422C50.8721 68.405 50.7921 68.4336 50.7122 68.4336H50.7065ZM49.8557 67.8626H50.3981L48.6394 42.9947L16.845 36.0454L12.511 41.5329C15.2119 41.7327 27.2718 42.909 34.1069 48.0311C41.3589 53.4672 48.9763 66.3494 49.8557 67.8626Z" fill="#0C111D"/>
<path d="M79.4973 42.5033C78.5037 42.6575 72.3767 43.8966 66.952 51.9708C61.0305 60.7988 60.7222 68.1193 60.7222 68.1193L50.7065 68.1478C50.5409 67.8224 48.3938 63.6311 44.8992 58.5147C41.9071 54.1293 37.9156 49.0529 33.3418 45.17C23.2119 36.5704 8.31396 32.9616 8.31396 32.9616L39.4517 13.25C39.4517 13.25 49.2675 13.5184 57.593 18.9545C71.5259 28.0623 78.972 41.5269 79.4687 42.452C79.4859 42.4862 79.4973 42.5033 79.4973 42.5033Z" fill="#2A9595"/>
<path d="M50.7067 68.4319C50.5982 68.4319 50.5011 68.3691 50.4497 68.2777C50.2213 67.8266 48.0971 63.7096 44.6596 58.6789C40.8737 53.1286 37.0022 48.6575 33.1535 45.3912C23.1949 36.9344 8.3941 33.2799 8.24563 33.24C8.13143 33.2114 8.05149 33.12 8.02865 33.0115C8.01152 32.8973 8.06291 32.7831 8.15999 32.726L39.2977 13.0144C39.3434 12.9859 39.4005 12.9688 39.4576 12.9688C39.5547 12.9688 49.4504 13.2999 57.7473 18.7189C71.9086 27.9751 79.4061 41.7367 79.7202 42.3192C79.7773 42.3991 79.7944 42.5133 79.7544 42.6047C79.7145 42.696 79.6402 42.7703 79.5375 42.7874C78.4068 42.9644 72.4854 44.2378 67.1863 52.1293C61.3847 60.7802 61.0079 68.0607 61.0022 68.1293C60.9964 68.2834 60.8708 68.4033 60.7166 68.4033L50.701 68.4319H50.7067ZM9.02222 32.8517C11.9915 33.6568 24.651 37.4198 33.5304 44.9516C37.419 48.2521 41.3248 52.7631 45.1392 58.3534C48.3484 63.0472 50.4154 66.953 50.8837 67.8609L60.4597 67.8323C60.5853 66.4162 61.4533 59.6553 66.7181 51.8095C71.6974 44.3977 77.2591 42.6675 79.0578 42.2906C77.8815 40.2007 70.5382 27.7524 57.439 19.1872C49.6903 14.1279 40.514 13.5797 39.5318 13.5341L9.02222 32.8459V32.8517Z" fill="#0C111D"/>
<path d="M50.5239 57.475L54.9493 61.6492C56.965 63.5507 64.5482 58.7884 71.8858 51.0111C79.2234 43.2338 83.5346 35.3823 81.5189 33.4808L77.0935 29.3066L50.5296 57.475H50.5239Z" fill="#FFA555"/>
<path d="M56.2001 62.3517C55.6063 62.3517 55.1152 62.1918 54.7555 61.8549L50.3301 57.6807C50.2159 57.5723 50.2102 57.3895 50.3187 57.2753L76.8825 29.1069C76.991 28.9927 77.1737 28.987 77.2879 29.0955L81.7133 33.2697C84.1287 35.548 78.7212 44.1761 72.0916 51.1997C66.45 57.1782 59.6034 62.346 56.1944 62.346L56.2001 62.3517ZM50.9296 57.4581L55.1495 61.4381C56.8111 63.0084 63.8518 59.1083 71.6805 50.8114C79.5092 42.5088 82.9867 35.2568 81.325 33.6865L77.1052 29.7065L50.9296 57.4581Z" fill="#0C111D"/>
<path d="M67.4576 46.8293C74.7923 39.0513 79.1034 31.2043 77.0866 29.3024C75.0698 27.4006 67.489 32.1641 60.1542 39.9421C52.8195 47.7201 48.5084 55.5671 50.5252 57.469C52.542 59.3708 60.1229 54.6072 67.4576 46.8293Z" fill="#FF8000"/>
<path d="M51.7747 58.1781C51.1808 58.1781 50.6898 58.0182 50.33 57.6813C47.9146 55.4029 53.3222 46.7748 59.9517 39.7513C63.5149 35.9711 67.2493 32.7791 70.4699 30.7577C72.8168 29.2845 75.906 27.7998 77.2879 29.1018C78.6697 30.4037 77.3678 33.5786 76.0316 36.0054C74.1986 39.3344 71.2293 43.2516 67.6662 47.0318C62.0245 53.0104 55.178 58.1781 51.769 58.1781H51.7747ZM75.8375 29.1646C74.6954 29.1646 72.9367 29.8726 70.7725 31.2317C67.5919 33.2302 63.8974 36.3937 60.3685 40.1339C52.5399 48.4365 49.0624 55.6884 50.724 57.2588C52.3857 58.8291 59.4264 54.929 67.255 46.6321C70.7897 42.8862 73.7247 39.0147 75.5348 35.7256C77.2593 32.585 77.7561 30.318 76.8996 29.5129C76.654 29.2788 76.2943 29.1646 75.8375 29.1646Z" fill="#0C111D"/>
<path d="M74.5009 32.0536C74.638 32.185 74.7293 32.3677 74.7636 32.5904C75.1176 34.589 71.6116 40.1107 66.3068 45.741C60.9963 51.3712 55.6915 55.1913 53.6758 54.9572C53.4474 54.9344 53.2647 54.8602 53.1276 54.7288C51.7515 53.4326 55.4174 47.2999 61.3218 41.0415C67.2261 34.7831 73.1305 30.7631 74.5066 32.0593L74.5009 32.0536Z" fill="#FFA555"/>
<path d="M53.8414 55.2487C53.7729 55.2487 53.7043 55.2487 53.6358 55.2372C53.3503 55.2087 53.1048 55.1059 52.922 54.9346C51.9285 53.9981 53.0933 51.5142 54.2411 49.5956C55.8 46.9917 58.2382 43.8854 61.1047 40.8418C63.9713 37.7983 66.9349 35.183 69.4416 33.4757C71.2917 32.2137 73.7014 30.9118 74.695 31.8483C74.8777 32.0196 74.9977 32.2594 75.0433 32.5506C75.4145 34.6691 71.8285 40.2994 66.5123 45.941C61.356 51.4114 56.1083 55.2544 53.8414 55.2544V55.2487ZM73.77 32.0995C73.0619 32.0995 71.7714 32.5849 69.7671 33.9496C67.2946 35.6341 64.3653 38.2209 61.5216 41.2358C58.6779 44.2508 56.2682 47.3229 54.7322 49.8925C53.0477 52.7019 52.8992 54.1295 53.316 54.5235C53.4074 54.6091 53.533 54.6605 53.6986 54.6776C55.3603 54.8718 60.2596 51.7369 66.0955 45.5527C71.9313 39.3686 74.7692 34.2865 74.4837 32.6477C74.4552 32.4821 74.3981 32.3565 74.3067 32.2708C74.1982 32.168 74.0212 32.1052 73.77 32.1052V32.0995Z" fill="#0C111D"/>
<path d="M74.7639 32.5904C75.118 34.589 71.6119 40.1107 66.3071 45.741C60.9967 51.3712 55.6919 55.1914 53.6762 54.9573C53.3279 52.9587 56.8282 47.4369 62.1387 41.8124C67.4492 36.1878 72.754 32.362 74.7697 32.5961L74.7639 32.5904Z" fill="#FF8000"/>
<path d="M56.4339 68.4549C56.3368 68.4549 56.2398 68.4035 56.1884 68.3121C53.3561 63.3728 44.9279 51.0102 38.2926 44.7975C31.7773 38.7047 24.9593 35.6612 24.8908 35.6327C24.7594 35.5756 24.6909 35.4271 24.7309 35.29C24.7309 35.2729 25.222 33.617 24.7994 31.5327C24.3769 29.4599 23.0806 28.118 23.0692 28.1066C23.0064 28.0438 22.9779 27.9581 22.9893 27.8725C23.0007 27.7868 23.0464 27.7126 23.1206 27.6669L37.6645 18.3079C37.7387 18.2622 37.8301 18.2508 37.9157 18.2794C37.9329 18.2851 39.6117 18.8561 42.2669 18.6734C44.9107 18.4906 47.0863 17.1259 47.1092 17.1145C47.172 17.0745 47.2405 17.0631 47.3147 17.0745C47.4803 17.1031 51.506 17.8625 58.4096 23.3329C65.2733 28.7747 68.5053 32.355 68.5395 32.3893C68.6423 32.5092 68.6366 32.6862 68.5167 32.7947C68.3968 32.8975 68.2198 32.8918 68.1113 32.7718C68.077 32.7376 64.8793 29.1915 58.0556 23.784C51.8772 18.8846 47.9828 17.8168 47.3204 17.6627C46.8465 17.9482 44.8079 19.0788 42.3126 19.2501C39.9371 19.41 38.3326 19.0046 37.8701 18.8675L23.7202 27.9753C24.1427 28.4835 25.0221 29.7112 25.3704 31.4242C25.7359 33.2001 25.4789 34.6619 25.3533 35.2215C26.5867 35.7982 32.7651 38.8475 38.6923 44.3921C45.4589 50.7247 53.7558 62.916 56.6966 68.038C56.7765 68.1751 56.7251 68.3464 56.5938 68.4263C56.5481 68.4549 56.5024 68.4663 56.451 68.4663L56.4339 68.4549Z" fill="#0C111D"/>
<path d="M10.9007 4.66797L7.54885 9.74433C6.02423 12.057 12.0199 18.7093 20.945 24.5966C29.87 30.4838 38.3439 33.3846 39.8686 31.0719L43.2205 25.9956L10.9007 4.66797Z" fill="#FFA555"/>
<path d="M37.7502 32.1622C36.3398 32.1622 34.5925 31.6996 33.085 31.1857C29.4876 29.958 25.1193 27.7025 20.7852 24.8417C12.7224 19.5255 5.4819 12.3649 7.30916 9.59547L10.661 4.51911C10.701 4.45629 10.7695 4.41061 10.8438 4.39919C10.918 4.38206 10.9979 4.39919 11.0608 4.43916L43.3805 25.7668C43.5118 25.8524 43.5461 26.0294 43.4604 26.1608L40.1085 31.2371C39.6631 31.9109 38.8009 32.1679 37.7502 32.1679V32.1622ZM10.9808 5.06728L7.78882 9.90953C6.52686 11.8167 11.5804 18.0808 21.0993 24.3678C25.3934 27.2 29.716 29.4327 33.2677 30.649C36.6596 31.8081 38.9722 31.9109 39.6232 30.9231L42.8152 26.0808L10.9751 5.073L10.9808 5.06728Z" fill="#0C111D"/>
<path d="M43.2184 25.9971C44.7452 23.6834 38.7492 17.0344 29.826 11.1462C20.9028 5.25793 12.4314 2.36021 10.9046 4.67392C9.37783 6.98764 15.3738 13.6366 24.297 19.5249C33.2203 25.4131 41.6916 28.3109 43.2184 25.9971Z" fill="#FF8000"/>
<path d="M41.102 27.0795C39.6916 27.0795 37.9443 26.617 36.4368 26.1031C32.8394 24.8754 28.4711 22.6198 24.137 19.759C19.803 16.8982 16.0114 13.769 13.4647 10.9482C11.6089 8.88682 9.61601 6.10024 10.661 4.5128C11.7059 2.92537 15.0578 3.66199 17.6788 4.55849C21.2762 5.78618 25.6445 8.04171 29.9786 10.9025C34.3126 13.7633 38.1042 16.8925 40.6509 19.7134C42.5068 21.7747 44.4996 24.5613 43.4546 26.1487C43.0093 26.8225 42.147 27.0795 41.0963 27.0795H41.102ZM13.0193 4.15306C12.0828 4.15306 11.4376 4.37576 11.1406 4.82687C10.4897 5.81473 11.4947 7.90466 13.8929 10.5656C16.4054 13.3522 20.157 16.4471 24.4568 19.2851C28.7509 22.1173 33.0735 24.35 36.6253 25.5663C40.0171 26.7255 42.3297 26.8283 42.9807 25.8404C43.6317 24.8525 42.6267 22.7626 40.2284 20.1016C37.7159 17.3151 33.9643 14.2201 29.6645 11.3822C25.3704 8.54991 21.0478 6.31723 17.4961 5.10095C15.6517 4.47283 14.1271 4.15306 13.0136 4.15306H13.0193Z" fill="#0C111D"/>
<path d="M40.0686 23.9159C39.9658 24.0758 39.8002 24.19 39.5833 24.2643C37.6761 24.9552 31.629 22.4541 25.1764 18.1943C18.7182 13.9345 14.0416 9.36064 13.9273 7.33352C13.9102 7.10511 13.9559 6.91096 14.0587 6.75108C15.1036 5.16935 21.7674 7.72752 28.9509 12.4727C36.1343 17.2122 41.1079 22.3399 40.0686 23.9159Z" fill="#FFA555"/>
<path d="M38.8296 24.6579C36.2429 24.6579 30.7497 22.214 25.0224 18.4281C18.5527 14.1569 13.7676 9.49735 13.6477 7.34461C13.6248 7.0591 13.6876 6.80214 13.8247 6.59086C15.1552 4.57516 22.6926 7.98986 29.1166 12.2268C32.6055 14.528 35.6947 16.9948 37.8075 19.1704C39.3664 20.775 41.068 22.9277 40.3143 24.0641C40.1772 24.2753 39.9603 24.4295 39.6862 24.5266C39.4578 24.6122 39.1722 24.6522 38.8353 24.6522L38.8296 24.6579ZM15.3093 6.5566C14.8011 6.5566 14.4528 6.6708 14.2986 6.90492C14.2301 7.00771 14.2016 7.14475 14.213 7.31035C14.31 8.97772 18.2387 13.2661 25.3364 17.9542C32.4342 22.6365 37.9274 24.5609 39.492 23.9955C39.6519 23.9384 39.7661 23.8585 39.8346 23.7557C40.1544 23.2761 39.6747 21.9227 37.3964 19.5759C35.3122 17.4288 32.2572 14.9906 28.8025 12.7065C22.704 8.68079 17.502 6.5566 15.315 6.5566H15.3093Z" fill="#0C111D"/>
<path d="M39.5832 24.2653C37.676 24.9562 31.6289 22.4552 25.1763 18.1954C18.7181 13.9355 14.0415 9.36168 13.9272 7.33456C15.8345 6.64363 21.8758 9.15041 28.3341 13.4102C34.7923 17.67 39.469 22.2439 39.5832 24.2653Z" fill="#FF8000"/>
<path d="M39.1549 58.9319C39.0807 58.9319 39.0065 58.9034 38.9494 58.8406C38.9208 58.812 35.8887 55.6885 26.9694 52.5308C18.0386 49.3731 12.6368 50.024 12.5854 50.0297C12.4312 50.0469 12.2885 49.9384 12.2656 49.7842C12.2428 49.63 12.357 49.4873 12.5111 49.4644C12.7338 49.4359 18.09 48.7792 27.1635 51.994C36.237 55.2032 39.2463 58.3152 39.3662 58.4466C39.4747 58.5608 39.469 58.7435 39.3548 58.852C39.2977 58.9034 39.2292 58.9319 39.1606 58.9319H39.1549Z" fill="#0C111D"/>
<path d="M44.5169 68.4336C44.4084 68.4336 44.3056 68.3708 44.2599 68.2681C44.2485 68.2395 42.8952 65.3501 39.9887 61.8155C37.1051 58.3095 30.7839 56.0254 30.7211 56.0025C30.5726 55.9512 30.4927 55.7856 30.5498 55.6371C30.6012 55.4886 30.7668 55.4087 30.9152 55.4658C31.1779 55.5629 37.4477 57.8298 40.4341 61.4558C43.392 65.0475 44.7682 67.9997 44.7853 68.0282C44.8538 68.171 44.7853 68.3423 44.6482 68.4051C44.6083 68.4222 44.5683 68.4336 44.5283 68.4336H44.5169Z" fill="#0C111D"/>
<path d="M84.237 12.37L81.9643 6.72831C80.9308 4.15872 72.0514 5.31218 62.1328 9.3036C52.2142 13.3007 45.0136 18.6226 46.0529 21.1922L48.3255 26.8339L84.2427 12.3643L84.237 12.37Z" fill="#FFA555"/>
<path d="M48.3199 27.125C48.2057 27.125 48.0972 27.0565 48.0572 26.948L45.7846 21.3063C44.5455 18.2285 53.0651 12.6553 62.0244 9.0465C70.9837 5.43766 80.9879 3.54758 82.227 6.62538L84.4997 12.2671C84.5568 12.4155 84.4883 12.5811 84.3398 12.6382L48.4227 27.1079C48.3884 27.1193 48.3541 27.1307 48.3142 27.1307L48.3199 27.125ZM78.0871 5.64322C74.6096 5.64322 68.9337 6.87091 62.2356 9.57184C51.6546 13.8374 45.4591 18.9708 46.3099 21.0893L48.4741 26.4683L83.8602 12.2157L81.696 6.83665C81.3819 6.06007 80.1028 5.64322 78.0871 5.64322Z" fill="#0C111D"/>
<path d="M68.1517 24.2585C78.0683 20.264 85.2677 14.9414 84.2319 12.3701C83.1962 9.79879 74.3175 10.9525 64.4009 14.947C54.4843 18.9415 47.2849 24.2641 48.3207 26.8354C49.3564 29.4067 58.2351 28.253 68.1517 24.2585Z" fill="#FF8000"/>
<path d="M52.1571 28.4961C50.2499 28.4961 48.5311 28.1363 48.0572 26.9429C47.3491 25.1785 49.8559 22.843 52.0829 21.1984C55.1378 18.9372 59.4776 16.6246 64.297 14.6831C69.1164 12.7416 73.8444 11.4055 77.6131 10.9144C80.3655 10.5546 83.7916 10.5032 84.4997 12.262C85.2077 14.0264 82.7009 16.3619 80.474 18.0064C77.419 20.2677 73.0793 22.5803 68.2598 24.5218C63.4404 26.4632 58.7124 27.7994 54.9437 28.2905C54.0472 28.4047 53.0821 28.4904 52.1571 28.4904V28.4961ZM80.394 11.2855C79.6003 11.2855 78.6924 11.3484 77.6817 11.4797C73.9586 11.9651 69.282 13.2898 64.5025 15.2142C59.7288 17.1385 55.4347 19.4283 52.4198 21.6553C49.5418 23.7852 48.1428 25.6353 48.5825 26.7316C49.0222 27.828 51.312 28.1934 54.8694 27.7309C58.5925 27.2455 63.2691 25.9208 68.0486 23.9964C72.8223 22.0721 77.1164 19.7823 80.1313 17.5553C83.0093 15.4254 84.4083 13.5753 83.9686 12.479C83.6545 11.6967 82.3869 11.2855 80.394 11.2855Z" fill="#0C111D"/>
<path d="M51.8257 25.4286C51.7515 25.2516 51.7515 25.0518 51.8143 24.8348C52.3282 22.8705 57.8272 19.3244 64.9992 16.4294C72.1769 13.54 78.5951 12.2895 80.3253 13.3459C80.5195 13.4601 80.6565 13.6085 80.7308 13.7855C81.4388 15.5386 75.5402 19.5757 67.5573 22.7905C59.5745 26.0054 52.5281 27.1874 51.8257 25.4286Z" fill="#FFA555"/>
<path d="M54.213 26.5259C52.9282 26.5259 51.8604 26.2804 51.5577 25.538C51.4607 25.3039 51.4549 25.0412 51.5349 24.7557C52.0831 22.6772 57.6962 19.0627 64.891 16.1676C72.0802 13.2725 78.6355 11.982 80.4742 13.1069C80.7254 13.2554 80.9024 13.4495 80.9938 13.6837C81.896 15.9221 74.7982 20.1819 67.6662 23.0598C63.789 24.6244 60.0031 25.7607 57.011 26.2632C56.103 26.4174 55.1095 26.5373 54.213 26.5373V26.5259ZM78.35 13.2668C75.7633 13.2668 71.0295 14.3061 65.1023 16.6987C57.2165 19.8735 52.5113 23.2996 52.0888 24.9099C52.0431 25.0755 52.0431 25.2126 52.0888 25.3268C52.3058 25.8578 53.6876 26.2347 56.9139 25.6979C59.8661 25.2011 63.6062 24.0762 67.4492 22.5288C75.8089 19.1597 81.0166 15.2768 80.4627 13.8949C80.4171 13.7807 80.32 13.678 80.1772 13.598C79.8232 13.381 79.2008 13.2668 78.35 13.2668Z" fill="#0C111D"/>
<path d="M51.8145 24.8289C52.3284 22.8646 57.8273 19.3186 64.9993 16.4235C72.177 13.5341 78.5953 12.2836 80.3255 13.34C79.8058 15.2986 74.3183 18.8503 67.1406 21.7397C59.9686 24.6291 53.5446 25.8796 51.8145 24.8289Z" fill="#FF8000"/>
</g>
<defs>
<clipPath id="clip0_134_14004">
<rect width="122.761" height="132.517" fill="white" transform="translate(0.619141 0.484375)"/>
</clipPath>
</defs>
</svg>
