<svg width="390" height="400" viewBox="0 0 390 400" fill="none" xmlns="http://www.w3.org/2000/svg">
<path d="M217.685 276.881C213.281 275.098 208.396 272.668 205.55 268.16C198.558 257.086 211.417 242.471 223.151 248.288C224.076 243.982 227.662 240.465 232.462 240.064C233.159 240.003 233.906 240.161 234.628 240.314C235.32 240.46 236.034 240.612 236.531 240.512C237.813 240.253 237.44 237.971 242.23 235.899C248.739 233.089 254.218 236.499 254.575 236.592C257.076 237.765 259.653 238.975 260.965 241.718C261.496 241.169 262.363 240.376 263.771 239.196C265.845 237.45 268.799 237.031 269.973 236.931C278.123 236.234 284.235 241.493 285.525 250.097C289.684 246.898 295.868 249.395 296.96 255.26C299.02 253.733 302.256 254.865 303.147 258.596C304.151 262.803 301.252 266.688 298.921 269.808C295.707 274.112 274.522 281.799 270.685 282.765C259.168 285.654 237.64 284.957 217.685 276.881ZM206.575 267.514C209.237 271.729 213.915 274.047 218.14 275.756C238.101 283.835 259.327 284.367 270.389 281.588C274.294 280.607 295.014 273.011 297.926 269.117C300.13 266.164 302.84 262.534 301.968 258.877C301.381 256.65 299.62 255.115 297.877 256.108C297.47 256.338 297.188 256.679 297.083 257.065C296.896 257.759 295.884 257.601 295.892 256.899C295.924 254.256 294.495 251.717 292.337 250.58C290.066 249.383 287.078 249.899 285.536 251.755C285.187 252.172 284.517 251.957 284.466 251.425C283.793 244.263 279.086 237.384 270.075 238.139C267.838 238.328 265.825 239.051 264.551 240.124C263.581 240.937 261.706 242.618 261.376 243.071C261.223 243.651 260.403 243.679 260.214 243.102C260.213 243.1 260.211 243.096 260.21 243.094C259.167 239.867 256.276 238.727 253.121 237.244C247.914 234.74 242.099 236.366 239.363 239.202C238.606 239.981 238.225 241.405 236.772 241.701C235.423 241.978 233.749 241.165 232.563 241.271C227.992 241.655 224.71 245.242 224.209 249.294C224.156 249.726 223.677 249.961 223.304 249.744C212.576 243.543 200.056 257.191 206.575 267.514Z" fill="black"/>
<path d="M223.204 264.921C223.882 259.145 228.65 254.09 234.376 253.076C240.103 252.062 246.316 255.171 248.937 260.363C252.191 252.233 262.892 248.592 270.998 251.905C279.104 255.219 284.11 264.141 284.162 272.898" fill="black"/>
<path d="M288.675 350.371H220.537C215.411 350.371 211.026 346.689 210.138 341.642C203.602 320.473 199.878 296.723 197.79 271.472C196.652 265.008 201.625 259.083 208.189 259.083H299.177C305.631 259.083 310.576 264.822 309.62 271.204C307.853 295.064 304.386 318.463 299.118 341.374C298.344 346.545 293.903 350.371 288.675 350.371Z" fill="#FF8000"/>
<path d="M160.42 156.558L106.942 187.418C89.4952 197.452 67.5138 163.143 67.6205 143.2C67.669 139.055 71.3538 134.691 74.8447 132.752L130.093 102.109C124.833 105.018 127.378 119.588 135.742 134.643C144.13 149.673 155.184 159.491 160.42 156.558Z" fill="#008080"/>
<path d="M170.529 186.279L108.929 186.254C102.651 171.151 125.754 169.479 125.754 169.479C125.754 169.479 164.348 176.436 171.087 178.666C169.268 180.801 168.94 182.726 170.529 186.279Z" fill="#008080"/>
<path d="M182.552 205.106C181.273 204.194 180.367 202.881 179.548 201.613C170.929 188.423 169.628 186.907 168.988 183.456C168.369 180.01 170.863 177.841 173.421 175.573C177.106 172.337 180.963 169.407 184.891 166.861L185.157 166.686C186.289 165.936 187.697 165.005 189.208 165.704C190.706 166.395 191.519 168.266 191.547 169.757C191.574 171.692 190.695 173.457 189.848 175.346C186.223 183.584 186.773 190.016 187.686 197.695C187.975 200.04 189.669 204.359 186.553 205.69C185.287 206.231 183.706 205.892 182.552 205.106ZM185.827 167.696L185.552 167.878C178.758 172.282 173.984 176.712 173.741 176.912C170.167 180.075 169.143 181.684 171.082 186.032C171.913 187.802 172.218 188.179 180.565 200.954C181.353 202.173 182.15 203.331 183.245 204.112C184.761 205.139 186.819 205.026 187.144 203.076C187.408 201.442 186.706 199.626 186.486 197.869C185.583 190.28 184.912 183.555 188.737 174.86C189.495 173.172 190.358 171.439 190.335 169.777C190.315 168.694 189.735 167.282 188.701 166.805C187.771 166.374 186.701 167.119 185.827 167.696Z" fill="black"/>
<path d="M75.2321 133.138C75.0652 133.138 74.8983 133.07 74.7787 132.935C74.5562 132.685 74.5799 132.302 74.8296 132.079C79.7326 127.722 82.9736 121.815 85.6251 116.621C85.779 116.321 86.1412 116.207 86.4407 116.357C86.739 116.51 86.8573 116.874 86.7046 117.172C84.0022 122.465 80.6961 128.488 75.6346 132.986C75.5197 133.087 75.3753 133.138 75.2321 133.138Z" fill="black"/>
<path d="M137.921 104.281C134.608 96.3188 126.772 90.4818 118.079 89.9382C117.281 89.8872 117.342 88.673 118.155 88.7284C127.351 89.3011 135.57 95.4755 139.04 103.815C139.347 104.557 138.229 105.019 137.921 104.281Z" fill="black"/>
<path d="M99.4746 104.29C99.4746 103.97 99.7284 103.636 100.104 103.636C100.602 103.636 100.9 104.207 100.573 104.625C100.463 104.78 99.4746 104.872 99.4746 104.29Z" fill="#1A1615"/>
<path d="M88.8051 125.391C88.5056 125.242 88.3837 124.877 88.5316 124.578C89.726 122.174 90.8908 120.029 92.0165 117.955C92.5705 116.932 93.1233 115.914 93.6796 114.867C93.9412 114.373 94.8325 114.591 94.8325 115.151C94.8325 115.39 94.8189 115.331 93.0818 118.533C91.9609 120.597 90.802 122.732 89.6183 125.118C89.4672 125.42 89.1024 125.538 88.8051 125.391Z" fill="black"/>
<path d="M130.052 102.169C127.858 98.3601 123.769 95.5512 119.117 94.6563C118.331 94.503 118.557 93.3138 119.347 93.4655C124.34 94.4266 128.735 97.4546 131.103 101.563C131.503 102.258 130.454 102.863 130.052 102.169Z" fill="black"/>
<path d="M193.895 186.189C194.561 175.083 192.152 165.903 188.514 165.684C184.876 165.466 181.387 174.292 180.721 185.398C180.055 196.505 182.464 205.685 186.102 205.903C189.739 206.121 193.229 197.295 193.895 186.189Z" fill="#AAD5D5"/>
<path d="M186.235 206.515C179.293 206.515 178.142 183.209 182.94 171.072C184.517 167.086 186.49 164.955 188.551 165.08C190.593 165.202 192.316 167.553 193.404 171.701C194.436 175.634 194.826 180.793 194.499 186.226C193.896 196.278 190.651 206.515 186.235 206.515ZM184.067 171.519C179.131 184.007 181.183 205.002 186.137 205.301C191.283 205.529 195.545 184.637 192.232 172.009C191.315 168.513 189.912 166.377 188.477 166.29C186.483 166.21 184.802 169.658 184.067 171.519Z" fill="black"/>
<path d="M186.407 176.88L187.267 174.394C187.527 173.643 188.675 174.029 188.413 174.789L187.553 177.277C187.287 178.035 186.146 177.638 186.407 176.88Z" fill="black"/>
<path d="M189.096 183.946L186.245 182.983C185.496 182.732 185.858 181.589 186.633 181.835L189.485 182.798C189.802 182.904 189.972 183.249 189.865 183.566C189.761 183.872 189.429 184.055 189.096 183.946Z" fill="black"/>
<path d="M184.387 191.849L185.459 190.31C185.925 189.651 186.909 190.35 186.453 191.004L185.382 192.54C184.926 193.199 183.929 192.506 184.387 191.849Z" fill="black"/>
<path d="M189.348 196.016C188.936 196.016 188.844 195.704 187.501 194.533C186.911 193.989 187.729 193.101 188.322 193.64L189.759 194.963C190.163 195.336 189.9 196.016 189.348 196.016Z" fill="black"/>
<path d="M156.29 157.379C150.214 155.66 141.744 146.642 135.212 134.937C119.807 107.005 127.122 90.1341 144.644 108.798C145.194 109.382 144.307 110.213 143.761 109.627C133.299 98.4874 126.086 99.9654 128.363 113.45C128.552 113.837 128.921 118.855 133.142 128.162C134.136 130.305 135.191 132.389 136.271 134.35C142.655 145.789 150.833 154.576 156.621 156.212C162.799 157.967 163.225 150.624 161.959 144.214C161.045 138.323 157.379 129.978 154.241 124.318C149.981 116.74 148.732 116.558 149.618 115.92C149.89 115.724 150.268 115.786 150.464 116.058C155.906 123.635 161.287 134.561 163.123 143.784C163.144 143.924 163.159 144 163.159 144.097C164.497 150.806 163.633 155.46 160.715 157.087C159.348 157.855 157.782 157.8 156.29 157.379Z" fill="black"/>
<path d="M155.588 151.919C151.672 150.802 145.067 143.05 139.526 133.07C137.612 129.606 136.01 126.281 134.767 123.183C134.643 122.872 134.793 122.519 135.103 122.395C136.215 121.964 135.558 123.391 140.586 132.481C145.898 142.048 152.347 149.734 155.92 150.753C161.604 152.37 155.508 133.111 144.922 118.34C144.457 117.692 145.435 116.979 145.907 117.634C147.938 120.468 149.803 123.425 151.448 126.423C154.671 132.208 157.136 137.973 158.385 142.652C159.315 146.138 159.961 150.551 157.757 151.777C157.088 152.151 156.318 152.129 155.588 151.919Z" fill="black"/>
<path d="M131.945 113.77C130.847 107.009 134.221 105.193 139.868 110.567C140.448 111.118 139.617 112.001 139.033 111.445C134.703 107.321 132.151 107.472 133.14 113.576C133.27 114.365 132.071 114.564 131.945 113.77Z" fill="black"/>
<path d="M139.523 110.982C137.623 111.823 134.984 113.153 132.978 113.576C132.342 112.077 132.032 109.708 133.244 108.63C135.035 107.138 137.873 109.332 139.523 110.982Z" fill="black"/>
<path d="M158.651 147.878C146.898 125.284 145.891 122.074 141.875 119.418C143.014 118.933 144.178 118.472 145.317 118.012C152.033 126.933 157.511 136.921 158.651 147.878Z" fill="black"/>
<path d="M132.061 129.292C129.757 124.192 128.157 119.079 127.169 113.661C127.132 113.455 127.203 113.243 127.358 113.102C128.09 112.442 129.061 114.228 134.177 112.61C138.622 111.088 142.703 107.89 151.439 107.37C155.942 107.086 159.641 107.711 162.429 109.211C166.159 111.245 169.02 114.437 170.488 118.204C170.584 118.449 170.502 118.522 170.463 118.765C170.298 119.395 169.742 119.465 169.432 119.199C167.353 117.421 165.421 116.832 165.179 116.713C157.426 113.795 149.022 117.127 141.83 120.088C139.743 120.946 137.552 121.846 135.819 123.322C133.971 124.94 132.996 127.056 133.216 128.973C133.249 129.269 133.062 129.546 132.775 129.627C132.478 129.706 132.182 129.557 132.061 129.292ZM128.533 114.354C129.372 118.631 130.566 122.601 132.233 126.635C133.43 122.424 137.363 120.614 141.402 118.954C149.07 115.822 157.471 112.519 165.603 115.578C165.846 115.688 167.06 116.067 168.661 117.111C167.179 114.28 164.808 111.889 161.851 110.278C159.269 108.886 155.783 108.31 151.513 108.58C139.302 109.306 135.773 115.682 128.533 114.354Z" fill="black"/>
<path d="M162.08 143.7C165.113 141.531 168.266 139.154 170.551 136.052C174.663 130.366 174.762 123.712 169.435 119.202C168.823 118.683 169.607 117.762 170.219 118.276C176.119 123.275 175.939 130.67 171.53 136.767C169.137 140.016 165.898 142.46 162.785 144.687C162.131 145.152 161.429 144.167 162.08 143.7Z" fill="black"/>
<path d="M162.7 143.903C161.681 140.655 160.881 137.309 159.863 134.061C162.045 132.824 164.251 131.539 165.997 129.746C171.122 124.55 169.39 118.079 164.639 116C164.881 116.049 165.124 116.073 165.391 116.145C165.584 116.218 165.754 116.291 165.948 116.364C167.354 116.945 168.663 117.746 169.827 118.739L169.875 118.618C176.276 124.35 175.437 136.243 162.7 143.903Z" fill="black"/>
<path d="M66.2174 105.524C61.1782 93.5445 63.4142 85.5306 62.826 78.077C62.7599 77.2662 63.9732 77.2073 64.0334 77.9823C64.6488 85.7444 62.3903 93.304 67.3348 105.053C67.6468 105.793 66.5275 106.261 66.2174 105.524Z" fill="black"/>
<path d="M89.9449 118.627C88.8535 118.627 87.5005 118.23 85.8978 117.44C77.5142 113.339 79.3714 109.151 65.8208 112.11C65.0786 112.272 64.3211 112.437 63.5469 112.594C62.7633 112.758 62.5174 111.565 63.3054 111.406C70.043 110.048 75.3389 108.135 80.9534 112.794C82.1999 113.808 84.3862 115.351 86.4316 116.353C88.5978 117.42 90.2385 117.695 91.0564 117.121C91.9051 116.528 91.9252 114.967 91.7939 113.763C91.7666 113.509 91.9004 113.266 92.1288 113.152C92.3561 113.039 92.6296 113.08 92.8166 113.26C93.3871 113.809 93.9387 114.255 94.4596 114.589C94.4951 114.602 94.5282 114.619 94.5578 114.636C99.856 117.935 101.673 109.245 99.5294 104.542C99.5069 104.492 99.4915 104.44 99.4821 104.387C99.2948 103.731 100.058 103.338 100.485 103.765C103.21 106.641 107.474 108.11 109.681 106.974C111.537 106.012 111.451 103.441 111.05 101.453C111.008 101.243 111.08 101.026 111.241 100.882C111.629 100.532 112.083 100.885 112.466 100.967C113.837 101.425 115.696 102.062 117.216 101.215C117.837 100.871 118.182 100.319 118.372 99.3711C120.646 87.7594 111.125 77.46 100.023 75.9455C88.0066 76.1956 74.2825 80.1513 61.3215 81.2828C60.4632 81.2883 60.4601 80.1426 61.215 80.0754C73.8309 78.9742 87.8943 74.98 100.093 74.7393C111.729 76.2875 122.009 87.0564 119.561 99.6067C119.1 101.903 117.532 102.836 115.378 102.836C114.352 102.836 113.365 102.541 112.407 102.224C113.325 109.374 106.948 110.273 101.313 106.109C102.102 109.669 101.305 113.864 99.2796 115.645C97.4011 117.293 95.028 116.618 93.0604 115.079C93.0095 116.522 92.5716 117.54 91.7524 118.114C91.2647 118.456 90.661 118.627 89.9449 118.627Z" fill="black"/>
<path d="M111.061 101.452C109.805 95.4959 105.984 90.2639 101.091 87.7994C100.379 87.4423 100.911 86.3582 101.635 86.7175C106.851 89.343 110.917 94.8934 112.247 101.201C112.316 101.529 112.106 101.851 111.78 101.92C111.43 101.988 111.127 101.764 111.061 101.452Z" fill="black"/>
<path d="M99.4796 104.38C98.258 100.626 95.7994 97.6681 92.3702 95.8239C91.6708 95.4475 92.228 94.3789 92.9455 94.7562C96.6008 96.7224 99.3304 100.007 100.633 104.003C100.879 104.765 99.7301 105.142 99.4796 104.38Z" fill="black"/>
<path d="M91.8472 113.96C90.1864 110.433 86.9442 106.557 83.779 104.317C83.1272 103.854 83.8208 102.868 84.4797 103.327C87.8001 105.679 91.202 109.744 92.9433 113.444C93.0865 113.747 92.9563 114.108 92.6533 114.25C92.3503 114.393 91.9895 114.263 91.8472 113.96Z" fill="black"/>
<path d="M67.9476 110.507C68.2754 111.959 68.6356 113.499 68.1533 114.908C67.4301 117.02 65.9102 116.577 64.2756 116.739C61.5278 117.01 55.7605 119.119 52.5181 116.889C50.7817 115.694 50.1722 113.455 49.6989 111.401C47.7153 102.795 45.9376 93.8488 47.6905 85.1925C49.2496 77.4929 53.1507 78.0059 57.2806 77.2474C59.0381 76.9245 61.3119 76.3743 63.0241 77.0963C64.4615 77.7024 65.3745 79.184 65.7228 80.7046C66.4568 83.9097 64.2726 94.2227 67.9476 110.507Z" fill="black"/>
<path d="M64.7388 103.747C63.5077 98.5067 63.9599 93.0628 64.3967 87.7988C65.0866 79.5062 65.5973 77.6032 61.074 77.7515L54.0321 77.974C53.2274 77.983 53.1981 76.7872 53.9942 76.7619C61.6195 76.5831 63.3266 76.1203 64.8145 77.4413C68.0533 80.3169 63.4328 92.891 65.9178 103.47C66.1018 104.249 64.9213 104.53 64.7388 103.747Z" fill="black"/>
<path d="M108.628 186.667C107.059 185.914 105.95 184.134 105.802 182.135C105.69 180.609 106.053 178.994 106.946 177.052C107.866 175.047 108.942 173.566 110.232 172.525C110.492 172.315 110.873 172.356 111.084 172.615C111.294 172.877 111.254 173.258 110.994 173.468C108.807 175.233 106.812 179.341 107.012 182.045C107.128 183.62 107.968 185.006 109.153 185.576C109.455 185.72 109.582 186.082 109.436 186.384C109.29 186.687 108.926 186.812 108.628 186.667Z" fill="black"/>
<path d="M230.275 256.744C228.077 247.314 221.232 238.383 211 231.595C187.822 216.214 164.766 222.211 155.999 237.301C155.595 237.996 154.547 237.385 154.95 236.693C164.175 220.816 188.038 214.904 211.67 230.584C222.16 237.545 229.188 246.737 231.457 256.469C231.639 257.25 230.457 257.525 230.275 256.744Z" fill="black"/>
<path d="M243.978 257.689C231.931 206.224 218.276 147.893 226.485 91.7125C226.603 90.9207 227.801 91.0935 227.685 91.8877C219.508 147.841 233.136 206.053 245.159 257.412C245.341 258.195 244.163 258.468 243.978 257.689Z" fill="black"/>
<path d="M261.956 252.463C254.58 221.727 257.771 188.974 270.943 160.238C271.275 159.51 272.378 160.013 272.043 160.742C258.986 189.233 255.822 221.707 263.135 252.181C263.322 252.958 262.142 253.246 261.956 252.463Z" fill="black"/>
<path d="M272.337 257.228C272.331 257.228 272.324 257.228 272.317 257.228C271.982 257.216 271.72 256.937 271.731 256.602C272.027 247.797 276.505 234.443 283.452 226.171C285.052 224.267 286.827 222.548 288.727 221.063C288.987 220.856 289.369 220.901 289.576 221.168C290.319 222.11 288.474 222.078 284.38 226.95C277.535 235.102 273.223 248.238 272.943 256.642C272.931 256.97 272.662 257.228 272.337 257.228Z" fill="black"/>
<path d="M231.604 127.691C252.651 122.63 265.57 101.296 260.459 80.039C255.348 58.7824 234.142 45.653 213.095 50.7137C192.048 55.7744 179.13 77.1088 184.241 98.3654C189.352 119.622 210.557 132.751 231.604 127.691Z" fill="black"/>
<path d="M225.323 129.2C246.37 124.14 259.289 102.805 254.178 81.5487C249.066 60.2921 227.861 47.1628 206.814 52.2235C185.767 57.2842 172.848 78.6186 177.96 99.8752C183.071 121.132 204.276 134.261 225.323 129.2Z" fill="#F6D356"/>
<path d="M226.537 118.217C242.056 114.485 251.582 98.7533 247.813 83.0787C244.044 67.4041 228.408 57.7225 212.888 61.4541C197.368 65.1858 187.842 80.9177 191.611 96.5923C195.38 112.267 211.017 121.949 226.537 118.217Z" fill="black"/>
<path d="M222.893 119.094C238.413 115.362 247.939 99.6303 244.17 83.9557C240.401 68.2811 224.764 58.5994 209.244 62.3311C193.725 66.0628 184.199 81.7947 187.968 97.4693C191.737 113.144 207.373 122.826 222.893 119.094Z" fill="#F6D356"/>
<path d="M200.704 116.074C193.971 111.906 189.239 105.348 187.378 97.6115C183.537 81.6373 193.282 65.5471 209.102 61.7426C224.976 57.9298 240.909 67.8126 244.757 83.8141C250.988 109.719 222.957 129.859 200.704 116.074ZM209.386 62.9216C194.215 66.5698 184.872 82.0042 188.557 97.3274C190.342 104.753 194.883 111.044 201.342 115.044C222.677 128.254 249.553 108.947 243.578 84.0982C239.882 68.7233 224.57 59.2712 209.386 62.9216Z" fill="black"/>
<path d="M342.311 184.436C337.85 174.515 330.32 165.714 321.947 158.497C321.002 157.673 318.869 155.103 317.559 155.127C316.953 155.151 316.396 155.515 316.129 156.048C315.457 157.297 315.154 167.222 313.996 173.042C310.488 190.739 302.043 202.479 292.735 208.873C291.135 209.988 287.377 211.515 286.82 213.551C286.444 214.931 287.779 217.861 287.668 226.691C287.668 228.266 287.596 229.842 287.911 231.394C288.687 235.127 304.396 231.442 306.99 230.57C310.941 229.236 314.674 227.054 317.608 224.048C320.396 221.188 323.281 218.473 326.02 215.563C330.432 210.86 334.578 205.842 337.923 200.315C340.59 195.927 344.687 189.697 342.311 184.436ZM336.759 187.903C335.819 188.294 335.422 188.302 334.868 188.46C331.93 189.382 331.06 192.799 332.929 194.57C333.171 194.812 333.462 195.006 333.608 195.297C333.947 195.927 333.171 196.921 332.881 197.454C330.529 201.911 322.833 212.812 320.662 215.321C316.347 220.388 310.505 224.194 304.105 226.109C304.081 226.133 304.056 226.133 304.032 226.109C303.699 226.22 303.268 226.151 303.038 226.036C302.485 225.668 302.354 223.658 300.008 223.297C297.276 222.893 295.66 225.606 294.965 225.745C293.559 226.182 292.905 221.988 292.662 221.115C292.299 219.83 291.959 218.521 291.959 217.188C292.012 216.771 292.009 216.569 292.517 216.315C293.414 215.854 294.335 215.612 294.868 214.715C295.256 214.06 295.79 213.26 295.644 212.461C295.596 212.121 295.426 211.806 295.499 211.467C295.717 210.691 297.753 209.939 298.384 209.551C308.32 203.209 312.158 191.189 313.559 188.873C316.812 183.464 316.769 175.776 317.487 174.473C318.335 172.97 320.881 173.988 321.171 171.709C321.317 170.473 320.444 169.333 320.347 168.097C320.347 167.879 320.347 167.66 320.468 167.467C320.784 167.03 321.462 167.2 321.923 167.418C325.39 169.042 328.202 171.854 330.432 174.836C332.827 178.053 340.433 186.565 336.759 187.903Z" fill="#FF8000"/>
<path d="M304.105 226.109L303.839 226.182C303.912 226.158 303.96 226.133 304.033 226.109C304.057 226.133 304.081 226.133 304.105 226.109Z" fill="white"/>
<path d="M310.515 200.693C312.213 198.648 314.529 197.05 317.137 196.539C324.381 195.12 326.062 203.575 317.779 210.634C308.011 218.96 301.754 211.246 310.515 200.693Z" fill="black"/>
<path d="M271.423 185.83C270.883 191.968 272.168 200.234 263.362 200.76C260.546 200.928 257.807 199.915 255.183 198.88C253.745 198.313 252.187 197.62 251.523 196.224C251.171 195.484 251.124 194.64 251.107 193.82C250.947 186.382 252.517 177.163 257.144 171.105C263.127 163.27 273.581 159.495 278.645 151.037C279.49 149.625 279.992 147.461 278.582 146.613C277.304 145.845 275.69 146.94 270.524 146.533C267.845 146.323 267.023 144.876 268.923 142.371C274.713 134.738 280.503 127.105 286.293 119.472C287.271 118.184 288.651 116.743 290.217 117.148C291.199 117.402 291.843 118.316 292.393 119.17C297.875 127.689 302.656 136.658 306.673 145.958C306.919 146.526 307.166 147.121 307.133 147.74C307.012 150.01 303.704 150.359 301.602 149.493C299.499 148.626 297.053 147.278 295.155 148.529C295.001 154.03 292.871 159.455 289.241 163.591C283.056 170.638 272.452 174.125 271.423 185.83Z" fill="#008080"/>
<path d="M141.04 267.966C141.103 268.039 141.231 268.026 141.317 268.035C154.276 269.304 165.353 259.559 166.297 247.117C168.237 221.533 131.989 212.171 122.33 237.044C121.642 238.814 121.156 240.725 120.93 242.744C120.908 242.941 120.845 243.352 121.15 243.369C121.258 243.375 123.122 243.346 144.255 243.386C145.083 243.387 144.987 243.285 144.891 243.876C142.696 257.376 143.659 251.452 141.04 267.561C141.022 267.675 140.956 267.848 141.04 267.966Z" fill="#AAD5D5"/>
<path d="M136.733 277.714L142.535 247.869C142.706 246.988 142.012 246.178 141.116 246.211L108.267 247.433C108.233 247.701 108.233 248.003 108.232 248.271C108.209 264.016 119.991 276.986 135.225 278.835C135.94 278.921 136.595 278.421 136.733 277.714Z" fill="black"/>
<path d="M135.152 279.436C119.436 277.53 107.602 264.131 107.626 248.27C107.626 247.98 107.628 247.65 107.665 247.358C107.702 247.063 107.947 246.838 108.244 246.827L141.093 245.605C142.42 245.576 143.369 246.745 143.13 247.983L137.328 277.829C137.125 278.867 136.155 279.559 135.152 279.436ZM108.839 248.017C108.838 248.104 108.838 248.189 108.838 248.271C108.816 263.519 120.19 276.4 135.298 278.233C135.679 278.273 136.059 278.001 136.137 277.597C142.129 246.188 142.234 247.642 141.765 247.092C141.289 246.54 143.167 246.855 108.839 248.017Z" fill="black"/>
<path d="M222.728 140.703C223.711 140.072 225.034 140.135 226.076 140.662C229.269 142.277 230.575 148.077 229.425 150.256C228.316 152.355 224.874 152.426 222.949 149.251C221.613 147.046 219.889 142.525 222.728 140.703Z" fill="black"/>
<path d="M233.849 194.02C235.104 196.2 235.615 199.566 234.782 201.143C233.674 203.242 230.232 203.313 228.307 200.138C223.213 191.734 230.461 188.132 233.849 194.02Z" fill="black"/>
<path d="M238.816 236.708C239.799 236.077 241.122 236.14 242.164 236.667C245.357 238.282 246.663 244.082 245.513 246.26C244.404 248.36 240.962 248.431 239.037 245.256C237.701 243.051 235.977 238.53 238.816 236.708Z" fill="black"/>
<path d="M175.719 223.305C175.468 222.164 175.984 220.945 176.84 220.149C179.461 217.713 185.354 218.496 187 220.33C188.586 222.097 187.46 225.35 183.815 226.057C181.284 226.547 176.445 226.599 175.719 223.305Z" fill="black"/>
<path d="M212.026 227.518C214.362 228.45 216.851 230.773 217.176 232.526C217.608 234.861 214.952 237.052 211.473 235.754C202.353 232.354 205.643 224.972 212.026 227.518Z" fill="black"/>
<path d="M258.906 208.254C260.06 208.072 261.246 208.661 261.988 209.563C264.262 212.326 263.124 218.162 261.195 219.693C259.335 221.17 256.155 219.85 255.67 216.169C255.334 213.612 255.574 208.78 258.906 208.254Z" fill="black"/>
<path d="M277.521 231.753C278.676 231.931 279.625 232.854 280.058 233.94C281.381 237.264 278.52 242.475 276.215 243.346C273.994 244.186 271.367 241.96 272.027 238.306C272.486 235.768 274.187 231.239 277.521 231.753Z" fill="black"/>
<path d="M209.64 201.844C206.746 198.1 202.416 195.456 197.76 194.591C196.977 194.447 197.187 193.255 197.983 193.4C202.926 194.318 207.524 197.126 210.599 201.103C211.09 201.739 210.128 202.478 209.64 201.844Z" fill="black"/>
<path d="M206.444 189.849L200.455 187.8C199.693 187.54 200.095 186.391 200.848 186.654L206.837 188.703C207.595 188.961 207.203 190.111 206.444 189.849Z" fill="black"/>
<path d="M288.096 107.553C287.646 105.128 287.44 102.644 287.481 100.173C287.486 99.8413 287.756 99.5762 288.087 99.5762H288.096C289.298 99.5974 288.118 100.998 289.287 107.333C289.434 108.12 288.24 108.343 288.096 107.553Z" fill="black"/>
<path d="M292.653 108.417C294.446 104.028 296.719 99.8236 299.407 95.9209C299.864 95.2561 300.86 95.9505 300.406 96.6075C297.767 100.44 295.535 104.568 293.775 108.877C293.472 109.618 292.35 109.16 292.653 108.417Z" fill="black"/>
<path d="M296.82 113.022L303.476 108.183C304.124 107.71 304.837 108.693 304.189 109.163L297.533 114.002C296.881 114.475 296.173 113.491 296.82 113.022Z" fill="black"/>
<path d="M103.649 307.07C81.8972 298.066 70.5688 279.736 70.5097 270.655C68.7472 269.157 67.3776 267.213 66.3904 265.491C54.745 245.167 65.2363 220.019 72.5267 206.838C72.6889 206.546 73.0582 206.441 73.3506 206.601C73.643 206.763 73.7495 207.131 73.5874 207.425C66.42 220.383 56.0921 245.079 67.4415 264.887C68.2358 266.274 69.2917 267.813 70.602 269.1C71.2214 264.336 74.8438 261.974 78.5554 262.214C82.9991 262.48 84.8254 266.867 82.1894 270.256C79.8145 273.311 75.7234 274.182 71.7656 271.598C72.5219 280.412 83.5412 297.434 104.113 305.95C115.872 310.818 129.475 312.877 145.677 312.212C146.484 312.187 146.523 313.39 145.726 313.424C131.258 313.999 116.919 312.561 103.649 307.07ZM71.7325 270.09C72.9174 271.003 74.2727 271.675 75.7962 271.883C79.2632 272.326 83.2509 268.867 81.9527 265.654C80.5308 262.133 74.5476 263.072 72.7398 266.343C72.1314 267.449 71.7952 268.699 71.7325 270.09Z" fill="black"/>
</svg>
