<svg width="33" height="33" viewBox="0 0 33 33" fill="none" xmlns="http://www.w3.org/2000/svg">
<path fill-rule="evenodd" clip-rule="evenodd" d="M16.1373 29.7176C16.285 29.7947 16.4501 29.8339 16.6152 29.8326C16.7803 29.8313 16.9441 29.7908 17.0931 29.7123L21.8502 27.1693C23.1993 26.4502 24.2557 25.6461 25.0798 24.7099C26.8718 22.6703 27.8504 20.0671 27.8329 17.3829L27.7766 8.52866C27.7712 7.50883 27.1014 6.59883 26.1107 6.26804L17.2608 3.29877C16.7279 3.11834 16.144 3.12226 15.6205 3.30792L6.80419 6.3831C5.81893 6.72696 5.16119 7.6435 5.16656 8.66464L5.22294 17.5123C5.24039 20.2005 6.2525 22.7919 8.07402 24.8106C8.90626 25.7337 9.97206 26.526 11.3359 27.2334L16.1373 29.7176ZM14.878 19.3113C15.0766 19.5021 15.3344 19.5963 15.5921 19.5937C15.8498 19.5924 16.1062 19.4956 16.3022 19.3021L21.501 14.1768C21.8916 13.7911 21.8875 13.1714 21.4929 12.7909C21.0969 12.4104 20.4593 12.413 20.0687 12.7987L15.5773 17.2258L13.7383 15.4581C13.3424 15.0777 12.7061 15.0816 12.3141 15.4673C11.9235 15.853 11.9276 16.4727 12.3235 16.8532L14.878 19.3113Z" fill="#CCE6E6"/>
</svg>
