<svg width="33" height="33" viewBox="0 0 33 33" fill="none" xmlns="http://www.w3.org/2000/svg">
<path d="M16.5 25.4993C15.9533 25.4993 15.5 25.046 15.5 24.4993V23.166C15.5 22.6193 15.9533 22.166 16.5 22.166C17.0467 22.166 17.5 22.6193 17.5 23.166V24.4993C17.5 25.046 17.0467 25.4993 16.5 25.4993Z" fill="#CCE6E6"/>
<path d="M16.5 30.8333C15.9533 30.8333 15.5 30.38 15.5 29.8333V28.5C15.5 27.9533 15.9533 27.5 16.5 27.5C17.0467 27.5 17.5 27.9533 17.5 28.5V29.8333C17.5 30.38 17.0467 30.8333 16.5 30.8333Z" fill="#CCE6E6"/>
<path d="M3.1668 30.8341C3.0868 30.8341 3.0068 30.8208 2.9268 30.8074C2.39346 30.6741 2.06013 30.1274 2.19346 29.5941L3.5268 24.2608C3.66013 23.7274 4.19346 23.3941 4.74013 23.5274C5.27346 23.6608 5.6068 24.2074 5.47346 24.7408L4.14013 30.0741C4.02013 30.5274 3.62013 30.8341 3.1668 30.8341Z" fill="#CCE6E6"/>
<path d="M29.5033 30.5029C29.05 30.5029 28.65 30.1962 28.53 29.7429L27.1967 24.4095C27.0633 23.8762 27.3833 23.3295 27.93 23.1962C28.4633 23.0629 29.01 23.3829 29.1433 23.9295L30.4767 29.2629C30.61 29.7962 30.29 30.3429 29.7433 30.4762C29.6633 30.4895 29.5833 30.5029 29.5033 30.5029Z" fill="#CCE6E6"/>
<path d="M26.02 7.56732C26.02 7.96732 25.6867 8.28732 25.3 8.28732H7.87332C7.47332 8.28732 7.15332 7.95398 7.15332 7.56732C7.15332 7.16732 7.48665 6.84732 7.87332 6.84732H8.85999L9.23332 5.10065C9.57999 3.39398 10.3 1.83398 13.18 1.83398H19.9667C22.8467 1.83398 23.58 3.39398 23.9267 5.08732L24.3 6.83398H25.2867C25.6867 6.83398 26.02 7.16732 26.02 7.56732Z" fill="#CCE6E6"/>
<path d="M26.4332 13.0336C26.2865 11.4336 25.8599 9.74023 22.7532 9.74023H10.4065C7.29987 9.74023 6.88653 11.4469 6.72653 13.0336L6.17987 18.9269C6.1132 19.6602 6.3532 20.3936 6.85987 20.9536C7.37987 21.5136 8.09987 21.8336 8.8732 21.8336H10.6865C12.2599 21.8336 12.5532 20.9402 12.7532 20.3402L12.9532 19.7536C13.1799 19.0869 13.2332 18.9269 14.0999 18.9269H19.0599C19.9265 18.9269 19.9532 19.0202 20.2065 19.7536L20.4065 20.3402C20.5932 20.9402 20.8999 21.8336 22.4599 21.8336H24.2732C25.0332 21.8336 25.7665 21.5136 26.2865 20.9536C26.7932 20.4069 27.0332 19.6602 26.9665 18.9269L26.4332 13.0336ZM13.6732 15.0602H10.7799C10.3799 15.0602 10.0599 14.7269 10.0599 14.3402C10.0599 13.9536 10.3932 13.6202 10.7799 13.6202H13.6865C14.0865 13.6202 14.4065 13.9536 14.4065 14.3402C14.4065 14.7269 14.0732 15.0602 13.6732 15.0602ZM22.3799 15.0602H19.4732C19.0732 15.0602 18.7532 14.7269 18.7532 14.3402C18.7532 13.9536 19.0865 13.6202 19.4732 13.6202H22.3799C22.7799 13.6202 23.0999 13.9536 23.0999 14.3402C23.0999 14.7269 22.7799 15.0602 22.3799 15.0602Z" fill="#CCE6E6"/>
</svg>
