<svg width="25" height="24" viewBox="0 0 25 24" fill="none" xmlns="http://www.w3.org/2000/svg">
<path fill-rule="evenodd" clip-rule="evenodd" d="M17.6776 13.8887C18.3523 13.8887 18.9187 14.4455 18.8155 15.1118C18.2102 19.0318 14.8544 21.9423 10.8071 21.9423C6.32918 21.9423 2.69971 18.3129 2.69971 13.836C2.69971 10.1476 5.50181 6.71181 8.65655 5.93497C9.33444 5.7676 10.0292 6.24445 10.0292 6.94234C10.0292 11.6708 10.1881 12.8939 11.086 13.5592C11.9839 14.2244 13.0397 13.8887 17.6776 13.8887Z" stroke="#CECFD2" stroke-width="1.5" stroke-linecap="round" stroke-linejoin="round"/>
<path fill-rule="evenodd" clip-rule="evenodd" d="M22.092 9.95121C22.1457 6.91331 18.4142 2.01647 13.8668 2.10068C13.5131 2.107 13.2299 2.40173 13.2142 2.75437C13.0994 5.25226 13.2542 8.4891 13.3405 9.95647C13.3668 10.4133 13.7257 10.7723 14.1815 10.7986C15.6899 10.8849 19.0447 11.0028 21.5068 10.6302C21.8415 10.5796 22.0868 10.2891 22.092 9.95121Z" stroke="#CECFD2" stroke-width="1.5" stroke-linecap="round" stroke-linejoin="round"/>
</svg>
