<svg width="27" height="27" viewBox="0 0 27 27" fill="none" xmlns="http://www.w3.org/2000/svg">
<path fill-rule="evenodd" clip-rule="evenodd" d="M0.166504 13.5194C0.166504 6.49551 5.77984 0.166016 13.5265 0.166016C21.0998 0.166016 26.8332 6.37533 26.8332 13.4793C26.8332 21.7183 20.1132 26.8327 13.4998 26.8327C11.3132 26.8327 8.8865 26.2451 6.93984 25.0967C6.25984 24.6828 5.6865 24.3757 4.95317 24.616L2.25984 25.4172C1.57984 25.6309 0.966504 25.0967 1.1665 24.3757L2.05984 21.3845C2.2065 20.9706 2.17984 20.5299 1.9665 20.1827C0.819837 18.0729 0.166504 15.7627 0.166504 13.5194ZM11.7665 13.5194C11.7665 14.4675 12.5265 15.2286 13.4732 15.242C14.4198 15.242 15.1798 14.4675 15.1798 13.5327C15.1798 12.5846 14.4198 11.8235 13.4732 11.8235C12.5398 11.8101 11.7665 12.5846 11.7665 13.5194ZM17.9132 13.5327C17.9132 14.4675 18.6732 15.242 19.6198 15.242C20.5665 15.242 21.3265 14.4675 21.3265 13.5327C21.3265 12.5846 20.5665 11.8235 19.6198 11.8235C18.6732 11.8235 17.9132 12.5846 17.9132 13.5327ZM7.3265 15.242C6.39317 15.242 5.61984 14.4675 5.61984 13.5327C5.61984 12.5846 6.37984 11.8235 7.3265 11.8235C8.27317 11.8235 9.03317 12.5846 9.03317 13.5327C9.03317 14.4675 8.27317 15.2286 7.3265 15.242Z" fill="#CCE6E6"/>
</svg>
