<svg width="120" height="100" viewBox="0 0 120 100" fill="none" xmlns="http://www.w3.org/2000/svg">
<g opacity="0.15" clip-path="url(#clip0_113_2721)">
<path d="M106.006 61.2591C107.054 55.0104 109.66 52.1473 114.381 50.879C119.101 49.6107 123.43 55.8412 126.19 57.7887C128.953 59.7411 133.236 58.8112 133.302 62.2276C133.364 65.6469 125.492 69.6447 120.48 69.6309C115.467 69.6171 111.98 66.7181 111.98 66.7181C111.98 66.7181 105.046 66.9962 106.004 61.2542L106.006 61.2591Z" fill="#FF8000"/>
<path d="M129.254 67.2878C126.564 68.841 123.124 69.93 120.473 69.9177C115.788 69.8996 112.454 67.4596 111.877 67.0082C111.256 67.0173 108.235 66.9479 106.619 65.1186C105.754 64.1344 105.45 62.8198 105.719 61.2073C106.737 55.1137 109.305 51.9434 114.297 50.5974C117.95 49.6158 121.263 52.8194 123.93 55.3941C124.813 56.2493 125.647 57.0538 126.349 57.5514C127.343 58.2566 128.547 58.5707 129.708 58.8694C131.678 59.3805 133.537 59.8701 133.58 62.2185C133.598 63.1513 133.099 64.138 132.109 65.1517C131.361 65.9129 130.369 66.6376 129.251 67.2828L129.254 67.2878ZM111.438 52.3603C108.599 53.9991 107.037 56.7867 106.282 61.3039C106.041 62.7357 106.3 63.8918 107.046 64.7399C108.636 66.5452 111.93 66.4371 111.96 66.4327C112.032 66.431 112.097 66.4526 112.156 66.4977C112.191 66.5237 115.631 69.3309 120.477 69.3419C124.098 69.3548 129.239 67.2503 131.706 64.7512C132.579 63.8648 133.033 62.9958 133.013 62.2296C132.98 60.3103 131.475 59.9197 129.565 59.4204C128.408 59.1188 127.103 58.7776 126.016 58.0139C125.282 57.4952 124.432 56.6739 123.533 55.8017C120.969 53.3257 117.786 50.2447 114.447 51.1435C113.312 51.4496 112.315 51.8471 111.44 52.3525L111.438 52.3603Z" fill="#0C111D"/>
<path d="M112.118 66.9685C112.014 67.0284 111.875 67.0163 111.781 66.9325C110.029 65.3261 109.167 63.0677 109.13 62.9701C109.073 62.8252 109.147 62.657 109.295 62.6047C109.44 62.5474 109.608 62.6217 109.661 62.7695C109.672 62.7893 110.513 65.0003 112.165 66.5129C112.279 66.6186 112.289 66.797 112.182 66.9186C112.162 66.9428 112.138 66.9571 112.113 66.9713L112.118 66.9685Z" fill="#0C111D"/>
<path d="M52.053 107.264C48.4976 103.778 42.4581 103.618 38.3733 106.274C35.5181 105.588 32.2875 106.833 30.5429 109.179C30.1698 109.698 28.4731 112.161 29.4374 112.54C29.6914 112.638 29.9854 112.508 30.0827 112.254C31.2369 109.148 33.9881 107.632 36.6442 107.813C34.4837 110.774 35.7819 115.524 39.2684 116.88C41.3268 117.716 43.7587 116.378 44.4444 114.334C45.1059 112.099 44.0519 110.011 42.4133 108.497C42.5223 108.48 42.6313 108.464 42.7403 108.447C44.8818 108.068 47.3229 108.63 48.7711 110.167C50.7445 112.272 53.8994 109.468 52.0403 107.264L52.053 107.264ZM42.0007 111.597C42.5927 112.851 42.1834 114.129 40.9338 114.409C39.8733 114.513 38.8998 112.998 38.7811 111.959C38.5429 110.633 39.2155 109.776 40.1884 109.235C40.9099 109.833 41.5353 110.62 42.0036 111.602L42.0007 111.597Z" fill="#FF8000"/>
<path d="M42.7119 116.838C42.5883 116.909 42.4668 116.973 42.3374 117.034C41.2892 117.514 40.1611 117.559 39.1699 117.155C37.4543 116.491 36.1473 115.003 35.5821 113.088C35.0736 111.351 35.2836 109.522 36.1265 108.092C33.552 108.121 31.3219 109.752 30.3554 112.36C30.2006 112.766 29.7447 112.97 29.3389 112.815C29.1161 112.726 28.9681 112.561 28.8984 112.338C28.6416 111.471 29.7983 109.728 30.3107 109.017C32.1286 106.569 35.4031 105.332 38.3169 105.97C42.6859 103.191 48.7827 103.666 52.2456 107.061C52.2513 107.071 52.2542 107.076 52.2649 107.083C53.3471 108.363 52.9051 109.779 52.0381 110.55C51.171 111.321 49.7189 111.592 48.5681 110.364C47.3114 109.033 45.1568 108.384 43.0213 108.694C44.6729 110.424 45.2905 112.487 44.7233 114.417C44.3892 115.414 43.6487 116.29 42.7091 116.833L42.7119 116.838ZM32.9207 108.387C34.0285 107.747 35.3147 107.44 36.6736 107.532C36.7763 107.539 36.8673 107.605 36.9137 107.697C36.9602 107.789 36.9465 107.902 36.8824 107.985C35.9039 109.328 35.6231 111.172 36.1324 112.922C36.6437 114.664 37.8248 116.013 39.3807 116.618C40.2329 116.963 41.1952 116.929 42.1014 116.511C43.0825 116.063 43.8578 115.213 44.1835 114.247C44.9336 111.698 43.2828 109.684 42.2317 108.708C42.1506 108.636 42.1232 108.52 42.1503 108.419C42.1825 108.314 42.2699 108.238 42.3761 108.216C42.49 108.196 42.599 108.179 42.713 108.16C45.0951 107.741 47.5631 108.452 48.992 109.968C49.8752 110.915 51.0011 110.707 51.6693 110.117C52.3374 109.526 52.6739 108.442 51.8472 107.456C48.5373 104.224 42.695 103.812 38.536 106.51C38.4668 106.55 38.3911 106.567 38.3131 106.546C35.5876 105.891 32.4898 107.047 30.7832 109.344C30.049 110.368 29.3148 111.689 29.4585 112.166C29.4772 112.221 29.5071 112.25 29.5546 112.275C29.6646 112.317 29.7841 112.262 29.8261 112.152C30.4447 110.482 31.546 109.181 32.9207 108.387ZM41.6042 114.451C41.4212 114.556 41.2162 114.635 40.994 114.684C39.7225 114.812 38.6308 113.161 38.4938 111.987C38.2644 110.722 38.8022 109.666 40.0479 108.98C40.1517 108.92 40.2778 108.933 40.3696 109.012C41.1558 109.665 41.7913 110.492 42.2596 111.474C42.6199 112.236 42.6525 113.034 42.3472 113.659C42.1858 113.996 41.9256 114.265 41.6042 114.451ZM40.1553 109.577C39.2407 110.151 38.8821 110.912 39.0594 111.904C39.1662 112.832 40.052 114.206 40.9037 114.117C41.3176 114.023 41.6479 113.773 41.8354 113.401C42.0656 112.932 42.0338 112.317 41.7443 111.713C41.3432 110.869 40.8088 110.149 40.1574 109.569L40.1553 109.577Z" fill="#0C111D"/>
<path d="M142.904 74.4602C149.679 86.1951 148.628 100.682 141.482 113.498L148.531 125.708C145.765 132.006 139.222 135.783 132.385 135.029L128.842 128.892C125.846 131.492 122.525 133.871 118.9 135.964C115.275 138.057 111.554 139.744 107.805 141.038L111.348 147.175C108.577 153.476 102.039 157.251 95.202 156.497L88.1528 144.287C73.4807 144.068 60.409 137.735 53.6339 126C43.5097 108.465 50.8651 84.7738 69.9193 69.731C72.3126 67.8349 74.8886 66.0839 77.6381 64.4965C81.4854 62.2752 85.4446 60.5103 89.4355 59.1886L89.4404 59.1857C110.984 52.0291 133.288 57.8048 142.904 74.4602Z" fill="#FF8000"/>
<path d="M142.134 133.278C139.25 134.942 135.853 135.704 132.353 135.318C132.263 135.31 132.185 135.256 132.14 135.177L128.768 129.337C122.797 134.459 115.647 138.587 108.226 141.197L111.598 147.037C111.643 147.116 111.646 147.213 111.613 147.292C108.777 153.743 102.17 157.557 95.1751 156.782C95.0851 156.775 95.0077 156.721 94.962 156.642L87.9927 144.57C72.6036 144.297 59.9977 137.583 53.3938 126.145C43.3467 108.743 50.2263 84.9245 69.752 69.5106C72.1622 67.5982 74.7728 65.8272 77.5025 64.2512C81.2905 62.0642 85.2737 60.2722 89.3345 58.9233C89.3395 58.9205 89.3494 58.9147 89.3543 58.9119C111.54 51.5427 133.665 57.8767 143.156 74.3145C149.762 85.7576 149.271 100.026 141.813 113.491L148.782 125.562C148.828 125.641 148.831 125.738 148.798 125.817C147.382 129.041 145.019 131.605 142.141 133.267L142.134 133.278ZM132.555 134.766C139.206 135.436 145.462 131.824 148.207 125.729L141.229 113.643C141.177 113.554 141.176 113.45 141.225 113.362C148.655 100.033 149.175 85.9054 142.651 74.6057C133.301 58.4102 111.466 52.1791 89.543 59.4557C89.5381 59.4586 89.5282 59.4643 89.5232 59.4671C85.4871 60.8018 81.5365 62.5815 77.7781 64.7514C75.0731 66.3132 72.4873 68.0698 70.0911 69.961C50.7928 85.1975 43.9712 108.706 53.8784 125.865C60.4052 137.17 72.9002 143.783 88.1559 144.008C88.2558 144.01 88.346 144.063 88.3974 144.152L95.3752 156.238C102.021 156.911 108.282 153.297 111.027 147.202L107.555 141.188C107.512 141.114 107.507 141.025 107.533 140.944C107.566 140.865 107.629 140.803 107.704 140.773C115.286 138.156 122.59 133.939 128.647 128.681C128.712 128.624 128.798 128.601 128.881 128.619C128.964 128.637 129.038 128.686 129.081 128.76L132.553 134.774L132.555 134.766Z" fill="#0C111D"/>
<path d="M144.645 76.7787C142.578 73.1984 138.311 71.5537 133.914 72.1937L133.428 71.353L128.998 73.9112C123.202 77.2574 120.811 83.9654 123.657 88.8958C126.504 93.8261 133.509 95.1095 139.304 91.7633L143.735 89.2051L143.25 88.3644C146.008 84.8731 146.715 80.364 144.645 76.7787Z" fill="#FF8000"/>
<path d="M143.878 89.4524L139.447 92.0106C133.522 95.431 126.33 94.0975 123.409 89.0385C120.489 83.9796 122.93 77.0844 128.854 73.664L133.285 71.1058C133.424 71.0258 133.595 71.0718 133.675 71.2103L134.066 71.8878C138.638 71.2859 142.873 73.1397 144.891 76.636C146.91 80.1322 146.398 84.7269 143.591 88.3849L143.982 89.0624C144.062 89.2008 144.016 89.3725 143.878 89.4524ZM129.14 74.1585C123.487 77.4219 121.14 83.9661 123.904 88.753C126.668 93.54 133.509 94.7794 139.161 91.516L143.345 89.1006L143.002 88.5072C142.945 88.4083 142.95 88.2801 143.029 88.1884C145.797 84.6914 146.335 80.2665 144.405 76.9236C142.475 73.5806 138.374 71.8339 133.961 72.4825C133.844 72.4972 133.729 72.4453 133.672 72.3464L133.329 71.753L129.145 74.1684L129.14 74.1585Z" fill="#0C111D"/>
<path d="M145.238 82.1458C144.046 82.8338 142.027 81.4943 140.639 79.0909C139.252 76.6876 139.101 74.2688 140.293 73.5807C141.485 72.8926 143.504 74.2322 144.892 76.6355C146.28 79.0389 146.43 81.4577 145.238 82.1458ZM140.581 74.0802C139.795 74.5341 139.829 76.5455 141.136 78.8103C142.444 81.0752 144.169 82.1101 144.955 81.6562C145.742 81.2022 145.708 79.1909 144.4 76.926C143.093 74.6611 141.368 73.6262 140.581 74.0802ZM110.473 78.131C110.473 78.131 110.453 78.1424 110.443 78.1481C110.301 78.2103 110.128 78.1389 110.071 77.9939C110.054 77.9643 108.803 74.8952 111.135 73.4761C113.009 72.348 114.869 73.8455 115.59 74.8076C115.682 74.9326 115.659 75.1105 115.537 75.2073C115.412 75.2993 115.234 75.2767 115.137 75.1546C115.063 75.0593 113.321 72.8077 111.433 73.9699C109.516 75.1364 110.583 77.7508 110.598 77.7756C110.654 77.9078 110.6 78.0645 110.476 78.1359L110.473 78.131ZM126.857 68.672C126.857 68.672 126.837 68.6834 126.827 68.6892C126.685 68.7514 126.512 68.6799 126.454 68.535C126.437 68.5053 125.186 65.4363 127.519 64.0172C129.398 62.8862 131.253 64.3865 131.973 65.3487C132.065 65.4736 132.042 65.6515 131.92 65.7484C131.795 65.8403 131.618 65.8177 131.521 65.6956C131.446 65.6004 129.709 63.3459 127.817 64.5109C125.899 65.6775 126.967 68.2919 126.981 68.3166C127.038 68.4488 126.983 68.6056 126.859 68.677L126.857 68.672Z" fill="#0C111D"/>
<path d="M102.633 67.8755C96.6977 65.6581 92.915 66.4838 89.4563 69.9378C85.9976 73.3919 89.2289 80.2562 89.5357 83.6198C89.8453 86.9884 86.8985 90.2326 89.8237 91.9988C92.7539 93.7621 100.152 88.9434 102.647 84.5955C105.141 80.2477 104.374 75.7784 104.374 75.7784C104.374 75.7784 108.082 69.9123 102.63 67.8705L102.633 67.8755Z" fill="#FF8000"/>
<path d="M96.2244 91.0255C95.1068 91.6707 93.9878 92.1651 92.95 92.4346C91.5796 92.7906 90.4759 92.7289 89.6741 92.2424C87.6622 91.0303 88.1674 89.1759 88.7097 87.2144C89.0289 86.0543 89.3586 84.8551 89.2477 83.6466C89.1709 82.7942 88.8883 81.665 88.589 80.4729C87.6926 76.8761 86.572 72.3999 89.2516 69.7319C92.9134 66.0815 96.9427 65.4431 102.729 67.608C104.26 68.1813 105.246 69.1019 105.666 70.343C106.447 72.6549 104.989 75.3032 104.674 75.8415C104.776 76.567 105.225 80.6793 102.895 84.741C101.577 87.0381 98.9174 89.4772 96.2273 91.0304L96.2244 91.0255ZM92.205 68.1322C91.3297 68.6376 90.487 69.3022 89.6543 70.1324C87.2067 72.5741 88.2784 76.8742 89.1458 80.3295C89.4515 81.5443 89.7378 82.6911 89.8197 83.5867C89.9396 84.9021 89.5807 86.2105 89.2635 87.3628C88.7429 89.2591 88.3317 90.7624 89.9722 91.7538C90.6277 92.1468 91.6103 92.1927 92.8094 91.8828C96.2101 91.0007 100.595 87.5985 102.4 84.4535C104.805 80.2492 104.102 75.8681 104.097 75.8249C104.083 75.7542 104.101 75.684 104.139 75.6229C104.155 75.5938 105.895 72.7954 105.127 70.5161C104.766 69.4454 103.894 68.6433 102.533 68.1365C98.2388 66.5344 95.0485 66.4906 92.21 68.1294L92.205 68.1322Z" fill="#0C111D"/>
<path d="M104.521 76.0221C104.521 76.0221 104.472 76.0506 104.442 76.055C104.29 76.0897 104.136 75.994 104.098 75.8377C103.609 73.6541 102.12 71.8171 102.109 71.7973C102.012 71.6752 102.027 71.4953 102.149 71.3984C102.271 71.3015 102.451 71.3163 102.548 71.4384C102.614 71.5189 104.139 73.3947 104.654 75.7148C104.679 75.8386 104.625 75.9621 104.517 76.0249L104.521 76.0221ZM89.4305 59.1914C89.4305 59.1914 89.3789 59.2277 89.3204 59.2747C88.537 59.905 83.8504 64.0416 83.1896 73.7465C82.4754 84.3524 85.8686 90.8463 85.8686 90.8463L77.209 95.8789L69.4219 100.401C69.4219 100.401 68.0307 96.0614 67.3632 90.44C67.1261 88.4076 66.981 86.2034 67.0341 83.9771C67.2327 75.6073 69.9143 69.7337 69.9143 69.7337C72.3076 67.8377 74.8836 66.0867 77.6331 64.4992C81.431 62.3065 85.335 60.5603 89.2699 59.2445C89.3251 59.2258 89.3753 59.21 89.4305 59.1914Z" fill="#0C111D"/>
<path d="M69.5645 100.649C69.4903 100.692 69.4011 100.697 69.3174 100.667C69.2337 100.636 69.176 100.57 69.148 100.487C69.1351 100.442 67.7436 96.0564 67.0785 90.4732C66.8076 88.1768 66.6995 85.9908 66.7471 83.972C66.948 75.6405 69.6242 69.6777 69.6537 69.6145C69.6691 69.5727 69.7001 69.535 69.7368 69.5072C72.152 67.5919 74.7576 65.8238 77.4873 64.2478C81.2259 62.0893 85.1588 60.3132 89.1765 58.9694L89.337 58.9163C89.4749 58.8696 89.6247 58.9348 89.689 59.0691C89.7505 59.1985 89.7009 59.3524 89.5801 59.4287C89.5653 59.4373 89.5385 59.4593 89.4968 59.49C88.6062 60.2086 84.1197 64.2692 83.4713 73.7559C82.7725 84.1486 86.0864 90.6421 86.1157 90.7043C86.1879 90.8407 86.139 91.0073 86.0055 91.0844L69.5588 100.639L69.5645 100.649ZM70.1501 69.9147C69.8718 70.5633 67.5052 76.2287 67.3209 83.9837C67.2717 85.9769 67.3833 88.1345 67.6477 90.4083C68.1974 95.0493 69.2569 98.8487 69.5906 99.9748L85.4982 90.7311C84.8989 89.4419 82.2702 83.1529 82.9067 73.7258C83.4407 65.914 86.5445 61.6626 88.2273 59.9064C81.7704 62.2101 75.4964 65.6873 70.1501 69.9147Z" fill="#0C111D"/>
<path d="M33.4565 91.0536L33.2929 96.4691L37.8099 103.402C37.8099 103.402 43.4702 98.9076 52.3442 96.8503C61.2182 94.7929 70.7255 99.6227 70.7255 99.6227L76.3284 96.3879L65.7197 75.9803L37.1172 87.0016L33.4536 91.0487L33.4565 91.0536Z" fill="#2A9595"/>
<path d="M76.4708 96.6351L70.8679 99.8699C70.7838 99.9185 70.679 99.9197 70.5945 99.8761C70.4994 99.8255 61.0761 95.1186 52.4038 97.1255C43.699 99.1445 38.0377 103.58 37.984 103.624C37.9205 103.674 37.8399 103.694 37.7598 103.681C37.6797 103.668 37.608 103.624 37.568 103.555L33.0509 96.6216C33.0224 96.5722 33.0037 96.517 33.0028 96.4582L33.1663 91.0428C33.1675 90.9762 33.1941 90.9081 33.2399 90.8619L36.9035 86.8148C36.9324 86.7849 36.9691 86.7571 37.0115 86.7392L65.6141 75.718C65.7491 75.6664 65.9009 75.7238 65.9702 75.8552L76.5789 96.2628C76.651 96.3992 76.6022 96.5658 76.4687 96.6429L76.4708 96.6351ZM70.711 99.3012L75.9479 96.2776L65.585 76.3414L37.285 87.2472L33.7363 91.1621L33.5789 96.3827L37.8792 102.986C39.0723 102.106 44.4739 98.374 52.2781 96.5651C60.5641 94.6428 69.4908 98.7067 70.713 99.2934L70.711 99.3012Z" fill="#0C111D"/>
<path d="M31.5786 84.7851L30.4687 92.4216C30.4687 92.4216 43.18 85.8872 52.7482 87.0423C62.3135 88.1924 76.3362 96.3891 76.3362 96.3891L77.2165 95.8809L62.965 74.794L31.5814 84.79L31.5786 84.7851Z" fill="#2A9595"/>
<path d="M77.3517 96.126L76.4714 96.6343C76.3824 96.6856 76.2698 96.6847 76.1874 96.6334C76.0468 96.5497 62.1096 88.4554 52.7143 87.3257C43.3474 86.1995 30.7283 92.6081 30.6018 92.6746C30.5079 92.7288 30.3945 92.7152 30.3064 92.6539C30.2183 92.5927 30.176 92.4852 30.1876 92.3797L31.2975 84.7431C31.314 84.6347 31.3879 84.5458 31.4933 84.5113L62.8769 74.5153C62.9999 74.4772 63.1305 74.5206 63.1982 74.6265L77.4497 95.7134C77.4897 95.7826 77.507 95.8583 77.4939 95.9384C77.4808 96.0185 77.4259 96.0832 77.3566 96.1232L77.3517 96.126ZM76.3293 96.0569L76.7991 95.7857L62.8421 75.1288L31.8327 85.0077L30.823 91.9271C33.262 90.7497 44.2944 85.7384 52.7748 86.7567C61.7732 87.8385 74.8112 95.1861 76.3293 96.0569Z" fill="#0C111D"/>
<path d="M89.3201 59.2747C88.5367 59.905 83.8501 64.0416 83.1893 73.7465C82.4752 84.3524 85.8684 90.8463 85.8684 90.8463L77.2088 95.8789C76.9026 95.6798 72.9476 93.1236 67.363 90.44C62.579 88.1382 56.5841 85.7376 50.6816 84.6619C37.6091 82.2794 22.9027 86.603 22.9027 86.603L40.0129 53.9634C40.0129 53.9634 48.6479 49.2879 58.576 49.833C75.1961 50.7541 88.3769 58.6917 89.2697 59.2445C89.3017 59.2656 89.3201 59.2747 89.3201 59.2747Z" fill="#2A9595"/>
<path d="M77.3509 96.1264C77.2569 96.1807 77.1415 96.1748 77.0513 96.1214C76.6279 95.8449 72.7298 93.3415 67.2374 90.7036C61.1836 87.7898 55.5953 85.8535 50.6291 84.9492C37.7763 82.6047 23.1311 86.8402 22.9826 86.8798C22.8694 86.9122 22.7545 86.873 22.6805 86.7905C22.6085 86.7002 22.5959 86.5756 22.6515 86.4776L39.7617 53.838C39.787 53.7904 39.8279 53.747 39.8773 53.7185C39.9614 53.6699 48.697 49.0089 58.5918 49.5534C75.484 50.4889 88.8578 58.658 89.421 59.0054C89.5104 59.0461 89.5823 59.1364 89.5934 59.2355C89.6045 59.3346 89.5773 59.436 89.4968 59.5022C88.6062 60.2209 84.1147 64.2844 83.4714 73.7681C82.7725 84.1609 86.0864 90.6544 86.1157 90.7166C86.1879 90.853 86.139 91.0196 86.0055 91.0967L77.3459 96.1293L77.3509 96.1264ZM23.461 86.1553C26.435 85.3679 39.28 82.297 50.7356 84.38C55.7536 85.294 61.3916 87.2478 67.4901 90.1819C72.6162 92.6423 76.3592 94.9912 77.2187 95.5434L85.4975 90.7307C84.8982 89.4415 82.2694 83.1524 82.906 73.7253C83.5123 64.8168 87.4638 60.5376 88.8331 59.3118C86.7694 58.0901 74.1858 50.9812 58.5589 50.1131C49.3187 49.606 41.0977 53.7194 40.2243 54.1709L23.4581 86.1503L23.461 86.1553Z" fill="#0C111D"/>
<path d="M71.7141 86.7285L77.6337 88.1308C80.3301 88.7697 84.5161 80.8538 86.982 70.4497C89.4479 60.0455 89.2558 51.0903 86.5594 50.4514L80.6398 49.0492L71.719 86.7257L71.7141 86.7285Z" fill="#FF8000"/>
<path d="M79.0683 88.1131C78.554 88.41 78.0488 88.5171 77.5688 88.4052L71.6492 87.003C71.496 86.9661 71.3997 86.8107 71.4366 86.6576L80.3573 48.9811C80.3942 48.828 80.5496 48.7316 80.7027 48.7685L86.6223 50.1707C89.8533 50.9361 89.4843 61.1121 87.2547 70.5094C85.3582 78.5078 82.0128 86.4065 79.0605 88.111L79.0683 88.1131ZM72.0571 86.5103L77.7016 87.8472C79.9258 88.3763 84.0731 81.4784 86.7045 70.3787C89.333 59.2741 88.7187 51.255 86.4945 50.7259L80.85 49.389L72.0571 86.5103Z" fill="#0C111D"/>
<path d="M81.0564 69.0424C83.5194 58.6391 83.3294 49.6878 80.6319 49.0491C77.9344 48.4105 73.751 56.3263 71.2879 66.7296C68.8248 77.1329 69.0149 86.0841 71.7124 86.7228C74.4099 87.3614 78.5933 79.4456 81.0564 69.0424Z" fill="#FFA555"/>
<path d="M73.1488 86.7108C72.6345 87.0077 72.1292 87.1148 71.6492 87.0029C68.4182 86.2375 68.7873 76.0616 71.0169 66.6642C72.2126 61.6089 73.8507 56.9773 75.6291 53.6165C76.9249 51.1672 78.858 48.3368 80.7057 48.7734C82.5533 49.21 83.0133 52.6104 83.0695 55.3802C83.1466 59.1798 82.5338 64.0568 81.338 69.1121C79.4415 77.1105 76.0961 85.0092 73.1438 86.7137L73.1488 86.7108ZM79.481 49.553C78.4919 50.124 77.3229 51.6166 76.1282 53.8756C74.373 57.1967 72.7552 61.7836 71.5691 66.7871C68.9406 77.8918 69.555 85.9109 71.7792 86.44C74.0034 86.9691 78.1507 80.0712 80.7821 68.9715C81.9702 63.9601 82.5763 59.1398 82.4994 55.3863C82.4225 51.8042 81.7193 49.5926 80.5749 49.3236C80.2452 49.2436 79.8766 49.3246 79.481 49.553Z" fill="#0C111D"/>
<path d="M79.7676 52.7238C79.9519 52.769 80.1224 52.8816 80.2634 53.0573C81.5693 54.6111 81.2939 61.1461 79.5149 68.6744C77.731 76.2056 75.047 82.1663 73.1843 82.9714C72.9751 83.0658 72.7797 83.0929 72.5954 83.0477C70.7555 82.6132 70.8639 75.4691 72.848 67.0971C74.8322 58.725 77.9355 52.2914 79.7754 52.7259L79.7676 52.7238Z" fill="#FF8000"/>
<path d="M73.4734 83.1412C73.414 83.1754 73.3547 83.2097 73.2896 83.234C73.0281 83.3521 72.7641 83.3858 72.5202 83.3288C71.1915 83.0146 70.9583 80.281 70.993 78.0456C71.0411 75.0111 71.5995 71.1018 72.5602 67.0328C73.5209 62.9637 74.7798 59.2171 76.0971 56.4851C77.0684 54.4671 78.5043 52.1348 79.833 52.449C80.0769 52.506 80.3006 52.6537 80.4858 52.8831C81.8665 54.5322 81.576 61.2011 79.7929 68.745C78.0626 76.0607 75.4395 82.0126 73.4762 83.1461L73.4734 83.1412ZM79.1575 53.1291C78.5443 53.4831 77.6693 54.5487 76.6159 56.7328C75.3169 59.4279 74.0734 63.1327 73.1182 67.1656C72.163 71.1985 71.6122 75.0638 71.5667 78.0572C71.5126 81.3325 72.0978 82.643 72.6558 82.7758C72.7778 82.8043 72.9123 82.786 73.0642 82.718C74.6003 82.0553 77.2759 76.8907 79.2378 68.6172C81.1997 60.3437 81.1164 54.5235 80.0497 53.247C79.9422 53.1178 79.8299 53.0376 79.708 53.0091C79.5626 52.9743 79.3779 53.0084 79.1603 53.1341L79.1575 53.1291Z" fill="#0C111D"/>
<path d="M80.2639 53.0574C81.5698 54.6112 81.2944 61.1463 79.5154 68.6746C77.7315 76.2058 75.0475 82.1665 73.1848 82.9716C71.8839 81.4149 72.1544 74.8828 73.9411 67.3565C75.7279 59.8303 78.409 53.8646 80.2717 53.0595L80.2639 53.0574Z" fill="#FFA555"/>
<path d="M82.3224 93.2826C82.2383 93.3312 82.1285 93.3352 82.0384 93.2818C77.1159 90.4203 63.6355 83.9282 54.7829 81.8654C46.094 79.8466 38.6677 80.6198 38.5941 80.6293C38.4518 80.6456 38.3182 80.5512 38.2843 80.4126C38.2758 80.3977 37.8731 78.7181 36.465 77.1244C35.0627 75.5406 33.2692 75.0265 33.2536 75.0224C33.1678 74.9994 33.1002 74.9395 33.0673 74.8596C33.0344 74.7797 33.0368 74.6926 33.0782 74.6159L40.9941 59.2388C41.0355 59.1621 41.109 59.1066 41.1974 59.0885C41.2151 59.0848 42.9545 58.74 45.1626 57.2541C47.3609 55.7739 48.5626 53.5043 48.5767 53.4829C48.6111 53.4169 48.6647 53.3728 48.7347 53.3455C48.8924 53.2875 52.7585 51.9323 61.4724 53.218C70.1374 54.4989 74.7265 55.9836 74.7733 55.9961C74.9223 56.0486 75.0059 56.2047 74.9563 56.3586C74.9038 56.5076 74.7477 56.5912 74.5937 56.5416C74.5469 56.529 70.0046 55.0569 61.3914 53.7857C53.591 52.6319 49.6845 53.6544 49.0338 53.852C48.7661 54.3363 47.566 56.3347 45.4906 57.7307C43.5133 59.0569 41.921 59.5081 41.4519 59.6207L33.7517 74.5832C34.3717 74.812 35.7471 75.4355 36.9053 76.7449C38.1097 78.1001 38.6181 79.4946 38.7891 80.042C40.1456 79.9248 47.0209 79.4763 54.9263 81.3145C63.9527 83.4154 77.2336 89.8249 82.3414 92.7903C82.4792 92.869 82.5203 93.0431 82.4466 93.178C82.4213 93.2255 82.3874 93.2583 82.3429 93.284L82.3224 93.2826Z" fill="#0C111D"/>
<path d="M10.9956 60.8062L10.631 66.8784C10.4669 69.6435 18.9856 72.4068 29.6585 73.0428C40.3314 73.6787 49.1204 71.9539 49.2845 69.1888L49.6491 63.1166L10.9956 60.8062Z" fill="#FF8000"/>
<path d="M47.9955 71.1929C46.7741 71.8981 45.0296 72.3712 43.4671 72.6799C39.7378 73.4154 34.827 73.6462 29.6432 73.3356C20.0025 72.7631 10.1517 70.1821 10.3494 66.8701L10.7141 60.7979C10.7173 60.7235 10.7538 60.6496 10.8124 60.6026C10.8681 60.5507 10.9459 60.5256 11.0203 60.5288L49.6738 62.8391C49.8303 62.8476 49.9485 62.9838 49.94 63.1404L49.5754 69.2126C49.5265 70.0188 48.9083 70.6725 47.9984 71.1978L47.9955 71.1929ZM11.2651 61.1127L10.9219 66.9022C10.7826 69.1849 18.2911 72.083 29.6782 72.7682C34.8131 73.0739 39.6729 72.8462 43.357 72.1236C46.874 71.4316 48.9282 70.3643 48.998 69.1833L49.3412 63.3938L11.263 61.1205L11.2651 61.1127Z" fill="#0C111D"/>
<path d="M49.6478 63.1195C49.8131 60.3524 41.2959 57.5922 30.6241 56.9544C19.9522 56.3167 11.1669 58.0429 11.0016 60.81C10.8362 63.5771 19.3534 66.3373 30.0252 66.9751C40.6971 67.6128 49.4824 65.8867 49.6478 63.1195Z" fill="#FFA555"/>
<path d="M48.3573 65.1155C47.1359 65.8207 45.3914 66.2938 43.8289 66.6025C40.0996 67.338 35.1888 67.5688 30.005 67.2583C24.8212 66.9478 19.973 66.1336 16.357 64.9641C13.7192 64.1068 10.6 62.69 10.7113 60.7927C10.8225 58.8955 14.0936 57.8575 16.8117 57.3234C20.541 56.5879 25.4519 56.3571 30.6356 56.6676C35.8194 56.9781 40.6676 57.7923 44.2836 58.9618C46.9215 59.8191 50.0406 61.2359 49.9294 63.1332C49.8806 63.9394 49.2623 64.593 48.3524 65.1184L48.3573 65.1155ZM12.5737 59.302C11.7627 59.7703 11.3153 60.2857 11.2837 60.8249C11.2139 62.0059 13.1292 63.3133 16.5366 64.4186C20.1058 65.5756 24.9022 66.3801 30.0449 66.688C35.1798 66.9938 40.0397 66.766 43.7237 66.0435C47.2407 65.3514 49.2949 64.2841 49.3648 63.1031C49.4346 61.9221 47.5193 60.6147 44.1118 59.5094C40.5426 58.3523 35.7462 57.5479 30.6035 57.24C25.4686 56.9342 20.6087 57.162 16.9247 57.8845C15.0134 58.2627 13.5331 58.7481 12.5688 59.3049L12.5737 59.302Z" fill="#0C111D"/>
<path d="M45.8803 62.8933C45.8712 63.0832 45.7849 63.2649 45.6341 63.4376C44.3279 64.9896 37.8404 65.8472 30.1225 65.3843C22.3996 64.9243 16.0625 63.3016 14.9501 61.6032C14.821 61.4139 14.7635 61.2229 14.7726 61.0331C14.8867 59.1408 21.9368 58.0243 30.5304 58.542C39.1212 59.0548 45.9923 61.0088 45.8803 62.8933Z" fill="#FF8000"/>
<path d="M45.1783 64.1553C42.9381 65.4486 36.9589 66.0787 30.1059 65.6637C22.3674 65.1995 15.8936 63.5568 14.7134 61.7525C14.5509 61.5166 14.4768 61.2627 14.4898 61.0112C14.6342 58.6003 22.8692 57.7888 30.551 58.2461C34.7231 58.4946 38.6318 59.0863 41.5493 59.914C43.7017 60.5242 46.2517 61.5377 46.1671 62.8986C46.154 63.1501 46.0432 63.3921 45.8544 63.6132C45.6994 63.8016 45.4721 63.979 45.1804 64.1475L45.1783 64.1553ZM15.7584 60.2392C15.3183 60.4933 15.0738 60.7664 15.0573 61.0462C15.0494 61.1695 15.0931 61.3024 15.1858 61.4401C16.1036 62.8356 21.65 64.5851 30.1409 65.0962C38.629 65.6024 44.3484 64.5223 45.4207 63.2504C45.5306 63.121 45.5896 62.9947 45.5975 62.8714C45.6346 62.2961 44.5426 61.364 41.396 60.4707C38.5175 59.6534 34.6527 59.0693 30.5188 58.8186C23.2245 58.3814 17.6574 59.1428 15.7634 60.2363L15.7584 60.2392Z" fill="#0C111D"/>
<path d="M45.6336 63.437C44.3273 64.989 37.8399 65.8465 30.1219 65.3837C22.399 64.9237 16.062 63.3009 14.9495 61.6025C16.2557 60.0505 22.7411 59.2008 30.464 59.6608C38.1869 60.1207 44.5239 61.7435 45.6336 63.437Z" fill="#FFA555"/>
<path d="M62.5961 93.6733C62.5319 93.7105 62.4533 93.7228 62.3724 93.697C62.3334 93.6865 58.1458 92.4976 48.8426 94.2226C39.5294 95.9533 35.1768 99.2179 35.1351 99.2486C35.0102 99.3405 34.8323 99.3179 34.7354 99.1958C34.6386 99.0737 34.6661 98.893 34.7882 98.7961C34.9668 98.6601 39.277 95.4133 48.7423 93.6607C58.2048 91.9031 62.3669 93.0936 62.5364 93.1474C62.6875 93.192 62.7739 93.3531 62.7293 93.5042C62.7055 93.5772 62.6604 93.6362 62.6011 93.6705L62.5961 93.6733Z" fill="#0C111D"/>
<path d="M71.9909 99.2215C71.8969 99.2757 71.7765 99.2727 71.6855 99.2066C71.6614 99.1875 69.0447 97.3619 64.7603 95.7541C60.5099 94.1596 53.8936 95.3421 53.8278 95.3537C53.6735 95.3835 53.5215 95.28 53.4967 95.1229C53.467 94.9686 53.5704 94.8166 53.7275 94.7918C54.0035 94.7446 60.5668 93.5729 64.9661 95.2199C69.3236 96.8514 71.9915 98.72 72.0206 98.7362C72.1513 98.8255 72.1776 99.0082 72.0903 99.1311C72.0643 99.1659 72.0354 99.1958 72.0008 99.2158L71.9909 99.2215Z" fill="#0C111D"/>
<path d="M78.3583 30.8093L73.5693 27.0598C71.3894 25.3513 64.2764 30.7899 57.6824 39.2059C51.0911 47.6268 47.5162 55.836 49.701 57.5417L54.4901 61.2912L78.3604 30.8015L78.3583 30.8093Z" fill="#FF8000"/>
<path d="M54.6301 61.5467C54.5312 61.6038 54.403 61.5987 54.3141 61.5248L49.5251 57.7753C46.9131 55.7294 51.5047 46.6431 57.4593 39.0381C63.4138 31.4331 71.1327 24.7941 73.7447 26.84L78.5338 30.5895C78.6574 30.6895 78.6809 30.8672 78.5809 30.9909L54.7105 61.4805C54.6866 61.5075 54.6626 61.5346 54.628 61.5545L54.6301 61.5467ZM69.6684 28.0594C66.6568 29.7981 62.3551 33.6993 57.9049 39.3874C50.8743 48.3719 48.0755 55.9154 49.8715 57.3247L54.4353 60.901L77.9542 30.8648L73.3905 27.2885C72.7302 26.773 71.4141 27.0515 69.6684 28.0594Z" fill="#0C111D"/>
<path d="M70.3719 49.1483C76.9626 40.7307 80.5362 32.5214 78.3535 30.8125C76.1709 29.1036 69.0586 34.542 62.4679 42.9597C55.8771 51.3773 52.3035 59.5865 54.4862 61.2955C56.6688 63.0044 63.7811 57.5659 70.3719 49.1483Z" fill="#FFA555"/>
<path d="M58.6388 60.8151C56.9871 61.7687 55.3187 62.3165 54.3116 61.5199C52.8161 60.3459 53.8193 57.0699 54.9257 54.5322C56.4407 51.0465 59.0428 46.8738 62.2458 42.7827C65.4488 38.6917 68.8753 35.1705 71.8935 32.8608C74.0972 31.1731 77.0387 29.4156 78.5312 30.5846C80.0267 31.7587 79.0235 35.0346 77.9171 37.5723C76.4021 41.0581 73.8 45.2308 70.597 49.3218C67.3941 53.4129 63.9675 56.9341 60.9493 59.2438C60.23 59.7909 59.4371 60.3476 58.6359 60.8101L58.6388 60.8151ZM74.4874 31.7918C73.8001 32.1887 73.0452 32.6971 72.2355 33.3161C69.254 35.598 65.8663 39.0836 62.6893 43.1399C59.5173 47.1933 56.9434 51.3233 55.4459 54.7594C54.0185 58.0429 53.7319 60.3447 54.6609 61.0743C55.5898 61.8039 57.7556 60.9755 60.6052 58.7962C63.5868 56.5144 66.9745 53.0288 70.1514 48.9725C73.3234 44.9191 75.8973 40.7891 77.3948 37.353C78.8223 34.0695 79.1088 31.7677 78.1798 31.0381C77.5167 30.5176 76.2133 30.7954 74.4874 31.7918Z" fill="#0C111D"/>
<path d="M56.8185 58.3253C56.6657 58.2091 56.5658 58.036 56.5117 57.8167C55.9746 55.8586 58.9638 50.0382 63.7274 43.945C68.4988 37.8538 73.4319 33.5617 75.4585 33.6115C75.6838 33.6133 75.8767 33.6734 76.0295 33.7895C77.5192 34.9537 74.4294 41.3992 69.1234 48.1748C63.8175 54.9504 58.3062 59.4972 56.8185 58.3253Z" fill="#FF8000"/>
<path d="M59.4339 58.0807C58.3213 58.7231 57.2737 59.0444 56.6405 58.5528C56.4394 58.3986 56.3031 58.174 56.2296 57.8867C55.665 55.8126 58.7189 49.8757 63.5022 43.7711C68.2807 37.6693 73.3125 33.2741 75.4673 33.3289C75.7591 33.3319 76.0095 33.4115 76.2057 33.5686C78.1062 35.056 74.0893 42.294 69.3517 48.3524C66.7762 51.646 64.0658 54.523 61.7257 56.4542C61.0165 57.0417 60.216 57.6423 59.4396 58.0906L59.4339 58.0807ZM73.7076 34.5295C71.4675 35.8229 67.8876 39.0898 63.9507 44.1254C58.7089 50.8178 56.3471 56.1375 56.7863 57.7433C56.8296 57.9096 56.8981 58.0282 56.9947 58.1043C57.4482 58.4557 58.8333 58.0912 61.359 56.0132C63.6673 54.1069 66.3439 51.2626 68.8983 48.001C74.4535 40.9034 77.022 34.9369 75.8514 34.0171C75.7548 33.941 75.6193 33.9005 75.4557 33.9027C75.0406 33.8918 74.4445 34.1041 73.7076 34.5295Z" fill="#0C111D"/>
<path d="M56.5092 57.8112C55.9721 55.8531 58.9613 50.0327 63.7249 43.9395C68.4963 37.8484 73.4294 33.5563 75.456 33.606C75.9853 35.5621 73.0088 41.3817 68.2374 47.4728C63.471 53.5611 58.5329 57.8561 56.5092 57.8112Z" fill="#FFA555"/>
</g>
<defs>
<clipPath id="clip0_113_2721">
<rect width="122.761" height="132.517" fill="white" transform="translate(0 62.3252) rotate(-30)"/>
</clipPath>
</defs>
</svg>
