<svg width="146" height="77" viewBox="0 0 146 77" fill="none" xmlns="http://www.w3.org/2000/svg">
<g opacity="0.2" clip-path="url(#clip0_113_2861)">
<path d="M108.945 134.545C136.653 118.548 146.146 83.1176 130.149 55.4096C114.152 27.7016 78.7216 18.2081 51.0136 34.2053C23.3055 50.2026 13.8121 85.6327 29.8093 113.341C45.8065 141.049 81.2367 150.542 108.945 134.545Z" fill="#161B26"/>
<path d="M108.945 134.545C136.653 118.548 146.146 83.1176 130.149 55.4096C114.152 27.7016 78.7216 18.2081 51.0136 34.2053C23.3055 50.2026 13.8121 85.6327 29.8093 113.341C45.8065 141.049 81.2367 150.542 108.945 134.545Z" fill="black" fill-opacity="0.2"/>
<path d="M108.945 134.545C136.653 118.548 146.146 83.1176 130.149 55.4096C114.152 27.7016 78.7216 18.2081 51.0136 34.2053C23.3055 50.2026 13.8121 85.6327 29.8093 113.341C45.8065 141.049 81.2367 150.542 108.945 134.545Z" fill="black" fill-opacity="0.2"/>
<path d="M108.945 134.545C136.653 118.548 146.146 83.1176 130.149 55.4096C114.152 27.7016 78.7216 18.2081 51.0136 34.2053C23.3055 50.2026 13.8121 85.6327 29.8093 113.341C45.8065 141.049 81.2367 150.542 108.945 134.545Z" fill="black" fill-opacity="0.2"/>
<path d="M97.0811 140.345C66.2213 149.775 33.4312 132.361 23.9927 101.486C14.5631 70.626 31.9769 37.8359 62.8521 28.3974C93.7119 18.9678 126.502 36.3816 135.941 67.2568C145.37 98.1166 127.956 130.907 97.0811 140.345ZM63.1994 29.5331C32.9748 38.781 15.887 70.8895 25.1284 101.138C34.3763 131.363 66.4848 148.451 96.7338 139.21C126.958 129.962 144.046 97.8531 134.805 67.6042C125.557 37.3795 93.4484 20.2917 63.1994 29.5331Z" fill="#161B26"/>
<path d="M97.0811 140.345C66.2213 149.775 33.4312 132.361 23.9927 101.486C14.5631 70.626 31.9769 37.8359 62.8521 28.3974C93.7119 18.9678 126.502 36.3816 135.941 67.2568C145.37 98.1166 127.956 130.907 97.0811 140.345ZM63.1994 29.5331C32.9748 38.781 15.887 70.8895 25.1284 101.138C34.3763 131.363 66.4848 148.451 96.7338 139.21C126.958 129.962 144.046 97.8531 134.805 67.6042C125.557 37.3795 93.4484 20.2917 63.1994 29.5331Z" fill="black" fill-opacity="0.2"/>
<path d="M97.0811 140.345C66.2213 149.775 33.4312 132.361 23.9927 101.486C14.5631 70.626 31.9769 37.8359 62.8521 28.3974C93.7119 18.9678 126.502 36.3816 135.941 67.2568C145.37 98.1166 127.956 130.907 97.0811 140.345ZM63.1994 29.5331C32.9748 38.781 15.887 70.8895 25.1284 101.138C34.3763 131.363 66.4848 148.451 96.7338 139.21C126.958 129.962 144.046 97.8531 134.805 67.6042C125.557 37.3795 93.4484 20.2917 63.1994 29.5331Z" fill="black" fill-opacity="0.2"/>
<path d="M97.0811 140.345C66.2213 149.775 33.4312 132.361 23.9927 101.486C14.5631 70.626 31.9769 37.8359 62.8521 28.3974C93.7119 18.9678 126.502 36.3816 135.941 67.2568C145.37 98.1166 127.956 130.907 97.0811 140.345ZM63.1994 29.5331C32.9748 38.781 15.887 70.8895 25.1284 101.138C34.3763 131.363 66.4848 148.451 96.7338 139.21C126.958 129.962 144.046 97.8531 134.805 67.6042C125.557 37.3795 93.4484 20.2917 63.1994 29.5331Z" fill="black" fill-opacity="0.2"/>
<path d="M115.148 132.648C142.856 116.651 152.349 81.2211 136.352 53.5131C120.355 25.8051 84.9247 16.3116 57.2167 32.3089C29.5087 48.3061 20.0152 83.7362 36.0124 111.444C52.0097 139.152 87.4398 148.646 115.148 132.648Z" fill="#FAFAFA"/>
<path d="M103.285 138.45C72.4254 147.879 39.6353 130.466 30.1968 99.5903C20.7672 68.7305 38.181 35.9404 69.0562 26.5019C99.916 17.0723 132.706 34.4861 142.145 65.3613C151.574 96.2211 134.16 129.011 103.285 138.45ZM69.4036 27.6376C39.1789 36.8855 22.0911 68.994 31.3325 99.243C40.5804 129.468 72.6889 146.555 102.938 137.314C133.163 128.066 150.25 95.9576 141.009 65.7086C131.761 35.484 99.6525 18.3962 69.4036 27.6376Z" fill="#161B26"/>
<path d="M103.285 138.45C72.4254 147.879 39.6353 130.466 30.1968 99.5903C20.7672 68.7305 38.181 35.9404 69.0562 26.5019C99.916 17.0723 132.706 34.4861 142.145 65.3613C151.574 96.2211 134.16 129.011 103.285 138.45ZM69.4036 27.6376C39.1789 36.8855 22.0911 68.994 31.3325 99.243C40.5804 129.468 72.6889 146.555 102.938 137.314C133.163 128.066 150.25 95.9576 141.009 65.7086C131.761 35.484 99.6525 18.3962 69.4036 27.6376Z" fill="black" fill-opacity="0.2"/>
<path d="M103.285 138.45C72.4254 147.879 39.6353 130.466 30.1968 99.5903C20.7672 68.7305 38.181 35.9404 69.0562 26.5019C99.916 17.0723 132.706 34.4861 142.145 65.3613C151.574 96.2211 134.16 129.011 103.285 138.45ZM69.4036 27.6376C39.1789 36.8855 22.0911 68.994 31.3325 99.243C40.5804 129.468 72.6889 146.555 102.938 137.314C133.163 128.066 150.25 95.9576 141.009 65.7086C131.761 35.484 99.6525 18.3962 69.4036 27.6376Z" fill="black" fill-opacity="0.2"/>
<path d="M103.285 138.45C72.4254 147.879 39.6353 130.466 30.1968 99.5903C20.7672 68.7305 38.181 35.9404 69.0562 26.5019C99.916 17.0723 132.706 34.4861 142.145 65.3613C151.574 96.2211 134.16 129.011 103.285 138.45ZM69.4036 27.6376C39.1789 36.8855 22.0911 68.994 31.3325 99.243C40.5804 129.468 72.6889 146.555 102.938 137.314C133.163 128.066 150.25 95.9576 141.009 65.7086C131.761 35.484 99.6525 18.3962 69.4036 27.6376Z" fill="black" fill-opacity="0.2"/>
<path d="M111.552 126.42C135.82 112.409 144.134 81.3775 130.123 57.1095C116.112 32.8416 85.081 24.5268 60.8131 38.5379C36.5451 52.549 28.2303 83.5803 42.2414 107.848C56.2525 132.116 87.2838 140.431 111.552 126.42Z" fill="#008080"/>
<path d="M101.18 131.565C74.1114 139.834 45.3498 124.555 37.0809 97.486C28.8121 70.417 44.0908 41.6553 71.1598 33.3865C98.2289 25.1176 126.99 40.3963 135.259 67.4654C143.528 94.5344 128.25 123.296 101.18 131.565ZM71.5072 34.5222C45.0733 42.6093 30.1295 70.7048 38.2166 97.1387C46.3038 123.573 74.3993 138.516 100.833 130.429C127.267 122.342 142.211 94.2466 134.124 67.8127C126.037 41.3788 97.9411 26.435 71.5072 34.5222Z" fill="#161B26"/>
<path d="M101.18 131.565C74.1114 139.834 45.3498 124.555 37.0809 97.486C28.8121 70.417 44.0908 41.6553 71.1598 33.3865C98.2289 25.1176 126.99 40.3963 135.259 67.4654C143.528 94.5344 128.25 123.296 101.18 131.565ZM71.5072 34.5222C45.0733 42.6093 30.1295 70.7048 38.2166 97.1387C46.3038 123.573 74.3993 138.516 100.833 130.429C127.267 122.342 142.211 94.2466 134.124 67.8127C126.037 41.3788 97.9411 26.435 71.5072 34.5222Z" fill="black" fill-opacity="0.2"/>
<path d="M101.18 131.565C74.1114 139.834 45.3498 124.555 37.0809 97.486C28.8121 70.417 44.0908 41.6553 71.1598 33.3865C98.2289 25.1176 126.99 40.3963 135.259 67.4654C143.528 94.5344 128.25 123.296 101.18 131.565ZM71.5072 34.5222C45.0733 42.6093 30.1295 70.7048 38.2166 97.1387C46.3038 123.573 74.3993 138.516 100.833 130.429C127.267 122.342 142.211 94.2466 134.124 67.8127C126.037 41.3788 97.9411 26.435 71.5072 34.5222Z" fill="black" fill-opacity="0.2"/>
<path d="M101.18 131.565C74.1114 139.834 45.3498 124.555 37.0809 97.486C28.8121 70.417 44.0908 41.6553 71.1598 33.3865C98.2289 25.1176 126.99 40.3963 135.259 67.4654C143.528 94.5344 128.25 123.296 101.18 131.565ZM71.5072 34.5222C45.0733 42.6093 30.1295 70.7048 38.2166 97.1387C46.3038 123.573 74.3993 138.516 100.833 130.429C127.267 122.342 142.211 94.2466 134.124 67.8127C126.037 41.3788 97.9411 26.435 71.5072 34.5222Z" fill="black" fill-opacity="0.2"/>
<path d="M107.956 120.191C128.784 108.166 135.92 81.5338 123.895 60.7059C111.87 39.8781 85.2373 32.7419 64.4094 44.7669C43.5816 56.7919 36.4454 83.4243 48.4704 104.252C60.4954 125.08 87.1278 132.216 107.956 120.191Z" fill="#FAFAFA"/>
<path d="M99.0767 124.68C75.8073 131.804 51.0742 118.66 43.966 95.3817C36.8425 72.1123 49.9861 47.3792 73.2644 40.271C96.5338 33.1475 121.267 46.2911 128.375 69.5694C135.499 92.8388 122.355 117.572 99.0767 124.68ZM73.6028 41.3913C50.9597 48.3177 38.1664 72.3758 45.0928 95.019C52.0192 117.662 76.0773 130.455 98.7205 123.529C121.364 116.603 134.157 92.5444 127.23 69.9013C120.304 47.2582 96.246 34.4649 73.6028 41.3913Z" fill="#161B26"/>
<path d="M99.0767 124.68C75.8073 131.804 51.0742 118.66 43.966 95.3817C36.8425 72.1123 49.9861 47.3792 73.2644 40.271C96.5338 33.1475 121.267 46.2911 128.375 69.5694C135.499 92.8388 122.355 117.572 99.0767 124.68ZM73.6028 41.3913C50.9597 48.3177 38.1664 72.3758 45.0928 95.019C52.0192 117.662 76.0773 130.455 98.7205 123.529C121.364 116.603 134.157 92.5444 127.23 69.9013C120.304 47.2582 96.246 34.4649 73.6028 41.3913Z" fill="black" fill-opacity="0.2"/>
<path d="M99.0767 124.68C75.8073 131.804 51.0742 118.66 43.966 95.3817C36.8425 72.1123 49.9861 47.3792 73.2644 40.271C96.5338 33.1475 121.267 46.2911 128.375 69.5694C135.499 92.8388 122.355 117.572 99.0767 124.68ZM73.6028 41.3913C50.9597 48.3177 38.1664 72.3758 45.0928 95.019C52.0192 117.662 76.0773 130.455 98.7205 123.529C121.364 116.603 134.157 92.5444 127.23 69.9013C120.304 47.2582 96.246 34.4649 73.6028 41.3913Z" fill="black" fill-opacity="0.2"/>
<path d="M99.0767 124.68C75.8073 131.804 51.0742 118.66 43.966 95.3817C36.8425 72.1123 49.9861 47.3792 73.2644 40.271C96.5338 33.1475 121.267 46.2911 128.375 69.5694C135.499 92.8388 122.355 117.572 99.0767 124.68ZM73.6028 41.3913C50.9597 48.3177 38.1664 72.3758 45.0928 95.019C52.0192 117.662 76.0773 130.455 98.7205 123.529C121.364 116.603 134.157 92.5444 127.23 69.9013C120.304 47.2582 96.246 34.4649 73.6028 41.3913Z" fill="black" fill-opacity="0.2"/>
<path d="M104.36 113.963C121.747 103.924 127.705 81.6901 117.666 64.3024C107.627 46.9146 85.3936 40.9571 68.0058 50.9959C50.618 61.0348 44.6605 83.2684 54.6994 100.656C64.7382 118.044 86.9718 124.001 104.36 113.963Z" fill="#008080"/>
<path d="M96.9809 117.811C77.5022 123.773 56.7975 112.765 50.8501 93.2774C44.8873 73.7988 55.8959 53.0941 75.3834 47.1467C94.862 41.1839 115.567 52.1924 121.514 71.68C127.477 91.1586 116.468 111.863 96.9809 117.811ZM75.7153 48.2913C56.8629 54.057 46.2047 74.0866 51.9704 92.939C57.7361 111.791 77.7657 122.45 96.6181 116.684C115.47 110.918 126.129 90.8886 120.363 72.0362C114.597 53.1838 94.5677 42.5256 75.7153 48.2913Z" fill="#161B26"/>
<path d="M96.9809 117.811C77.5022 123.773 56.7975 112.765 50.8501 93.2774C44.8873 73.7988 55.8959 53.0941 75.3834 47.1467C94.862 41.1839 115.567 52.1924 121.514 71.68C127.477 91.1586 116.468 111.863 96.9809 117.811ZM75.7153 48.2913C56.8629 54.057 46.2047 74.0866 51.9704 92.939C57.7361 111.791 77.7657 122.45 96.6181 116.684C115.47 110.918 126.129 90.8886 120.363 72.0362C114.597 53.1838 94.5677 42.5256 75.7153 48.2913Z" fill="black" fill-opacity="0.2"/>
<path d="M96.9809 117.811C77.5022 123.773 56.7975 112.765 50.8501 93.2774C44.8873 73.7988 55.8959 53.0941 75.3834 47.1467C94.862 41.1839 115.567 52.1924 121.514 71.68C127.477 91.1586 116.468 111.863 96.9809 117.811ZM75.7153 48.2913C56.8629 54.057 46.2047 74.0866 51.9704 92.939C57.7361 111.791 77.7657 122.45 96.6181 116.684C115.47 110.918 126.129 90.8886 120.363 72.0362C114.597 53.1838 94.5677 42.5256 75.7153 48.2913Z" fill="black" fill-opacity="0.2"/>
<path d="M96.9809 117.811C77.5022 123.773 56.7975 112.765 50.8501 93.2774C44.8873 73.7988 55.8959 53.0941 75.3834 47.1467C94.862 41.1839 115.567 52.1924 121.514 71.68C127.477 91.1586 116.468 111.863 96.9809 117.811ZM75.7153 48.2913C56.8629 54.057 46.2047 74.0866 51.9704 92.939C57.7361 111.791 77.7657 122.45 96.6181 116.684C115.47 110.918 126.129 90.8886 120.363 72.0362C114.597 53.1838 94.5677 42.5256 75.7153 48.2913Z" fill="black" fill-opacity="0.2"/>
<path d="M100.764 107.733C114.711 99.6803 119.49 81.8455 111.437 67.8978C103.385 53.9501 85.5498 49.1713 71.6022 57.224C57.6545 65.2767 52.8757 83.1115 60.9284 97.0592C68.981 111.007 86.8159 115.786 100.764 107.733Z" fill="#FAFAFA"/>
<path d="M94.8771 110.926C79.1892 115.728 62.5219 106.87 57.7352 91.1731C52.9332 75.4852 61.7912 58.8179 77.488 54.0312C93.1759 49.2292 109.843 58.0872 114.63 73.784C119.432 89.4719 110.574 106.139 94.8771 110.926ZM77.8264 55.1515C62.7648 59.7565 54.2571 75.7487 58.862 90.8103C63.467 105.872 79.4592 114.38 94.5209 109.775C109.582 105.17 118.09 89.1775 113.476 74.1005C108.871 59.0389 92.8791 50.5311 77.8021 55.145L77.8264 55.1515Z" fill="#161B26"/>
<path d="M94.8771 110.926C79.1892 115.728 62.5219 106.87 57.7352 91.1731C52.9332 75.4852 61.7912 58.8179 77.488 54.0312C93.1759 49.2292 109.843 58.0872 114.63 73.784C119.432 89.4719 110.574 106.139 94.8771 110.926ZM77.8264 55.1515C62.7648 59.7565 54.2571 75.7487 58.862 90.8103C63.467 105.872 79.4592 114.38 94.5209 109.775C109.582 105.17 118.09 89.1775 113.476 74.1005C108.871 59.0389 92.8791 50.5311 77.8021 55.145L77.8264 55.1515Z" fill="black" fill-opacity="0.2"/>
<path d="M94.8771 110.926C79.1892 115.728 62.5219 106.87 57.7352 91.1731C52.9332 75.4852 61.7912 58.8179 77.488 54.0312C93.1759 49.2292 109.843 58.0872 114.63 73.784C119.432 89.4719 110.574 106.139 94.8771 110.926ZM77.8264 55.1515C62.7648 59.7565 54.2571 75.7487 58.862 90.8103C63.467 105.872 79.4592 114.38 94.5209 109.775C109.582 105.17 118.09 89.1775 113.476 74.1005C108.871 59.0389 92.8791 50.5311 77.8021 55.145L77.8264 55.1515Z" fill="black" fill-opacity="0.2"/>
<path d="M94.8771 110.926C79.1892 115.728 62.5219 106.87 57.7352 91.1731C52.9332 75.4852 61.7912 58.8179 77.488 54.0312C93.1759 49.2292 109.843 58.0872 114.63 73.784C119.432 89.4719 110.574 106.139 94.8771 110.926ZM77.8264 55.1515C62.7648 59.7565 54.2571 75.7487 58.862 90.8103C63.467 105.872 79.4592 114.38 94.5209 109.775C109.582 105.17 118.09 89.1775 113.476 74.1005C108.871 59.0389 92.8791 50.5311 77.8021 55.145L77.8264 55.1515Z" fill="black" fill-opacity="0.2"/>
<path d="M97.1675 101.504C107.675 95.4378 111.275 82.0018 105.209 71.4942C99.1421 60.9866 85.7061 57.3865 75.1985 63.453C64.6909 69.5196 61.0908 82.9556 67.1573 93.4632C73.2239 103.971 86.6599 107.571 97.1675 101.504Z" fill="#008080"/>
<path d="M92.7732 104.042C80.8761 107.683 68.2373 100.96 64.5959 89.0633C60.9546 77.1661 67.6776 64.5273 79.5747 60.886C91.4718 57.2446 104.111 63.9676 107.752 75.8647C111.393 87.7618 104.67 100.401 92.7732 104.042ZM79.9309 62.0371C68.6601 65.4813 62.2963 77.4605 65.7405 88.7314C69.1847 100.002 81.164 106.366 92.4348 102.922C103.706 99.4775 110.069 87.4983 106.625 76.2275C103.181 64.9566 91.2018 58.5928 79.9309 62.0371Z" fill="#161B26"/>
<path d="M92.7732 104.042C80.8761 107.683 68.2373 100.96 64.5959 89.0633C60.9546 77.1661 67.6776 64.5273 79.5747 60.886C91.4718 57.2446 104.111 63.9676 107.752 75.8647C111.393 87.7618 104.67 100.401 92.7732 104.042ZM79.9309 62.0371C68.6601 65.4813 62.2963 77.4605 65.7405 88.7314C69.1847 100.002 81.164 106.366 92.4348 102.922C103.706 99.4775 110.069 87.4983 106.625 76.2275C103.181 64.9566 91.2018 58.5928 79.9309 62.0371Z" fill="black" fill-opacity="0.2"/>
<path d="M92.7732 104.042C80.8761 107.683 68.2373 100.96 64.5959 89.0633C60.9546 77.1661 67.6776 64.5273 79.5747 60.886C91.4718 57.2446 104.111 63.9676 107.752 75.8647C111.393 87.7618 104.67 100.401 92.7732 104.042ZM79.9309 62.0371C68.6601 65.4813 62.2963 77.4605 65.7405 88.7314C69.1847 100.002 81.164 106.366 92.4348 102.922C103.706 99.4775 110.069 87.4983 106.625 76.2275C103.181 64.9566 91.2018 58.5928 79.9309 62.0371Z" fill="black" fill-opacity="0.2"/>
<path d="M92.7732 104.042C80.8761 107.683 68.2373 100.96 64.5959 89.0633C60.9546 77.1661 67.6776 64.5273 79.5747 60.886C91.4718 57.2446 104.111 63.9676 107.752 75.8647C111.393 87.7618 104.67 100.401 92.7732 104.042ZM79.9309 62.0371C68.6601 65.4813 62.2963 77.4605 65.7405 88.7314C69.1847 100.002 81.164 106.366 92.4348 102.922C103.706 99.4775 110.069 87.4983 106.625 76.2275C103.181 64.9566 91.2018 58.5928 79.9309 62.0371Z" fill="black" fill-opacity="0.2"/>
<path d="M93.5704 95.2757C100.638 91.1953 103.059 82.1581 98.979 75.0906C94.8986 68.0231 85.8614 65.6016 78.7939 69.682C71.7264 73.7625 69.3049 82.7997 73.3853 89.8672C77.4658 96.9347 86.5029 99.3562 93.5704 95.2757Z" fill="#FAFAFA"/>
<path d="M90.6685 97.1572C82.5621 99.6378 73.9606 95.0653 71.48 86.959C68.9994 78.8526 73.5719 70.2511 81.6783 67.7705C89.7846 65.2899 98.3861 69.8624 100.867 77.9687C103.347 86.0751 98.7749 94.6766 90.6685 97.1572ZM82.0256 68.9062C74.5455 71.1897 70.3322 79.1315 72.6157 86.6116C74.8992 94.0917 82.8411 98.305 90.3212 96.0215C97.8013 93.738 102.015 85.7962 99.731 78.3161C97.4476 70.836 89.5057 66.6227 82.0256 68.9062Z" fill="#161B26"/>
<path d="M90.6685 97.1572C82.5621 99.6378 73.9606 95.0653 71.48 86.959C68.9994 78.8526 73.5719 70.2511 81.6783 67.7705C89.7846 65.2899 98.3861 69.8624 100.867 77.9687C103.347 86.0751 98.7749 94.6766 90.6685 97.1572ZM82.0256 68.9062C74.5455 71.1897 70.3322 79.1315 72.6157 86.6116C74.8992 94.0917 82.8411 98.305 90.3212 96.0215C97.8013 93.738 102.015 85.7962 99.731 78.3161C97.4476 70.836 89.5057 66.6227 82.0256 68.9062Z" fill="black" fill-opacity="0.2"/>
<path d="M90.6685 97.1572C82.5621 99.6378 73.9606 95.0653 71.48 86.959C68.9994 78.8526 73.5719 70.2511 81.6783 67.7705C89.7846 65.2899 98.3861 69.8624 100.867 77.9687C103.347 86.0751 98.7749 94.6766 90.6685 97.1572ZM82.0256 68.9062C74.5455 71.1897 70.3322 79.1315 72.6157 86.6116C74.8992 94.0917 82.8411 98.305 90.3212 96.0215C97.8013 93.738 102.015 85.7962 99.731 78.3161C97.4476 70.836 89.5057 66.6227 82.0256 68.9062Z" fill="black" fill-opacity="0.2"/>
<path d="M90.6685 97.1572C82.5621 99.6378 73.9606 95.0653 71.48 86.959C68.9994 78.8526 73.5719 70.2511 81.6783 67.7705C89.7846 65.2899 98.3861 69.8624 100.867 77.9687C103.347 86.0751 98.7749 94.6766 90.6685 97.1572ZM82.0256 68.9062C74.5455 71.1897 70.3322 79.1315 72.6157 86.6116C74.8992 94.0917 82.8411 98.305 90.3212 96.0215C97.8013 93.738 102.015 85.7962 99.731 78.3161C97.4476 70.836 89.5057 66.6227 82.0256 68.9062Z" fill="black" fill-opacity="0.2"/>
<path d="M89.9656 89.032C93.5845 86.9426 94.8244 82.3152 92.735 78.6963C90.6457 75.0774 86.0182 73.8374 82.3993 75.9268C78.7804 78.0162 77.5405 82.6437 79.6298 86.2626C81.7192 89.8815 86.3467 91.1214 89.9656 89.032Z" fill="#008080"/>
<path d="M88.5584 90.297C84.2428 91.6168 79.6698 89.1795 78.3588 84.8793C77.0479 80.5791 79.4763 75.9906 83.7765 74.6797C88.0767 73.3687 92.6652 75.7972 93.9761 80.0974C95.2871 84.3976 92.8586 88.986 88.5584 90.297ZM84.1239 75.8154C80.4345 76.9381 78.3563 80.8515 79.4945 84.5319C80.6172 88.2213 84.5306 90.2995 88.2111 89.1613C91.9004 88.0385 93.9786 84.1252 92.8404 80.4447C91.7023 76.7643 87.8043 74.6772 84.1239 75.8154Z" fill="#161B26"/>
<path d="M88.5584 90.297C84.2428 91.6168 79.6698 89.1795 78.3588 84.8793C77.0479 80.5791 79.4763 75.9906 83.7765 74.6797C88.0767 73.3687 92.6652 75.7972 93.9761 80.0974C95.2871 84.3976 92.8586 88.986 88.5584 90.297ZM84.1239 75.8154C80.4345 76.9381 78.3563 80.8515 79.4945 84.5319C80.6172 88.2213 84.5306 90.2995 88.2111 89.1613C91.9004 88.0385 93.9786 84.1252 92.8404 80.4447C91.7023 76.7643 87.8043 74.6772 84.1239 75.8154Z" fill="black" fill-opacity="0.2"/>
<path d="M88.5584 90.297C84.2428 91.6168 79.6698 89.1795 78.3588 84.8793C77.0479 80.5791 79.4763 75.9906 83.7765 74.6797C88.0767 73.3687 92.6652 75.7972 93.9761 80.0974C95.2871 84.3976 92.8586 88.986 88.5584 90.297ZM84.1239 75.8154C80.4345 76.9381 78.3563 80.8515 79.4945 84.5319C80.6172 88.2213 84.5306 90.2995 88.2111 89.1613C91.9004 88.0385 93.9786 84.1252 92.8404 80.4447C91.7023 76.7643 87.8043 74.6772 84.1239 75.8154Z" fill="black" fill-opacity="0.2"/>
<path d="M88.5584 90.297C84.2428 91.6168 79.6698 89.1795 78.3588 84.8793C77.0479 80.5791 79.4763 75.9906 83.7765 74.6797C88.0767 73.3687 92.6652 75.7972 93.9761 80.0974C95.2871 84.3976 92.8586 88.986 88.5584 90.297ZM84.1239 75.8154C80.4345 76.9381 78.3563 80.8515 79.4945 84.5319C80.6172 88.2213 84.5306 90.2995 88.2111 89.1613C91.9004 88.0385 93.9786 84.1252 92.8404 80.4447C91.7023 76.7643 87.8043 74.6772 84.1239 75.8154Z" fill="black" fill-opacity="0.2"/>
<path d="M107.673 67.0484C114.711 59.9732 119.23 53.057 117.766 51.6008C116.303 50.1446 109.41 54.6998 102.372 61.775C95.3336 68.8503 90.8146 75.7664 92.2785 77.2226C93.7423 78.6788 100.635 74.1237 107.673 67.0484Z" fill="#FF952B"/>
<path d="M94.3325 77.9378C93.2277 78.2673 92.3487 78.2403 91.7898 77.6996C90.7806 76.6993 91.363 74.5746 93.554 71.2128C95.4818 68.2496 98.445 64.7298 101.874 61.2697C106.456 56.6717 115.752 48.6321 118.245 51.0986C119.254 52.0989 118.672 54.2236 116.481 57.5854C114.553 60.5486 111.59 64.0684 108.16 67.5285C104.595 71.1084 98.1785 76.7658 94.3325 77.9378ZM102.85 62.248C99.4803 65.6328 96.5853 69.0927 94.7078 71.9651C92.5452 75.2694 92.5818 76.5434 92.7681 76.7236C93.4979 77.4535 99.2483 74.5241 107.184 66.5502C110.555 63.1655 113.45 59.7055 115.327 56.8331C117.49 53.5288 117.453 52.2548 117.267 52.0746C116.537 51.3447 110.787 54.2741 102.85 62.248Z" fill="#161B26"/>
<path d="M94.3325 77.9378C93.2277 78.2673 92.3487 78.2403 91.7898 77.6996C90.7806 76.6993 91.363 74.5746 93.554 71.2128C95.4818 68.2496 98.445 64.7298 101.874 61.2697C106.456 56.6717 115.752 48.6321 118.245 51.0986C119.254 52.0989 118.672 54.2236 116.481 57.5854C114.553 60.5486 111.59 64.0684 108.16 67.5285C104.595 71.1084 98.1785 76.7658 94.3325 77.9378ZM102.85 62.248C99.4803 65.6328 96.5853 69.0927 94.7078 71.9651C92.5452 75.2694 92.5818 76.5434 92.7681 76.7236C93.4979 77.4535 99.2483 74.5241 107.184 66.5502C110.555 63.1655 113.45 59.7055 115.327 56.8331C117.49 53.5288 117.453 52.2548 117.267 52.0746C116.537 51.3447 110.787 54.2741 102.85 62.248Z" fill="black" fill-opacity="0.2"/>
<path d="M94.3325 77.9378C93.2277 78.2673 92.3487 78.2403 91.7898 77.6996C90.7806 76.6993 91.363 74.5746 93.554 71.2128C95.4818 68.2496 98.445 64.7298 101.874 61.2697C106.456 56.6717 115.752 48.6321 118.245 51.0986C119.254 52.0989 118.672 54.2236 116.481 57.5854C114.553 60.5486 111.59 64.0684 108.16 67.5285C104.595 71.1084 98.1785 76.7658 94.3325 77.9378ZM102.85 62.248C99.4803 65.6328 96.5853 69.0927 94.7078 71.9651C92.5452 75.2694 92.5818 76.5434 92.7681 76.7236C93.4979 77.4535 99.2483 74.5241 107.184 66.5502C110.555 63.1655 113.45 59.7055 115.327 56.8331C117.49 53.5288 117.453 52.2548 117.267 52.0746C116.537 51.3447 110.787 54.2741 102.85 62.248Z" fill="black" fill-opacity="0.2"/>
<path d="M94.3325 77.9378C93.2277 78.2673 92.3487 78.2403 91.7898 77.6996C90.7806 76.6993 91.363 74.5746 93.554 71.2128C95.4818 68.2496 98.445 64.7298 101.874 61.2697C106.456 56.6717 115.752 48.6321 118.245 51.0986C119.254 52.0989 118.672 54.2236 116.481 57.5854C114.553 60.5486 111.59 64.0684 108.16 67.5285C104.595 71.1084 98.1785 76.7658 94.3325 77.9378ZM102.85 62.248C99.4803 65.6328 96.5853 69.0927 94.7078 71.9651C92.5452 75.2694 92.5818 76.5434 92.7681 76.7236C93.4979 77.4535 99.2483 74.5241 107.184 66.5502C110.555 63.1655 113.45 59.7055 115.327 56.8331C117.49 53.5288 117.453 52.2548 117.267 52.0746C116.537 51.3447 110.787 54.2741 102.85 62.248Z" fill="black" fill-opacity="0.2"/>
<path d="M113.662 60.3235L121.873 59.8386C122.294 59.8213 122.7 59.6693 123.034 59.394L133.545 51.2497C135.16 49.9882 134.199 47.3979 132.154 47.4887L126.604 47.7739C126.286 47.793 125.949 47.8851 125.671 48.0453L118.043 52.3875L113.653 60.308L113.662 60.3235Z" fill="#FF8000"/>
<path d="M122.553 60.4112C122.342 60.4718 122.121 60.5169 121.898 60.5223L113.688 61.0071C113.434 61.0304 113.195 60.9011 113.07 60.6853C112.946 60.4694 112.938 60.2067 113.052 59.9765L117.442 52.056C117.498 51.9409 117.589 51.8478 117.697 51.7854L125.324 47.4432C125.694 47.2296 126.133 47.0996 126.555 47.0822L132.105 46.797C133.346 46.7384 134.433 47.4469 134.853 48.6021C135.283 49.7727 134.926 51.0065 133.951 51.7749L123.441 59.9192C123.175 60.1346 122.873 60.2883 122.551 60.3715L122.553 60.4112ZM114.854 59.5732L121.808 59.1558C122.086 59.1391 122.359 59.043 122.588 58.8697L133.099 50.7254C133.693 50.259 133.741 49.5941 133.553 49.1268C133.381 48.6506 132.922 48.1757 132.158 48.2056L126.607 48.4909C126.384 48.4963 126.173 48.5568 125.972 48.6725L118.514 52.9168L114.83 59.5667L114.854 59.5732Z" fill="#161B26"/>
<path d="M122.553 60.4112C122.342 60.4718 122.121 60.5169 121.898 60.5223L113.688 61.0071C113.434 61.0304 113.195 60.9011 113.07 60.6853C112.946 60.4694 112.938 60.2067 113.052 59.9765L117.442 52.056C117.498 51.9409 117.589 51.8478 117.697 51.7854L125.324 47.4432C125.694 47.2296 126.133 47.0996 126.555 47.0822L132.105 46.797C133.346 46.7384 134.433 47.4469 134.853 48.6021C135.283 49.7727 134.926 51.0065 133.951 51.7749L123.441 59.9192C123.175 60.1346 122.873 60.2883 122.551 60.3715L122.553 60.4112ZM114.854 59.5732L121.808 59.1558C122.086 59.1391 122.359 59.043 122.588 58.8697L133.099 50.7254C133.693 50.259 133.741 49.5941 133.553 49.1268C133.381 48.6506 132.922 48.1757 132.158 48.2056L126.607 48.4909C126.384 48.4963 126.173 48.5568 125.972 48.6725L118.514 52.9168L114.83 59.5667L114.854 59.5732Z" fill="black" fill-opacity="0.2"/>
<path d="M122.553 60.4112C122.342 60.4718 122.121 60.5169 121.898 60.5223L113.688 61.0071C113.434 61.0304 113.195 60.9011 113.07 60.6853C112.946 60.4694 112.938 60.2067 113.052 59.9765L117.442 52.056C117.498 51.9409 117.589 51.8478 117.697 51.7854L125.324 47.4432C125.694 47.2296 126.133 47.0996 126.555 47.0822L132.105 46.797C133.346 46.7384 134.433 47.4469 134.853 48.6021C135.283 49.7727 134.926 51.0065 133.951 51.7749L123.441 59.9192C123.175 60.1346 122.873 60.2883 122.551 60.3715L122.553 60.4112ZM114.854 59.5732L121.808 59.1558C122.086 59.1391 122.359 59.043 122.588 58.8697L133.099 50.7254C133.693 50.259 133.741 49.5941 133.553 49.1268C133.381 48.6506 132.922 48.1757 132.158 48.2056L126.607 48.4909C126.384 48.4963 126.173 48.5568 125.972 48.6725L118.514 52.9168L114.83 59.5667L114.854 59.5732Z" fill="black" fill-opacity="0.2"/>
<path d="M122.553 60.4112C122.342 60.4718 122.121 60.5169 121.898 60.5223L113.688 61.0071C113.434 61.0304 113.195 60.9011 113.07 60.6853C112.946 60.4694 112.938 60.2067 113.052 59.9765L117.442 52.056C117.498 51.9409 117.589 51.8478 117.697 51.7854L125.324 47.4432C125.694 47.2296 126.133 47.0996 126.555 47.0822L132.105 46.797C133.346 46.7384 134.433 47.4469 134.853 48.6021C135.283 49.7727 134.926 51.0065 133.951 51.7749L123.441 59.9192C123.175 60.1346 122.873 60.2883 122.551 60.3715L122.553 60.4112ZM114.854 59.5732L121.808 59.1558C122.086 59.1391 122.359 59.043 122.588 58.8697L133.099 50.7254C133.693 50.259 133.741 49.5941 133.553 49.1268C133.381 48.6506 132.922 48.1757 132.158 48.2056L126.607 48.4909C126.384 48.4963 126.173 48.5568 125.972 48.6725L118.514 52.9168L114.83 59.5667L114.854 59.5732Z" fill="black" fill-opacity="0.2"/>
<path d="M109.04 55.7351L109.48 47.5252C109.502 47.1011 109.662 46.7007 109.921 46.3661L118.013 35.8146C119.271 34.1837 121.872 35.1283 121.765 37.1846L121.515 42.735C121.504 43.0707 121.41 43.3714 121.252 43.668L116.95 51.3121L109.064 55.7416L109.04 55.7351Z" fill="#FF8000"/>
<path d="M109.239 56.4006C109.052 56.4677 108.851 56.4399 108.685 56.3302C108.47 56.2075 108.352 55.9673 108.368 55.7111L108.809 47.5012C108.83 46.9336 109.038 46.4027 109.378 45.9595L117.471 35.408C118.217 34.422 119.472 34.0675 120.638 34.4841C121.803 34.9007 122.515 35.9906 122.469 37.2296L122.22 42.7799C122.198 43.204 122.081 43.6418 121.864 44.0137L117.561 51.6578C117.504 51.7729 117.405 51.8507 117.297 51.913L109.411 56.3424C109.411 56.3424 109.319 56.3958 109.288 56.4136L109.239 56.4006ZM119.245 35.7401C119.003 35.8185 118.756 35.9609 118.55 36.2445L110.457 46.7961C110.279 47.0221 110.183 47.2831 110.169 47.5791L109.79 54.541L116.418 50.8172L120.626 43.3303C120.742 43.1398 120.801 42.921 120.805 42.7134L121.054 37.163C121.088 36.4032 120.598 35.9461 120.124 35.7671C119.863 35.6711 119.534 35.6351 119.221 35.7336L119.245 35.7401Z" fill="#161B26"/>
<path d="M109.239 56.4006C109.052 56.4677 108.851 56.4399 108.685 56.3302C108.47 56.2075 108.352 55.9673 108.368 55.7111L108.809 47.5012C108.83 46.9336 109.038 46.4027 109.378 45.9595L117.471 35.408C118.217 34.422 119.472 34.0675 120.638 34.4841C121.803 34.9007 122.515 35.9906 122.469 37.2296L122.22 42.7799C122.198 43.204 122.081 43.6418 121.864 44.0137L117.561 51.6578C117.504 51.7729 117.405 51.8507 117.297 51.913L109.411 56.3424C109.411 56.3424 109.319 56.3958 109.288 56.4136L109.239 56.4006ZM119.245 35.7401C119.003 35.8185 118.756 35.9609 118.55 36.2445L110.457 46.7961C110.279 47.0221 110.183 47.2831 110.169 47.5791L109.79 54.541L116.418 50.8172L120.626 43.3303C120.742 43.1398 120.801 42.921 120.805 42.7134L121.054 37.163C121.088 36.4032 120.598 35.9461 120.124 35.7671C119.863 35.6711 119.534 35.6351 119.221 35.7336L119.245 35.7401Z" fill="black" fill-opacity="0.2"/>
<path d="M109.239 56.4006C109.052 56.4677 108.851 56.4399 108.685 56.3302C108.47 56.2075 108.352 55.9673 108.368 55.7111L108.809 47.5012C108.83 46.9336 109.038 46.4027 109.378 45.9595L117.471 35.408C118.217 34.422 119.472 34.0675 120.638 34.4841C121.803 34.9007 122.515 35.9906 122.469 37.2296L122.22 42.7799C122.198 43.204 122.081 43.6418 121.864 44.0137L117.561 51.6578C117.504 51.7729 117.405 51.8507 117.297 51.913L109.411 56.3424C109.411 56.3424 109.319 56.3958 109.288 56.4136L109.239 56.4006ZM119.245 35.7401C119.003 35.8185 118.756 35.9609 118.55 36.2445L110.457 46.7961C110.279 47.0221 110.183 47.2831 110.169 47.5791L109.79 54.541L116.418 50.8172L120.626 43.3303C120.742 43.1398 120.801 42.921 120.805 42.7134L121.054 37.163C121.088 36.4032 120.598 35.9461 120.124 35.7671C119.863 35.6711 119.534 35.6351 119.221 35.7336L119.245 35.7401Z" fill="black" fill-opacity="0.2"/>
<path d="M109.239 56.4006C109.052 56.4677 108.851 56.4399 108.685 56.3302C108.47 56.2075 108.352 55.9673 108.368 55.7111L108.809 47.5012C108.83 46.9336 109.038 46.4027 109.378 45.9595L117.471 35.408C118.217 34.422 119.472 34.0675 120.638 34.4841C121.803 34.9007 122.515 35.9906 122.469 37.2296L122.22 42.7799C122.198 43.204 122.081 43.6418 121.864 44.0137L117.561 51.6578C117.504 51.7729 117.405 51.8507 117.297 51.913L109.411 56.3424C109.411 56.3424 109.319 56.3958 109.288 56.4136L109.239 56.4006ZM119.245 35.7401C119.003 35.8185 118.756 35.9609 118.55 36.2445L110.457 46.7961C110.279 47.0221 110.183 47.2831 110.169 47.5791L109.79 54.541L116.418 50.8172L120.626 43.3303C120.742 43.1398 120.801 42.921 120.805 42.7134L121.054 37.163C121.088 36.4032 120.598 35.9461 120.124 35.7671C119.863 35.6711 119.534 35.6351 119.221 35.7336L119.245 35.7401Z" fill="black" fill-opacity="0.2"/>
<path d="M111.189 55.7896C111.85 55.1198 126.918 41.0548 127.588 41.7165C128.258 42.3782 114.252 57.5359 113.597 58.1814C112.942 58.827 111.867 58.8516 111.197 58.1899C110.527 57.5282 110.527 56.4595 111.189 55.7896Z" fill="#FF8000"/>
<path d="M113.097 59.2718C112.87 59.3413 112.64 59.371 112.402 59.3853C111.764 59.3837 111.166 59.1324 110.709 58.6973C109.784 57.7717 109.773 56.2569 110.699 55.332C111.059 54.9594 115.009 51.2607 118.93 47.7631C127.196 40.3597 127.502 40.6763 128.079 41.2479C128.647 41.804 128.953 42.1206 121.619 50.4253C118.13 54.3516 114.459 58.3206 114.099 58.6932C113.813 58.9815 113.474 59.1774 113.106 59.2872L113.097 59.2718ZM111.681 56.286C111.29 56.6764 111.288 57.3145 111.688 57.7213C111.883 57.9169 112.128 58.0218 112.407 58.0051C112.678 58.0128 112.927 57.9101 113.123 57.7149C113.89 56.943 121.564 48.5861 125.137 44.2001C120.783 47.8034 112.464 55.5052 111.681 56.286ZM86.5288 83.8616C86.3017 83.931 86.0277 83.8837 85.8325 83.688C85.553 83.4177 85.5665 82.9782 85.8304 82.723L91.788 76.7343C92.0584 76.4549 92.4979 76.4684 92.753 76.7322C93.0324 77.0026 93.0189 77.4421 92.7551 77.6972L86.7975 83.6859C86.7228 83.7702 86.6148 83.8325 86.5045 83.8551L86.5288 83.8616Z" fill="#161B26"/>
<path d="M113.097 59.2718C112.87 59.3413 112.64 59.371 112.402 59.3853C111.764 59.3837 111.166 59.1324 110.709 58.6973C109.784 57.7717 109.773 56.2569 110.699 55.332C111.059 54.9594 115.009 51.2607 118.93 47.7631C127.196 40.3597 127.502 40.6763 128.079 41.2479C128.647 41.804 128.953 42.1206 121.619 50.4253C118.13 54.3516 114.459 58.3206 114.099 58.6932C113.813 58.9815 113.474 59.1774 113.106 59.2872L113.097 59.2718ZM111.681 56.286C111.29 56.6764 111.288 57.3145 111.688 57.7213C111.883 57.9169 112.128 58.0218 112.407 58.0051C112.678 58.0128 112.927 57.9101 113.123 57.7149C113.89 56.943 121.564 48.5861 125.137 44.2001C120.783 47.8034 112.464 55.5052 111.681 56.286ZM86.5288 83.8616C86.3017 83.931 86.0277 83.8837 85.8325 83.688C85.553 83.4177 85.5665 82.9782 85.8304 82.723L91.788 76.7343C92.0584 76.4549 92.4979 76.4684 92.753 76.7322C93.0324 77.0026 93.0189 77.4421 92.7551 77.6972L86.7975 83.6859C86.7228 83.7702 86.6148 83.8325 86.5045 83.8551L86.5288 83.8616Z" fill="black" fill-opacity="0.2"/>
<path d="M113.097 59.2718C112.87 59.3413 112.64 59.371 112.402 59.3853C111.764 59.3837 111.166 59.1324 110.709 58.6973C109.784 57.7717 109.773 56.2569 110.699 55.332C111.059 54.9594 115.009 51.2607 118.93 47.7631C127.196 40.3597 127.502 40.6763 128.079 41.2479C128.647 41.804 128.953 42.1206 121.619 50.4253C118.13 54.3516 114.459 58.3206 114.099 58.6932C113.813 58.9815 113.474 59.1774 113.106 59.2872L113.097 59.2718ZM111.681 56.286C111.29 56.6764 111.288 57.3145 111.688 57.7213C111.883 57.9169 112.128 58.0218 112.407 58.0051C112.678 58.0128 112.927 57.9101 113.123 57.7149C113.89 56.943 121.564 48.5861 125.137 44.2001C120.783 47.8034 112.464 55.5052 111.681 56.286ZM86.5288 83.8616C86.3017 83.931 86.0277 83.8837 85.8325 83.688C85.553 83.4177 85.5665 82.9782 85.8304 82.723L91.788 76.7343C92.0584 76.4549 92.4979 76.4684 92.753 76.7322C93.0324 77.0026 93.0189 77.4421 92.7551 77.6972L86.7975 83.6859C86.7228 83.7702 86.6148 83.8325 86.5045 83.8551L86.5288 83.8616Z" fill="black" fill-opacity="0.2"/>
<path d="M113.097 59.2718C112.87 59.3413 112.64 59.371 112.402 59.3853C111.764 59.3837 111.166 59.1324 110.709 58.6973C109.784 57.7717 109.773 56.2569 110.699 55.332C111.059 54.9594 115.009 51.2607 118.93 47.7631C127.196 40.3597 127.502 40.6763 128.079 41.2479C128.647 41.804 128.953 42.1206 121.619 50.4253C118.13 54.3516 114.459 58.3206 114.099 58.6932C113.813 58.9815 113.474 59.1774 113.106 59.2872L113.097 59.2718ZM111.681 56.286C111.29 56.6764 111.288 57.3145 111.688 57.7213C111.883 57.9169 112.128 58.0218 112.407 58.0051C112.678 58.0128 112.927 57.9101 113.123 57.7149C113.89 56.943 121.564 48.5861 125.137 44.2001C120.783 47.8034 112.464 55.5052 111.681 56.286ZM86.5288 83.8616C86.3017 83.931 86.0277 83.8837 85.8325 83.688C85.553 83.4177 85.5665 82.9782 85.8304 82.723L91.788 76.7343C92.0584 76.4549 92.4979 76.4684 92.753 76.7322C93.0324 77.0026 93.0189 77.4421 92.7551 77.6972L86.7975 83.6859C86.7228 83.7702 86.6148 83.8325 86.5045 83.8551L86.5288 83.8616Z" fill="black" fill-opacity="0.2"/>
</g>
<defs>
<clipPath id="clip0_113_2861">
<rect width="124" height="118.54" fill="white" transform="translate(0 62.9443) rotate(-30)"/>
</clipPath>
</defs>
</svg>
